<?xml version="1.0" encoding="UTF-8"?>
<svg width="30px" height="30px" viewBox="0 0 30 30" version="1.1" xmlns="http://www.w3.org/2000/svg" xmlns:xlink="http://www.w3.org/1999/xlink">
    <title>Action_required</title>
    <defs>
        <path d="M1.99804621,3.32508743 L9.87491257,16.9230462 L8.57695379,17.6749126 L0.700087433,4.07695379 L1.99804621,3.32508743 Z M13.1631536,0.0820486767 L17.2240928,7.28098638 L16.7759323,7.68318171 C15.878863,8.4882439 14.8927875,8.87526566 13.7014299,8.99520775 C13.3631374,9.02926596 13.0804772,9.04143327 12.6373382,9.04241479 L12.6373382,9.04241479 L11.9244873,9.0389813 C9.88704857,9.03722241 9.17520344,9.31693259 8.37696759,10.7207267 L8.37696759,10.7207267 L7.72239307,11.871875 L3.5609805,4.49482542 L3.77622661,4.12371143 C4.93602844,2.12405311 6.16146666,1.70985538 8.85212712,1.71534591 L8.85212712,1.71534591 L9.17416276,1.7153351 C9.39568619,1.7146576 9.55675026,1.71222222 9.70696869,1.70665214 L9.70696869,1.70665214 L9.93036381,1.69577388 C11.0107864,1.63135844 11.7673037,1.36769989 12.4668932,0.723341171 L12.4668932,0.723341171 L13.1631536,0.0820486767 Z M12.74625,2.3955 L12.5840776,2.49493612 C11.8357416,2.92922695 11.0067685,3.13426159 10.0196362,3.19311501 C9.84662942,3.20342977 9.69303767,3.20933966 9.50501562,3.21247574 L9.50501562,3.21247574 L9.19042914,3.21530339 L8.63982048,3.21573912 C6.7967548,3.22707169 6.02511952,3.45544668 5.31105384,4.49785196 L5.31105384,4.49785196 L5.2965,4.5195 L7.78875,8.937 L7.89692762,8.8174412 C8.83604013,7.80449173 9.98541798,7.54026462 11.9197982,7.53911997 L11.9197982,7.53911997 L12.3162828,7.54149542 C12.7484265,7.54439438 13.0216228,7.54106273 13.27198,7.52559109 L13.27198,7.52559109 L13.5511743,7.50275232 C14.1697144,7.44047966 14.6895045,7.29200615 15.1638525,7.01534632 L15.1638525,7.01534632 L15.303,6.9285 L12.74625,2.3955 Z" id="action-required-path"></path>
    </defs>
    <g id="✅-Activity-Log" stroke="none" stroke-width="1" fill="none" fill-rule="evenodd">
        <g id="Activity-log:-Spec" transform="translate(-402.000000, -3282.000000)">
            <g id="Stacked-Group" transform="translate(370.000000, 360.000000)">
                <g id="Version-1" transform="translate(0.000000, 800.000000)">
                    <g id="Stacked-Group-2" transform="translate(24.000000, 1276.000001)">
                        <g id="Date" transform="translate(0.000000, 811.000000)">
                            <g id="Event" transform="translate(0.000000, 27.000000)">
                                <g id="Action_required" transform="translate(8.000000, 8.000000)">
                                    <circle id="Oval" fill="#DC3645" cx="15" cy="15" r="15"></circle>
                                    <g id="Clock" transform="translate(6.000000, 6.000000)">
                                        <mask id="action-required-mask-2" fill="white">
                                            <use xlink:href="#action-required-path"></use>
                                        </mask>
                                        <use id="Combined-Shape" fill="#111111" fill-rule="nonzero" xlink:href="#action-required-path"></use>
                                        <g id="Group" mask="url(#action-required-mask-2)" fill="#FFFFFF">
                                            <g id="colour">
                                                <rect id="Rectangle" x="0" y="0" width="18" height="18"></rect>
                                            </g>
                                        </g>
                                    </g>
                                </g>
                            </g>
                        </g>
                    </g>
                </g>
            </g>
        </g>
    </g>
</svg>