<?xml version="1.0" encoding="UTF-8"?>
<svg width="30px" height="30px" viewBox="0 0 30 30" version="1.1" xmlns="http://www.w3.org/2000/svg" xmlns:xlink="http://www.w3.org/1999/xlink">
    <title>Application_rejected</title>
    <defs>
        <path d="M10.0645226,0.251645849 C10.5352721,-0.114384477 11.2159495,-0.0811089925 11.6485303,0.351472301 C12.1171596,0.820102036 12.1171596,1.57990096 11.6485303,2.04853069 L11.6485303,2.04853069 L7.697,6 L11.6485303,9.95148428 C12.1171596,10.420114 12.1171596,11.1799129 11.6485303,11.6485427 C11.2159495,12.081124 10.5352721,12.1143994 10.0645226,11.7483691 L9.95147373,11.6485427 L6,7.697 L2.04852852,11.6485427 L1.9354797,11.7483691 C1.46473016,12.1143994 0.784052764,12.081124 0.351471929,11.6485427 C-0.11715731,11.1799129 -0.11715731,10.420114 0.351471929,9.95148428 L0.351471929,9.95148428 L4.303,6 L0.351471929,2.04853069 C-0.11715731,1.57990096 -0.11715731,0.820102036 0.351471929,0.351472301 C0.784052764,-0.0811089925 1.46473016,-0.114384477 1.9354797,0.251645849 L2.04852852,0.351472301 L6,4.303 L9.95147373,0.351472301 Z" id="appliction-rejected-path-1"></path>
    </defs>
    <g id="✅-Activity-Log" stroke="none" stroke-width="1" fill="none" fill-rule="evenodd">
        <g id="Activity-log:-Spec" transform="translate(-402.000000, -486.000000)">
            <g id="Stacked-Group" transform="translate(370.000000, 360.000000)">
                <g id="Version-2-events" transform="translate(24.000000, 91.000000)">
                    <g id="Event" transform="translate(0.000000, 27.001138)">
                        <g id="Application_rejected" transform="translate(8.000000, 7.999638)">
                            <ellipse id="Oval" fill="#DC3645" cx="15" cy="14.999321" rx="15" ry="14.999321"></ellipse>
                            <g id="icon-/-small-message" transform="translate(8.999999, 8.999314)">
                                <mask id="appliction-rejected-mask-2" fill="white">
                                    <use xlink:href="#appliction-rejected-path-1"></use>
                                </mask>
                                <use id="Combined-Shape" fill="#475DA7" fill-rule="nonzero" xlink:href="#appliction-rejected-path-1"></use>
                                <g id="Group" mask="url(#appliction-rejected-mask-2)" fill="#FFFFFF">
                                    <g id="colour/purple">
                                        <rect id="Rectangle" x="0" y="0" width="12.0000023" height="12.000015"></rect>
                                    </g>
                                </g>
                            </g>
                        </g>
                    </g>
                </g>
            </g>
        </g>
    </g>
</svg>