<svg xmlns="http://www.w3.org/2000/svg" xmlns:xlink="http://www.w3.org/1999/xlink" width="30" height="30" viewBox="0 0 30 30">
    <defs>
        <path id="tick" d="M9.988 17c-.265 0-.52-.105-.707-.292l-3-3c-.38-.393-.374-1.016.012-1.402.386-.386 1.01-.391 1.402-.012l2.2 2.2 6.303-8.107c.339-.437.967-.516 1.404-.176.436.339.515.967.176 1.404l-7 9c-.176.227-.441.368-.728.386h-.062z"/>
    </defs>
    <g fill="none" fill-rule="evenodd">
        <mask id="mask-tick" fill="#fff">
            <use xlink:href="#tick"/>
        </mask>
        <use fill="#fff" fill-rule="nonzero" xlink:href="#tick"/>
        <ellipse xmlns="http://www.w3.org/2000/svg" id="Oval" fill="#3DB28C" cx="15" cy="14.999321" rx="15" ry="14.999321"/>
        <g fill="#fff" mask="url(#mask-tick)" transform="translate(3, 3)">
            <path d="M0 0H24V24H0z"/>
        </g>
    </g>
</svg>  
