<?xml version="1.0" encoding="UTF-8"?>
<svg width="24px" height="24px" viewBox="-13 -13 50 50" version="1.1" xmlns="http://www.w3.org/2000/svg" xmlns:xlink="http://www.w3.org/1999/xlink">
    <title>icon/bell</title>
    <defs>
        <path d="M14.855,21.9 C14.4638343,23.1477858 13.307662,23.9969922 12,23.9969922 C10.692338,23.9969922 9.53616569,23.1477858 9.145,21.9 C10.039,21.966 10.989,22 12,22 C13.011,22 13.961,21.966 14.855,21.9 Z M12,1.04308128e-07 C16.418278,1.04308128e-07 20,3.58172208 20,8.0000001 L20,8.0000001 L20,11.0000001 C20,12.1184647 20.3694847,12.8656448 21.2498379,13.8633784 L21.2498379,13.8633784 L21.912636,14.6024334 L22.1063995,14.8323988 C22.6922294,15.552011 23,16.2050716 23,17.0000001 C23,19.5180132 18.8479819,20.8957103 12.7161782,20.9943078 L12.7161782,20.9943078 L12,21.0000001 C5.47754614,21.0000001 1,19.6148599 1,17.0000001 C1,16.2050716 1.30777056,15.552011 1.89360048,14.8323988 C2.01589935,14.6821714 2.1439002,14.5355169 2.3259129,14.3340038 L2.3259129,14.3340038 L2.61844503,14.011047 L2.91946309,13.6669881 C3.67813779,12.7643706 4,12.0439004 4,11.0000001 L4,11.0000001 L4,8.0000001 C4,3.58172208 7.58172201,1.04308128e-07 12,1.04308128e-07 Z M12,2.0000001 C8.6862915,2.0000001 6,4.68629158 6,8.0000001 L6,8.0000001 L6,11.0000001 C6,12.6898688 5.4226097,13.8574802 4.24983786,15.1866217 C4.20896668,15.2306256 3.58542908,15.9221052 3.44461991,16.0950701 L3.44461991,16.0950701 L3.34441885,16.2222363 C3.09644422,16.5487301 3,16.7780382 3,17.0000001 C3,17.8786654 6.62477967,19.0000001 12,19.0000001 C17.3752203,19.0000001 21,17.8786654 21,17.0000001 C21,16.750293 20.8779378,16.4912882 20.5553801,16.0950701 C20.5117963,16.0415334 20.4219647,15.9383203 20.3174653,15.8199853 L20.3174653,15.8199853 L19.7501621,15.1866217 C18.5773903,13.8574802 18,12.6898688 18,11.0000001 L18,11.0000001 L18,8.0000001 C18,4.68629158 15.3137085,2.0000001 12,2.0000001 Z" id="bell"></path>
    </defs>
    <g id="icon/bell" stroke="none" stroke-width="1" fill="none" fill-rule="evenodd">
        <mask id="mask-bell" fill="white">
            <use xlink:href="#bell"></use>
        </mask>
        <use id="Combined-Shape" fill="#111111" fill-rule="nonzero" xlink:href="#bell"></use>
        <g id="colour/purple" mask="url(#mask-bell)" fill="#475DA7">
            <rect id="Rectangle" x="0" y="0" width="24" height="24" ></rect>
        </g>
    </g>
</svg>