<?xml version="1.0" encoding="UTF-8"?>
<svg width="20px" height="20px" viewBox="0 0 20 20" version="1.1" xmlns="http://www.w3.org/2000/svg" xmlns:xlink="http://www.w3.org/1999/xlink">
    <title>Group 14</title>
    <g id="Educational---Caroline" stroke="none" stroke-width="1" fill="none" fill-rule="evenodd">
        <g id="Artboard" transform="translate(-9.000000, -6.000000)" fill="#868E96" fill-rule="nonzero">
            <g id="Group-13" transform="translate(9.000000, 6.000000)">
                <path d="M4.50001465,0 C4.22385961,0 4,0.298476562 4,0.666679687 L4,2 L5,2 L5,0.666679687 C5,0.298476562 4.77614039,0 4.50001465,0 Z" id="Path"></path>
                <path d="M14.5000146,0 C14.2238596,0 14,0.298476562 14,0.666679687 L14,2 L15,2 L15,0.666679687 C15.0000293,0.298476562 14.7761697,0 14.5000146,0 Z" id="Path"></path>
                <path d="M17.8571444,2 L15.7142887,2 L15.7142887,4.88001181 C15.7142887,5.27767088 15.3944926,5.60002531 14.9999895,5.60002531 C14.6054865,5.60002531 14.2856904,5.27767088 14.2856904,4.88001181 L14.2856904,2 L5.71426778,2 L5.71426778,4.88001181 C5.71426778,5.27767088 5.39447168,5.60002531 4.99996861,5.60002531 C4.60546554,5.60002531 4.28566944,5.27767088 4.28566944,4.88001181 L4.28566944,2 L2.14285565,2 C0.959388282,2 0,2.96706331 0,4.15999831 L0,17.8400017 C0,19.0329367 0.959388282,20 2.14285565,20 L17.8571444,20 C19.0406117,20 20,19.0329367 20,17.8400017 L20,4.15999831 C20,2.96706331 19.0406117,2 17.8571444,2 Z M18.5714017,17.8400017 C18.5714017,18.2376608 18.2516056,18.5600152 17.8571025,18.5600152 L2.14285565,18.5600152 C1.74835258,18.5600152 1.42855648,18.2376608 1.42855648,17.8400017 L1.42855648,8.47999494 L18.5714017,8.47999494 L18.5714017,17.8400017 Z" id="Shape"></path>
                <path d="M5.24998901,10 L3.75001099,10 C3.33578449,10 3,10.223853 3,10.5 C3,10.776147 3.33578449,11 3.75001099,11 L5.24998901,11 C5.66421551,11 6,10.776147 6,10.5 C6,10.223853 5.66421551,10 5.24998901,10 Z" id="Path"></path>
                <path d="M10.249989,10 L8.75001099,10 C8.33578449,10 8,10.223853 8,10.5 C8,10.776147 8.33578449,11 8.75001099,11 L10.249989,11 C10.6642155,11 11,10.776147 11,10.5 C11,10.223853 10.6642155,10 10.249989,10 Z" id="Path"></path>
                <path d="M15.249989,10 L13.750011,10 C13.3357845,10 13,10.223853 13,10.5 C13,10.776147 13.3357845,11 13.750011,11 L15.249989,11 C15.6642155,11 16,10.776147 16,10.5 C16,10.223853 15.6641716,10 15.249989,10 Z" id="Path"></path>
                <path d="M5.24998901,13 L3.75001099,13 C3.33578449,13 3,13.223853 3,13.5 C3,13.776147 3.33578449,14 3.75001099,14 L5.24998901,14 C5.66421551,14 6,13.776147 6,13.5 C6,13.223853 5.66421551,13 5.24998901,13 Z" id="Path"></path>
                <path d="M10.249989,13 L8.75001099,13 C8.33578449,13 8,13.223853 8,13.5 C8,13.776147 8.33578449,14 8.75001099,14 L10.249989,14 C10.6642155,14 11,13.776147 11,13.5 C11,13.223853 10.6642155,13 10.249989,13 Z" id="Path"></path>
                <path d="M15.249989,13 L13.750011,13 C13.3357845,13 13,13.223853 13,13.5 C13,13.776147 13.3357845,14 13.750011,14 L15.249989,14 C15.6642155,14 16,13.776147 16,13.5 C15.9999561,13.223853 15.6641716,13 15.249989,13 Z" id="Path"></path>
                <path d="M5.24998901,16 L3.75001099,16 C3.33578449,16 3,16.2238596 3,16.5000146 C3,16.7761697 3.33578449,17 3.75001099,17 L5.24998901,17 C5.66421551,17 6,16.7761404 6,16.4999854 C6,16.2238303 5.66421551,16 5.24998901,16 Z" id="Path"></path>
                <path d="M10.249989,16 L8.75001099,16 C8.33578449,16 8,16.223853 8,16.5 C8,16.776147 8.33578449,17 8.75001099,17 L10.249989,17 C10.6642155,17 11,16.776147 11,16.5 C11,16.223853 10.6642155,16 10.249989,16 Z" id="Path"></path>
                <path d="M15.249989,16 L13.750011,16 C13.3357845,16 13,16.223853 13,16.5 C13,16.776147 13.3357845,17 13.750011,17 L15.249989,17 C15.6642155,17 16,16.776147 16,16.5 C16,16.223853 15.6641716,16 15.249989,16 Z" id="Path"></path>
            </g>
        </g>
    </g>
</svg>