<?xml version="1.0" encoding="UTF-8"?>
<svg width="24px" height="24px" viewBox="0 0 24 24" version="1.1" xmlns="http://www.w3.org/2000/svg" xmlns:xlink="http://www.w3.org/1999/xlink">
    <title>icon/cohort</title>
    <defs>
        <path d="M14.7272727,9.18181818 C16.2841029,9.18181818 17.5454545,10.4431698 17.5454545,12 L17.5454545,12 L17.5454545,18.4545455 L15.727,18.454 L15.7272727,23 L8.27272727,23 L8.272,17.545 L6.45454545,17.5454545 L6.45454545,12 C6.45454545,10.4431698 7.71589707,9.18181818 9.27272727,9.18181818 L9.27272727,9.18181818 Z M5.72727273,9.18181818 L5.72727273,11.1818182 L3.81818182,11.1818182 C3.4007104,11.1818182 3.05680644,11.493609 3.00636839,11.8972921 L3,12 L3,15.545 L4.81818182,15.5454545 L4.818,19.181 L7.54545455,19.1818182 L7.54545455,21.1818182 L2.81818182,21.1818182 L2.818,17.545 L1,17.5454545 L1,12 C1,10.5008302 2.16964841,9.27565696 3.64646572,9.18695986 L3.81818182,9.18181818 L5.72727273,9.18181818 Z M20.1818182,9.18181818 C21.680988,9.18181818 22.9061612,10.3514666 22.9948583,11.8282839 L23,12 L23,17.5454545 L21.181,17.545 L21.1818182,21.1818182 L16.4545455,21.1818182 L16.4545455,19.1818182 L19.181,19.181 L19.1818182,15.5454545 L21,15.545 L21,12 C21,11.5825286 20.6882092,11.2386246 20.2845261,11.1881866 L20.1818182,11.1818182 L18.2727273,11.1818182 L18.2727273,9.18181818 L20.1818182,9.18181818 Z M14.7272727,11.1818182 L9.27272727,11.1818182 C8.82046657,11.1818182 8.45454545,11.5477393 8.45454545,12 L8.45454545,12 L8.454,15.545 L10.2727273,15.5454545 L10.272,21 L13.727,21 L13.7272727,16.4545455 L15.545,16.454 L15.5454545,12 C15.5454545,11.5825286 15.2336638,11.2386246 14.8299807,11.1881866 L14.8299807,11.1881866 L14.7272727,11.1818182 Z M4.68691986,2.81899633 L4.90252679,2.82355669 C6.29404106,2.90916492 7.42270335,4.00804369 7.5386156,5.44683861 L7.5386156,5.44683861 L7.54545455,5.63636364 C7.54545455,7.10731853 6.41554246,8.32696458 4.91679776,8.44770651 L4.91679776,8.44770651 L4.72727273,8.45454545 C3.25631783,8.45454545 2.03667178,7.32463337 1.91592985,5.82588867 L1.91592985,5.82588867 L1.90909091,5.63636364 C1.90909091,4.16540874 3.03900299,2.94576269 4.5377477,2.82502076 L4.5377477,2.82502076 L4.68691986,2.81899633 Z M12,1 C13.9742544,1 15.6025989,2.53880616 15.7218476,4.53118132 L15.7218476,4.53118132 L15.7272727,4.72727273 C15.7272727,6.70152716 14.1884666,8.32987161 12.1960914,8.44912036 L12.1960914,8.44912036 L12,8.45454545 C10.0257456,8.45454545 8.39740112,6.9157393 8.27815236,4.92336413 L8.27815236,4.92336413 L8.27272727,4.72727273 C8.27272727,2.75301829 9.81153343,1.12467385 11.8039086,1.00542509 L11.8039086,1.00542509 Z M19.3130801,2.81899633 L19.5027468,2.82747976 C20.960997,2.94576269 22.0909091,4.16540874 22.090095,5.67671651 L22.090095,5.67671651 L22.0816112,5.86638319 C21.9633282,7.32463337 20.7436822,8.45454545 19.2323744,8.45373139 L19.2323744,8.45373139 L19.0427077,8.44524751 C17.5844575,8.32696458 16.4545455,7.10731853 16.4553595,5.59601077 L16.4553595,5.59601077 L16.4638434,5.40634408 C16.5821263,3.9480939 17.8017724,2.81818182 19.2727273,2.81818182 L19.2727273,2.81818182 L19.3130801,2.81899633 Z M4.728,4.818 L4.65894796,4.82093274 C4.23717408,4.85514405 3.90909091,5.20928253 3.9082764,5.59601077 L3.9082764,5.59601077 L3.91184183,5.7046884 C3.94605314,6.12646228 4.30019162,6.45454545 4.68691986,6.45535996 L4.68691986,6.45535996 L4.79559749,6.45179453 C5.21737137,6.41758322 5.54545455,6.06344474 5.54626905,5.67671651 L5.54626905,5.67671651 L5.54270362,5.56803887 C5.50849231,5.14626499 5.15435383,4.81818182 4.728,4.818 L4.728,4.818 Z M19.266,4.818 L19.167621,4.82485781 C18.7888619,4.87323177 18.4888617,5.17803827 18.4597554,5.52754435 L18.4597554,5.52754435 L18.4545455,5.63636364 C18.4545455,6.06344474 18.7826286,6.41758322 19.163908,6.44933553 L19.163908,6.44933553 L19.2727273,6.45454545 C19.6998084,6.45454545 20.0539469,6.12646228 20.0856992,5.74518292 L20.0856992,5.74518292 L20.0909091,5.63636364 C20.0909091,5.20928253 19.7628259,4.85514405 19.3815466,4.82339174 L19.3815466,4.82339174 L19.266,4.818 Z M12,3 L11.8938201,3.00317687 C10.9860393,3.05771614 10.2727273,3.8125335 10.272279,4.69733282 L10.272279,4.69733282 L10.2759041,4.8334526 C10.3304434,5.74123347 11.0852608,6.45454545 11.9700601,6.45499375 L11.9700601,6.45499375 L12.1061799,6.45136858 C13.0139607,6.39682932 13.7272727,5.64201195 13.727721,4.75721263 L13.727721,4.75721263 L13.7240959,4.62109285 C13.6695566,3.71331198 12.9147392,3 12,3 L12,3 Z" id="cohort"></path>
    </defs>
    <g id="icon/cohort" stroke="none" stroke-width="1" fill="none" fill-rule="evenodd">
        <mask id="mask-cohort" fill="white">
            <use xlink:href="#cohort"></use>
        </mask>
        <use id="Combined-Shape" fill="#111111" fill-rule="nonzero" xlink:href="#cohort"></use>
        <g id="Group" mask="url(#mask-cohort)" fill="#475DA7">
            <g id="colour">
                <rect id="Rectangle" x="0" y="0" width="24" height="24"></rect>
            </g>
        </g>
    </g>
</svg>
