<?xml version="1.0" encoding="UTF-8"?>
<svg width="30px" height="30px" viewBox="0 0 30 30" version="1.1" xmlns="http://www.w3.org/2000/svg" xmlns:xlink="http://www.w3.org/1999/xlink">
    <title>Collaborators</title>
    <defs>
        <path d="M10,9.33333333 C12.5775232,9.33333333 14.6666667,11.4224768 14.6666667,14 L14.6666667,14 L14.6666667,15.1533016 L14.2031838,15.3016161 C13.9570499,15.380379 13.5292523,15.4875049 12.924582,15.5975906 L12.924582,15.5975906 L12.5772495,15.6577783 C11.2787597,15.8719622 9.75030841,16 8,16 C6.24969159,16 4.72124033,15.8719622 3.42275049,15.6577783 C2.63231587,15.5273973 2.08770177,15.3946995 1.79681618,15.3016161 L1.79681618,15.3016161 L1.33333333,15.1533016 L1.33333333,14 C1.33333333,11.4224768 3.42247683,9.33333333 6,9.33333333 L6,9.33333333 Z M10,10.6666667 L6,10.6666667 C4.1588565,10.6666667 2.66666667,12.1588565 2.66666667,14 L2.66666667,14 L2.66666667,14.152 L3.04680146,14.2341757 C3.16851825,14.2586645 3.29695243,14.2829301 3.43206848,14.3067808 L3.43206848,14.3067808 L3.63974951,14.3422217 C4.86730133,14.5447045 6.32322508,14.6666667 8,14.6666667 C9.67677492,14.6666667 11.1326987,14.5447045 12.3602505,14.3422217 C12.6438286,14.2954459 12.9007502,14.2466273 13.1307312,14.1972991 L13.1307312,14.1972991 L13.3333333,14.1513333 L13.3333333,14 C13.3333333,12.2073076 11.9186464,10.7454446 10.1446076,10.6697459 L10.1446076,10.6697459 L10,10.6666667 Z M8,0 C10.2088565,0 12,1.7911435 12,4 C12,6.30526013 10.1497757,8.66666667 8,8.66666667 C5.85022426,8.66666667 4,6.30526013 4,4 C4,1.7911435 5.7911435,0 8,0 Z M8,1.33333333 C6.52752317,1.33333333 5.33333333,2.52752317 5.33333333,4 C5.33333333,5.63034405 6.66767032,7.33333333 8,7.33333333 C9.33232968,7.33333333 10.6666667,5.63034405 10.6666667,4 C10.6666667,2.52752317 9.47247683,1.33333333 8,1.33333333 Z" id="collaborators"></path>
    </defs>
    <g id="✅-Activity-Log" stroke="none" stroke-width="1" fill="none" fill-rule="evenodd">
        <g id="DAR:-Applicant:-Activity-log" transform="translate(-402.000000, -2211.000000)">
            <g id="Stacked-Group" transform="translate(370.000000, 342.000000)">
                <g id="Version-1" transform="translate(0.000000, 429.000000)">
                    <g id="Stacked-Group-2" transform="translate(24.000000, 733.000003)">
                        <g id="Date" transform="translate(0.000000, 626.000000)">
                            <g id="Stacked-Group" transform="translate(0.000000, 27.000000)">
                                <g id="Group-16" transform="translate(0.000000, 46.000000)">
                                    <g id="Collaborators" transform="translate(8.000000, 8.000000)">
                                        <circle id="Oval" fill="#475DA7" cx="15" cy="15" r="15"></circle>
                                        <g id="icon/person-outline" transform="translate(7.000000, 7.000000)">
                                            <mask id="collaborators-mask" fill="white">
                                                <use xlink:href="#collaborators"></use>
                                            </mask>
                                            <use id="Combined-Shape" fill="#111111" fill-rule="nonzero" xlink:href="#collaborators"></use>
                                            <g id="Group" mask="url(#collaborators-mask)" fill="#FFFFFF">
                                                <g id="colour">
                                                    <rect id="Rectangle" x="0" y="0" width="16" height="16"></rect>
                                                </g>
                                            </g>
                                        </g>
                                    </g>
                                </g>
                            </g>
                        </g>
                    </g>
                </g>
            </g>
        </g>
    </g>
</svg>