<?xml version="1.0" encoding="UTF-8"?>
<svg width="24px" height="24px" viewBox="0 0 24 24" version="1.1" xmlns="http://www.w3.org/2000/svg" xmlns:xlink="http://www.w3.org/1999/xlink">
    <title>icon/collections</title>
    <defs>
        <path d="M16.6808511,23.9787234 C16.387828,23.9890585 16.1039977,23.8755264 15.8989362,23.6659574 L8.86170213,16.1595745 L1.82446809,23.6659574 C1.53293111,23.997315 1.06433233,24.1091948 0.654547253,23.9452808 C0.244762175,23.7813668 -0.0174094455,23.3771788 6.31544621e-13,22.9361702 L6.31544621e-13,1.04255319 C6.31544621e-13,0.466766963 0.466766963,0 1.04255319,0 L16.6808511,0 C17.2566373,0 17.723496,0.466766963 17.723496,1.04255319 L17.723496,22.9361702 C17.7292217,23.3762564 17.4580456,23.7725906 17.0457447,23.9265957 L16.6808511,23.9265957 L16.6808511,23.9787234 Z M8.86170213,13.6053191 C9.15472523,13.5949841 9.43855551,13.7085162 9.64361702,13.9180851 L15.6382979,20.3297872 L15.6382979,2.08510638 L2.08510638,2.08510638 L2.08510638,20.3297872 L8.07978723,13.9702128 C8.27549939,13.7413696 8.56059843,13.6083233 8.86170213,13.6053191 Z" id="collections"></path>
    </defs>
    <g id="icon/collections" stroke="none" stroke-width="1" fill="none" fill-rule="evenodd">
        <g id="colour" transform="translate(3.000000, 0.000000)">
            <mask id="mask-collections" fill="white">
                <use xlink:href="#collections"></use>
            </mask>
            <use id="Mask" fill="#010101" fill-rule="nonzero" xlink:href="#collections"></use>
            <g id="colour/purple" mask="url(#mask-collections)" fill="#475DA7">
                <g transform="translate(-3.000000, 0.000000)" id="Rectangle">
                    <rect x="0" y="0" width="24" height="24"></rect>
                </g>
            </g>
        </g>
    </g>
</svg>