<?xml version="1.0" encoding="UTF-8"?>
<svg width="111" height="48" viewBox="0 0 111 48" version="1.1" xmlns="http://www.w3.org/2000/svg" xmlns:xlink="http://www.w3.org/1999/xlink">
    <!-- Generator: Sketch 63.1 (92452) - https://sketch.com -->
    <title>logo / colour mobile</title>
    <desc>Created with Sketch.</desc>
    <defs>
        <linearGradient x1="-68.2045353%" y1="-202.478134%" x2="88.1096589%" y2="165.05102%" id="linearGradientMobile-1">
            <stop stop-color="#3DB28C" offset="19%"></stop>
            <stop stop-color="#3DAE8D" offset="33%"></stop>
            <stop stop-color="#3FA291" offset="45%"></stop>
            <stop stop-color="#418F97" offset="58%"></stop>
            <stop stop-color="#4474A0" offset="70%"></stop>
            <stop stop-color="#475DA7" offset="79%"></stop>
        </linearGradient>
        <linearGradient x1="-71.4052761%" y1="-191.010401%" x2="102.884078%" y2="183.618128%" id="linearGradientMobile-2">
            <stop stop-color="#3DB28C" offset="19%"></stop>
            <stop stop-color="#3DAE8D" offset="33%"></stop>
            <stop stop-color="#3FA291" offset="45%"></stop>
            <stop stop-color="#418F97" offset="58%"></stop>
            <stop stop-color="#4474A0" offset="70%"></stop>
            <stop stop-color="#475DA7" offset="79%"></stop>
        </linearGradient>
        <linearGradient x1="19.1226151%" y1="3.73053242%" x2="173.962835%" y2="368.99674%" id="linearGradientMobile-3">
            <stop stop-color="#3DB28C" offset="19%"></stop>
            <stop stop-color="#3DAE8D" offset="33%"></stop>
            <stop stop-color="#3FA291" offset="45%"></stop>
            <stop stop-color="#418F97" offset="58%"></stop>
            <stop stop-color="#4474A0" offset="70%"></stop>
            <stop stop-color="#475DA7" offset="79%"></stop>
        </linearGradient>
    </defs>
    <g id="Style-Guide" stroke="none" stroke-width="1" fill="none" fill-rule="evenodd">
        <g id="Style-guide" transform="translate(-108.000000, -1004.000000)" fill-rule="nonzero">
            <g id="logo-/-colour" transform="translate(108.000000, 1004.000000)">
                <path d="M0.473372781,15.3180583 C0.458109709,15.2057945 0.496186985,15.0928629 0.576611434,15.0118676 C0.657035882,14.9308724 0.770854517,14.89083 0.885207101,14.903301 L1.35857988,14.903301 C1.47293247,14.89083 1.5867511,14.9308724 1.66717555,15.0118676 C1.7476,15.0928629 1.78567727,15.2057945 1.7704142,15.3180583 L1.7704142,17.8671845 L5.01775148,17.8671845 L5.01775148,15.3180583 C5.00218726,15.2048903 5.04085062,15.091019 5.12241208,15.0098121 C5.20397355,14.9286052 5.31919733,14.8892582 5.43431953,14.903301 L5.90769231,14.903301 C6.02204489,14.89083 6.13586353,14.9308724 6.21628797,15.0118676 C6.29671242,15.0928629 6.3347897,15.2057945 6.31952663,15.3180583 L6.31952663,21.4741748 C6.33678042,21.5868494 6.29936592,21.7009688 6.21845662,21.7824523 C6.13754731,21.8639359 6.02250734,21.903353 5.90769231,21.888932 L5.43431953,21.888932 C5.31874408,21.904978 5.2022673,21.8662807 5.12020203,21.7845722 C5.03813677,21.7028636 5.00014745,21.5877663 5.01775148,21.4741748 L5.01775148,18.9576699 L1.75621302,18.9576699 L1.75621302,21.4741748 C1.77346681,21.5868494 1.73605231,21.7009688 1.65514301,21.7824523 C1.57423371,21.8639359 1.45919373,21.903353 1.3443787,21.888932 L0.871005917,21.888932 C0.756190884,21.903353 0.64115091,21.8639359 0.560241608,21.7824523 C0.479332306,21.7009688 0.441917806,21.5868494 0.459171598,21.4741748 L0.473372781,15.3180583 Z" id="Path" fill="#3C3C3B"></path>
                <path d="M9.81775148,16.7720388 C11.2662722,16.7720388 12.0757396,17.7879612 12.0757396,19.1627184 C12.0616142,19.3823966 11.8824629,19.5567607 11.6591716,19.5681553 L8.53017751,19.5681553 C8.54119688,19.954316 8.7093618,20.3199238 8.99688459,20.5828245 C9.28440737,20.8457252 9.66717298,20.9838688 10.0591716,20.9662136 C10.4481327,20.9593094 10.8278218,20.8481388 11.1573964,20.6446602 C11.408284,20.5234951 11.5881657,20.5561165 11.7159763,20.7798058 L11.8390533,20.9801942 C11.9015026,21.069775 11.9217155,21.1815025 11.8945223,21.2868008 C11.8673292,21.3920991 11.7953671,21.4807563 11.6970414,21.5300971 C11.1805753,21.853785 10.581472,22.0266844 9.96923077,22.0287379 C9.2452103,22.0638034 8.53892903,21.8012003 8.0192196,21.3037025 C7.49951018,20.8062047 7.21308135,20.1185247 7.22840237,19.4050485 C7.18264216,18.708597 7.43774253,18.0255036 7.93084533,17.5240863 C8.42394813,17.022669 9.10920015,16.7495542 9.81775148,16.7720388 L9.81775148,16.7720388 Z M10.816568,18.8271845 C10.8459373,18.5408486 10.7511409,18.2556141 10.5555306,18.0417442 C10.3599203,17.8278742 10.0816797,17.7052499 9.78934911,17.7040777 C9.15089737,17.7084027 8.61925553,18.1874997 8.55857988,18.8132039 L10.816568,18.8271845 Z" id="Shape" fill="#3C3C3B"></path>
                <path d="M15.4840237,18.7899029 L15.6923077,18.7899029 L15.6923077,18.6733981 C15.7169634,18.423455 15.6232797,18.1762664 15.4383459,18.0033084 C15.2534121,17.8303504 14.9978519,17.7509112 14.7455621,17.7879612 C14.3741637,17.7982706 14.0106333,17.8957299 13.6852071,18.072233 C13.4343195,18.1794175 13.2449704,18.1421359 13.1266272,17.904466 L13.0272189,17.7180583 C12.960756,17.6275016 12.9402849,17.5118866 12.9717055,17.4045328 C13.003126,17.297179 13.0829474,17.2100129 13.1881657,17.1681553 C13.7029916,16.9057023 14.2746853,16.7697957 14.8544379,16.7720115 C16.1751479,16.7720115 16.9609467,17.4990291 16.9609467,18.7712621 L16.9609467,21.4928155 C16.9785508,21.6064071 16.9405615,21.7215044 16.8584962,21.803213 C16.7764309,21.8849215 16.6599541,21.9236188 16.5443787,21.9075728 L16.2035503,21.9075728 C16.0887353,21.9219937 15.9736953,21.8825767 15.892786,21.8010931 C15.8118767,21.7196096 15.7744622,21.6054901 15.791716,21.4928155 L15.791716,21.2970874 C15.7901514,21.2249239 15.7981074,21.1528657 15.8153846,21.0827184 L15.791716,21.0827184 C15.4678964,21.652245 14.8593872,22.0077681 14.1964497,22.0147573 C13.7645723,22.0496907 13.33736,21.9064473 13.0169229,21.6192643 C12.6964859,21.3320814 12.5116192,20.9267658 12.5065089,20.5001942 C12.5065089,19.0368932 14.3431953,18.7899029 15.4840237,18.7899029 Z M14.5372781,21.0547573 C15.2199497,20.9886911 15.732331,20.4107501 15.7065089,19.7359223 L15.7065089,19.5681553 L15.4934911,19.5681553 C14.8544379,19.5681553 13.7656805,19.6660194 13.7656805,20.4116505 C13.7749598,20.599239 13.8625901,20.7747082 14.0078158,20.8964972 C14.1530414,21.0182862 14.3429441,21.0755616 14.5325444,21.0547573 L14.5372781,21.0547573 Z" id="Shape" fill="#3C3C3B"></path>
                <path d="M18.0307692,15.3180583 C18.0155062,15.2057945 18.0535834,15.0928629 18.1340079,15.0118676 C18.2144323,14.9308724 18.328251,14.89083 18.4426036,14.903301 L18.8828402,14.903301 C18.9968868,14.8904749 19.1105059,14.930596 19.1902703,15.0118607 C19.2700348,15.0931253 19.3068707,15.2062889 19.2899408,15.3180583 L19.2899408,20.2252427 C19.2899408,20.7192233 19.5029586,20.807767 19.6923077,20.8264078 C19.7816621,20.8310473 19.8651706,20.8715716 19.9233288,20.9385156 C19.9814869,21.0054596 20.0092017,21.092961 20,21.1805825 L20,21.5161165 C20.0168397,21.6303593 19.9789718,21.7458375 19.897457,21.8288219 C19.8159421,21.9118063 19.6999765,21.9529347 19.583432,21.9401942 C18.9017751,21.9401942 18.0307692,21.7631068 18.0307692,20.3231068 L18.0307692,15.3180583 Z" id="Path" fill="#3C3C3B"></path>
                <path d="M20.9704142,17.9370874 L20.7005917,17.9370874 C20.5857767,17.9515083 20.4707367,17.9120912 20.3898274,17.8306077 C20.3089181,17.7491241 20.2715036,17.6350047 20.2887574,17.5223301 L20.2887574,17.3545631 C20.27484,17.2409119 20.3147306,17.1272664 20.3969533,17.046321 C20.4791759,16.9653755 20.5946146,16.9261046 20.7100592,16.9398058 L20.9988166,16.9398058 L20.9988166,15.9192233 C20.9867658,15.8060001 21.0272641,15.69347 21.1090335,15.6129709 C21.1908029,15.5324717 21.3051086,15.4926024 21.4201183,15.504466 L21.8177515,15.504466 C21.9327612,15.4926024 22.0470669,15.5324717 22.1288363,15.6129709 C22.2106057,15.69347 22.251104,15.8060001 22.2390533,15.9192233 L22.2390533,16.9398058 L22.9775148,16.9398058 C23.0925246,16.9279422 23.2068302,16.9678115 23.2885996,17.0483107 C23.370369,17.1288099 23.4108674,17.2413399 23.3988166,17.3545631 L23.3988166,17.5223301 C23.4140796,17.6345939 23.3760024,17.7475254 23.2955779,17.8285207 C23.2151535,17.909516 23.1013348,17.9495584 22.9869822,17.9370874 L22.2390533,17.9370874 L22.2390533,19.8803883 C22.206365,20.114122 22.2775031,20.3503936 22.4342922,20.5288369 C22.5910812,20.7072802 22.8183338,20.8106104 23.0579882,20.8124272 C23.3704142,20.8403883 23.4792899,20.9382524 23.4792899,21.2178641 L23.4792899,21.5207767 C23.4792899,21.8143689 23.3088757,21.935534 22.9585799,21.935534 C22.0497041,21.935534 20.9704142,21.4695146 20.9704142,20.0714563 L20.9704142,17.9370874 Z" id="Path" fill="#3C3C3B"></path>
                <path d="M24.2272189,15.3180583 C24.2151681,15.204835 24.2556665,15.092305 24.3374359,15.0118058 C24.4192053,14.9313066 24.5335109,14.8914374 24.6485207,14.903301 L25.0792899,14.903301 C25.1944121,14.8892582 25.3096359,14.9286052 25.3911974,15.0098121 C25.4727588,15.091019 25.5114222,15.2048903 25.495858,15.3180583 L25.495858,17.3452427 C25.4965505,17.4870841 25.4870594,17.6287964 25.4674556,17.7693204 L25.4674556,17.7693204 C25.8365416,17.1309955 26.5348255,16.7468925 27.2804734,16.7720388 C28.4071006,16.7720388 29.0556213,17.3545631 29.0556213,18.6827184 L29.0556213,21.478835 C29.0711855,21.5920029 29.0325222,21.7058742 28.9509607,21.7870811 C28.8693992,21.868288 28.7541755,21.907635 28.6390533,21.8935922 L28.208284,21.8935922 C28.0924,21.9092359 27.975756,21.8705996 27.8930469,21.7891752 C27.8103377,21.7077509 27.7710917,21.5929188 27.7869822,21.478835 L27.7869822,18.9203883 C27.7869822,18.3099029 27.6307692,17.8951456 26.9869822,17.8951456 C26.1017751,17.8951456 25.5195266,18.6034951 25.5195266,19.558835 L25.5195266,21.4741748 C25.5371307,21.5877663 25.4991413,21.7028636 25.4170761,21.7845722 C25.3350108,21.8662807 25.218534,21.904978 25.1029586,21.888932 L24.6721893,21.888932 C24.5563054,21.9045757 24.4396613,21.8659394 24.3569522,21.784515 C24.2742431,21.7030907 24.234997,21.5882586 24.2508876,21.4741748 L24.2272189,15.3180583 Z" id="Path" fill="#3C3C3B"></path>
                <path d="M32.7005917,15.3180583 C32.6853286,15.2057945 32.7234059,15.0928629 32.8038304,15.0118676 C32.8842548,14.9308724 32.9980735,14.89083 33.112426,14.903301 L35.1195266,14.903301 C37.3065089,14.903301 38.7360947,16.1848544 38.7360947,18.3891262 C38.7360947,20.5933981 37.3159763,21.888932 35.1195266,21.888932 L33.112426,21.888932 C32.997611,21.903353 32.882571,21.8639359 32.8016617,21.7824523 C32.7207524,21.7009688 32.6833379,21.5868494 32.7005917,21.4741748 L32.7005917,15.3180583 Z M35.0674556,20.7984466 C36.487574,20.7984466 37.4343195,19.9596117 37.4343195,18.3891262 C37.4343195,16.8186408 36.487574,15.9984466 35.0674556,15.9984466 L33.9786982,15.9984466 L33.9786982,20.7984466 L35.0674556,20.7984466 Z" id="Shape" fill="#3C3C3B"></path>
                <path d="M42.2343195,18.7899029 L42.4284024,18.7899029 L42.4284024,18.6733981 C42.4530581,18.423455 42.3593744,18.1762664 42.1744406,18.0033084 C41.9895067,17.8303504 41.7339466,17.7509112 41.4816568,17.7879612 C41.1102584,17.7982706 40.746728,17.8957299 40.4213018,18.072233 C40.1704142,18.1794175 39.9810651,18.1421359 39.8627219,17.904466 L39.7633136,17.7180583 C39.6966073,17.6281225 39.675457,17.5130469 39.7059224,17.405802 C39.7363879,17.2985571 39.8151073,17.2109774 39.9195266,17.1681553 C40.4346465,16.899887 41.0077916,16.7576278 41.5905325,16.7533981 C42.9112426,16.7533981 43.6970414,17.4803883 43.6970414,18.7526214 L43.6970414,21.4741748 C43.7146455,21.5877663 43.6766561,21.7028636 43.5945909,21.7845722 C43.5125256,21.8662807 43.3960488,21.904978 43.2804734,21.888932 L42.939645,21.888932 C42.8248299,21.903353 42.70979,21.8639359 42.6288807,21.7824523 C42.5479714,21.7009688 42.5105569,21.5868494 42.5278107,21.4741748 L42.5278107,21.2784466 C42.5262461,21.2062831 42.5342021,21.1342249 42.5514793,21.0640777 L42.5278107,21.0640777 C42.203991,21.6336042 41.5954819,21.9891274 40.9325444,21.9961165 C40.5062429,22.0268477 40.0857709,21.8842638 39.7691248,21.6015958 C39.4524787,21.3189278 39.2673209,20.9208697 39.2568047,20.5001942 C39.2568047,19.0368932 41.0934911,18.7899029 42.2343195,18.7899029 Z M41.287574,21.0547573 C41.9702456,20.9886911 42.4826269,20.4107501 42.4568047,19.7359223 L42.4568047,19.5681553 L42.2485207,19.5681553 C41.6094675,19.5681553 40.5207101,19.6660194 40.5207101,20.4116505 C40.5300847,20.598336 40.617059,20.7730033 40.7612136,20.8946449 C40.9053682,21.0162866 41.0940062,21.0741887 41.2828402,21.0547573 L41.287574,21.0547573 Z" id="Shape" fill="#3C3C3B"></path>
                <path d="M45.0130178,17.9370874 L44.7431953,17.9370874 C44.6283802,17.9515083 44.5133403,17.9120912 44.432431,17.8306077 C44.3515217,17.7491241 44.3141072,17.6350047 44.3313609,17.5223301 L44.3313609,17.3545631 C44.3174435,17.2409119 44.3573341,17.1272664 44.4395568,17.046321 C44.5217795,16.9653755 44.6372182,16.9261046 44.7526627,16.9398058 L45.0414201,16.9398058 L45.0414201,15.9192233 C45.0293693,15.8060001 45.0698677,15.69347 45.1516371,15.6129709 C45.2334065,15.5324717 45.3477121,15.4926024 45.4627219,15.504466 L45.860355,15.504466 C45.9753648,15.4926024 46.0896705,15.5324717 46.1714399,15.6129709 C46.2532093,15.69347 46.2937076,15.8060001 46.2816568,15.9192233 L46.2816568,16.9398058 L47.0201183,16.9398058 C47.1351281,16.9279422 47.2494338,16.9678115 47.3312032,17.0483107 C47.4129726,17.1288099 47.4534709,17.2413399 47.4414201,17.3545631 L47.4414201,17.5223301 C47.4566832,17.6345939 47.4186059,17.7475254 47.3381815,17.8285207 C47.257757,17.909516 47.1439384,17.9495584 47.0295858,17.9370874 L46.2816568,17.9370874 L46.2816568,19.8803883 C46.2489686,20.114122 46.3201067,20.3503936 46.4768957,20.5288369 C46.6336848,20.7072802 46.8609373,20.8106104 47.1005917,20.8124272 C47.408284,20.8403883 47.5218935,20.9382524 47.5218935,21.2178641 L47.5218935,21.5207767 C47.5218935,21.8143689 47.3514793,21.935534 47.0011834,21.935534 C46.0923077,21.935534 45.0130178,21.4695146 45.0130178,20.0714563 L45.0130178,17.9370874 Z" id="Path" fill="#3C3C3B"></path>
                <path d="M50.8591716,18.7899029 L51.0674556,18.7899029 L51.0674556,18.6733981 C51.0902127,18.4239331 50.9959363,18.1779045 50.8114811,18.0053941 C50.6270259,17.8328838 50.3726121,17.7528023 50.1207101,17.7879612 C49.7492305,17.7977299 49.3855727,17.8952234 49.060355,18.072233 C48.8094675,18.1794175 48.6201183,18.1421359 48.5017751,17.904466 L48.3976331,17.7180583 C48.333018,17.6269856 48.3136295,17.5120592 48.3448721,17.4053136 C48.3761146,17.2985679 48.4546473,17.2114178 48.5585799,17.1681553 C49.0734977,16.8993695 49.6467735,16.7570778 50.2295858,16.7533981 C51.5455621,16.7533981 52.3360947,17.4803883 52.3360947,18.7526214 L52.3360947,21.4741748 C52.3595225,21.5939816 52.320334,21.7173685 52.2317537,21.8026975 C52.1431733,21.8880264 52.0170173,21.9239151 51.895858,21.8982524 L51.5597633,21.8982524 C51.4449483,21.9126734 51.3299083,21.8732563 51.248999,21.7917727 C51.1680897,21.7102892 51.1306752,21.5961697 51.147929,21.4834951 L51.147929,21.287767 C51.1403545,21.2165052 51.1403545,21.1446598 51.147929,21.0733981 L51.147929,21.0733981 C50.8225424,21.6436601 50.2122919,21.9991459 49.547929,22.0054369 C49.1212576,22.0349264 48.7010459,21.8903641 48.3858978,21.6056721 C48.0707498,21.3209802 47.888407,20.9212191 47.8816568,20.5001942 C47.8816568,19.0368932 49.7183432,18.7899029 50.8591716,18.7899029 Z M49.912426,21.0547573 C50.5950976,20.9886911 51.107479,20.4107501 51.0816568,19.7359223 L51.0816568,19.5681553 L50.8733728,19.5681553 C50.2343195,19.5681553 49.1455621,19.6660194 49.1455621,20.4116505 C49.1549368,20.598336 49.2419111,20.7730033 49.3860657,20.8946449 C49.5302203,21.0162866 49.7188583,21.0741887 49.9076923,21.0547573 L49.912426,21.0547573 Z" id="Shape" fill="#3C3C3B"></path>
                <path d="M56.0047337,15.3180583 C55.9878039,15.2062889 56.0246398,15.0931253 56.1044042,15.0118607 C56.1841687,14.930596 56.2977877,14.8904749 56.4118343,14.903301 L58.3337278,14.903301 C58.7916926,14.8727757 59.2511047,14.936253 59.6828402,15.0897087 C60.4485057,15.416256 60.9237976,16.180569 60.8710059,17.0003883 C60.9025397,17.8122706 60.4386388,18.5642579 59.6923077,18.911068 L59.6923077,18.911068 C59.7791837,19.0251345 59.8552423,19.1468099 59.9195266,19.2745631 L61.0887574,21.3809709 C61.2591716,21.6652427 61.1313609,21.8469903 60.8,21.8469903 L60.260355,21.8469903 C60.0592115,21.8532251 59.8733983,21.7416398 59.7869822,21.5627184 L58.5372781,19.2326214 L57.2970414,19.2326214 L57.2970414,21.4229126 C57.3142952,21.5355872 57.2768807,21.6497067 57.1959714,21.7311902 C57.1150621,21.8126738 57.0000221,21.8520908 56.8852071,21.8376699 L56.4118343,21.8376699 C56.1420118,21.8376699 56.0047337,21.7025243 56.0047337,21.4229126 L56.0047337,15.3180583 Z M58.4426036,18.1700971 C58.7475601,18.1947051 59.0479827,18.0854311 59.2634279,17.8715353 C59.4788731,17.6576394 59.5873322,17.3609719 59.5597633,17.0609709 C59.594602,16.6647937 59.3702784,16.2904904 59.0011834,16.128932 C58.757541,16.034447 58.4955604,15.9946459 58.2343195,16.0124272 L57.287574,16.0124272 L57.287574,18.1700971 L58.4426036,18.1700971 Z" id="Shape" fill="#3C3C3B"></path>
                <path d="M64.156213,16.7720388 C65.6047337,16.7720388 66.4142012,17.7879612 66.4142012,19.1627184 C66.4091034,19.3966297 66.216342,19.5843342 65.9786982,19.5867961 L62.8686391,19.5867961 C62.8796584,19.9729567 63.0478233,20.3385646 63.3353461,20.6014653 C63.6228689,20.864366 64.0056345,21.0025096 64.3976331,20.9848544 C64.7867054,20.9786598 65.1665841,20.8674337 65.495858,20.663301 C65.7467456,20.5421359 65.9266272,20.5747573 66.0544379,20.7984466 L66.1775148,20.998835 C66.2415739,21.0879545 66.2627335,21.2002385 66.2354083,21.3060484 C66.208083,21.4118582 66.1350192,21.5005592 66.035503,21.5487379 C65.519363,21.8731328 64.9200467,22.0460936 64.3076923,22.0473786 C63.5840876,22.0825168 62.8782381,21.8197828 62.3592603,21.3221259 C61.8402826,20.824469 61.5549396,20.1367311 61.5715976,19.4236893 C61.5188117,18.7245839 61.7702821,18.03633 62.2633183,17.5305063 C62.7563545,17.0246826 63.4445037,16.7489468 64.156213,16.7720388 Z M65.1502959,18.8085437 C65.1739748,18.5260691 65.0772644,18.2466225 64.8833291,18.0371379 C64.6893938,17.8276532 64.4157025,17.7070001 64.1278107,17.7040777 C63.4893589,17.7084027 62.9577171,18.1874997 62.8970414,18.8132039 L65.1502959,18.8085437 Z" id="Shape" fill="#3C3C3B"></path>
                <path d="M67.0153846,20.9335922 L67.1337278,20.7565049 C67.2852071,20.5514563 67.4556213,20.5328155 67.7065089,20.6586408 C68.0469204,20.8718558 68.439336,20.990971 68.8426036,21.0034951 C69.2828402,21.0034951 69.5526627,20.807767 69.5526627,20.4908738 C69.5526627,19.6753398 67.0248521,19.9829126 67.0248521,18.2586408 C67.0248521,17.2753398 67.9053254,16.753389 68.9751479,16.753389 C69.4724167,16.7521617 69.9615829,16.8773693 70.3952663,17.1168932 C70.4946515,17.1663666 70.5676641,17.2554817 70.595739,17.361579 C70.623814,17.4676764 70.6042464,17.5805343 70.5420118,17.6714563 L70.4426036,17.8485437 C70.3242604,18.0815534 70.1349112,18.1141748 69.8840237,18.0023301 C69.5826536,17.8521149 69.2512717,17.7693629 68.9136095,17.76 C68.4733728,17.76 68.2224852,17.9370874 68.2224852,18.2493204 C68.2224852,19.0741748 70.7550296,18.7526214 70.7550296,20.4629126 C70.7550296,21.3483495 69.9928994,22.0054757 68.8142012,22.0054757 C68.2086922,22.0084883 67.6163628,21.8314382 67.1147929,21.4974757 C67.0132936,21.4459769 66.942174,21.3506283 66.9226484,21.239871 C66.9031228,21.1291138 66.9374477,21.0157491 67.0153846,20.9335922 L67.0153846,20.9335922 Z" id="Path" fill="#3C3C3B"></path>
                <path d="M73.8792899,16.7720388 C75.3278107,16.7720388 76.1372781,17.7879612 76.1372781,19.1627184 C76.1321804,19.3966297 75.9394189,19.5843342 75.7017751,19.5867961 L72.591716,19.5867961 C72.6075094,19.9739363 72.7811072,20.3384771 73.0732879,20.5980564 C73.3654685,20.8576357 73.7515771,20.9903496 74.1443787,20.9662136 C74.533451,20.960019 74.9133297,20.8487929 75.2426036,20.6446602 C75.4934911,20.5234951 75.6733728,20.5561165 75.8011834,20.7798058 L75.9242604,20.9801942 C75.9883195,21.0693137 76.0094791,21.1815978 75.9821538,21.2874076 C75.9548285,21.3932174 75.8817648,21.4819185 75.7822485,21.5300971 C75.2661086,21.854492 74.6667923,22.0274529 74.0544379,22.0287379 C73.324213,22.0683149 72.6106544,21.8042679 72.0877081,21.3009643 C71.5647619,20.7976608 71.2804725,20.1013405 71.304142,19.3817476 C71.2641042,18.6913286 71.5199137,18.0160072 72.0093744,17.5199775 C72.498835,17.0239479 73.177111,16.7526474 73.8792899,16.7720388 L73.8792899,16.7720388 Z M74.8781065,18.8271845 C74.9074757,18.5408486 74.8126794,18.2556141 74.6170691,18.0417442 C74.4214588,17.8278742 74.1432182,17.7052499 73.8508876,17.7040777 C73.2124358,17.7084027 72.680794,18.1874997 72.6201183,18.8132039 L74.8781065,18.8271845 Z" id="Shape" fill="#3C3C3B"></path>
                <path d="M79.5455621,18.7899029 L79.7538462,18.7899029 L79.7538462,18.6733981 C79.7785018,18.423455 79.6848182,18.1762664 79.4998843,18.0033084 C79.3149505,17.8303504 79.0593904,17.7509112 78.8071006,17.7879612 C78.4357022,17.7982706 78.0721717,17.8957299 77.7467456,18.072233 C77.495858,18.1794175 77.3065089,18.1421359 77.1881657,17.904466 L77.0887574,17.7180583 C77.0241422,17.6269856 77.0047538,17.5120592 77.0359963,17.4053136 C77.0672389,17.2985679 77.1457715,17.2114178 77.2497041,17.1681553 C77.7628651,16.8992295 78.3346478,16.7569052 78.9159763,16.7533981 C80.2366864,16.7533981 81.0272189,17.4803883 81.0272189,18.7526214 L81.0272189,21.4741748 C81.0431095,21.5882586 81.0038635,21.7030907 80.9211543,21.784515 C80.8384452,21.8659394 80.7218011,21.9045757 80.6059172,21.888932 L80.2650888,21.888932 C79.9952663,21.888932 79.8579882,21.7537864 79.8579882,21.4741748 L79.8579882,21.2784466 C79.8504136,21.2071848 79.8504136,21.1353394 79.8579882,21.0640777 L79.8579882,21.0640777 C79.531878,21.6336427 78.9220787,21.9888655 78.2579882,21.9961165 C77.8293358,22.0308811 77.4050886,21.8901166 77.0852609,21.6070077 C76.7654331,21.3238987 76.5783253,20.9234965 76.5680473,20.5001942 C76.5680473,19.0368932 78.4047337,18.7899029 79.5455621,18.7899029 Z M78.5988166,21.0547573 C79.2814882,20.9886911 79.7938695,20.4107501 79.7680473,19.7359223 L79.7680473,19.5681553 L79.5550296,19.5681553 C78.9159763,19.5681553 77.8272189,19.6660194 77.8272189,20.4116505 C77.8377597,20.5996406 77.9264277,20.7750734 78.0723891,20.8967285 C78.2183505,21.0183836 78.4087377,21.0755361 78.5988166,21.0547573 L78.5988166,21.0547573 Z" id="Shape" fill="#3C3C3B"></path>
                <path d="M82.1065089,17.2846602 C82.0912059,17.173632 82.1287696,17.0618606 82.2083177,16.981727 C82.2878658,16.9015934 82.4005074,16.8620538 82.5136095,16.8745631 L82.9017751,16.8745631 C83.0163023,16.8611373 83.1308019,16.8998244 83.2128164,16.9796577 C83.2948309,17.059491 83.3354197,17.1717676 83.3230769,17.2846602 L83.3230769,17.7506796 C83.3228909,17.864644 83.3133928,17.9784089 83.2946746,18.0908738 L83.2946746,18.0908738 C83.4934911,17.4943689 84.052071,16.823301 84.7715976,16.823301 C85.0508876,16.823301 85.1550296,16.9631068 85.1550296,17.2380583 L85.1550296,17.6201942 C85.1657702,17.7347851 85.1234835,17.8480394 85.0399141,17.9285026 C84.9563446,18.0089657 84.840392,18.0480687 84.7242604,18.0349515 C83.7775148,18.0349515 83.3467456,18.9390291 83.3467456,19.8524272 L83.3467456,21.4648544 C83.3639994,21.577529 83.3265849,21.6916484 83.2456756,21.7731319 C83.1647662,21.8546155 83.0497263,21.8940326 82.9349112,21.8796117 L82.4946746,21.8796117 C82.2248521,21.8796117 82.087574,21.744466 82.087574,21.4648544 L82.1065089,17.2846602 Z" id="Path" fill="#3C3C3B"></path>
                <path d="M88.0094675,16.7720388 C88.6019252,16.7542777 89.1855045,16.9170295 89.6804734,17.2380583 C89.7732085,17.2966536 89.8354198,17.3921077 89.8508761,17.4995162 C89.8663324,17.6069247 89.8335006,17.715634 89.7609467,17.7972816 L89.6284024,17.9930097 C89.4769231,18.2213592 89.3112426,18.2213592 89.0698225,18.1048544 C88.7788978,17.9068453 88.4341483,17.7996682 88.0804734,17.7972816 C87.6612545,17.7878512 87.2568201,17.9499198 86.9634667,18.2448984 C86.6701133,18.5398771 86.5140893,18.9413719 86.5325444,19.3537864 C86.5057442,19.779994 86.6623842,20.197627 86.9641062,20.5044154 C87.2658282,20.8112039 87.6847707,20.9788184 88.1183432,20.9662136 C88.5295642,20.9577847 88.9280633,20.8243021 89.2591716,20.5840777 C89.5100592,20.448932 89.6994083,20.4768932 89.8272189,20.7145631 L89.9266272,20.9009709 C89.9902739,20.9868542 90.0147022,21.0949574 89.9940425,21.1993044 C89.9733827,21.3036514 89.9095025,21.3948093 89.8177515,21.4508738 C89.2932774,21.8289234 88.6594927,22.0314587 88.0094675,22.0287379 C87.0296724,22.0693808 86.1061084,21.5779433 85.6039037,20.7487137 C85.1016989,19.9194841 85.1016989,18.8859528 85.6039037,18.0567232 C86.1061084,17.2274936 87.0296724,16.7360561 88.0094675,16.776699 L88.0094675,16.7720388 Z" id="Path" fill="#3C3C3B"></path>
                <path d="M90.7597633,15.3180583 C90.7471334,15.2042508 90.7883179,15.0910407 90.8714669,15.0110025 C90.9546158,14.9309643 91.0705085,14.8929734 91.1857988,14.9079612 L91.616568,14.9079612 C91.7320126,14.8942599 91.8474513,14.9335309 91.929674,15.0144763 C92.0118966,15.0954218 92.0517873,15.2090672 92.0378698,15.3227184 L92.0378698,17.3499029 C92.0386698,17.491918 92.0275869,17.6337567 92.0047337,17.7739806 L92.0047337,17.7739806 C92.3646333,17.1421185 93.048925,16.7569129 93.7846154,16.7720388 C94.9159763,16.7720388 95.564497,17.3545631 95.564497,18.6827184 L95.564497,21.478835 C95.5803876,21.5929188 95.5411416,21.7077509 95.4584324,21.7891752 C95.3757233,21.8705996 95.2590792,21.9092359 95.1431953,21.8935922 L94.7171598,21.8935922 C94.6008324,21.9112945 94.4829023,21.8733332 94.3996695,21.7913934 C94.3164367,21.7094535 94.2778764,21.5933553 94.295858,21.478835 L94.295858,18.9203883 C94.295858,18.3099029 94.1349112,17.8951456 93.495858,17.8951456 C92.6059172,17.8951456 92.0284024,18.6034951 92.0284024,19.558835 L92.0284024,21.4741748 C92.0442929,21.5882586 92.0050469,21.7030907 91.9223377,21.784515 C91.8396286,21.8659394 91.7229846,21.9045757 91.6071006,21.888932 L91.1857988,21.888932 C91.0706766,21.9029748 90.9554528,21.8636278 90.8738914,21.7824209 C90.7923299,21.701214 90.7536665,21.5873427 90.7692308,21.4741748 L90.7597633,15.3180583 Z" id="Path" fill="#3C3C3B"></path>
                <path d="M0.473372781,25.4586408 C0.458109709,25.346377 0.496186985,25.2334454 0.576611434,25.1524502 C0.657035882,25.0714549 0.770854517,25.0314125 0.885207101,25.0438835 L1.35857988,25.0438835 C1.47293247,25.0314125 1.5867511,25.0714549 1.66717555,25.1524502 C1.7476,25.2334454 1.78567727,25.346377 1.7704142,25.4586408 L1.7704142,31.6147573 C1.78766799,31.7274319 1.75025349,31.8415513 1.66934419,31.9230349 C1.58843489,32.0045184 1.47339491,32.0439355 1.35857988,32.0295146 L0.885207101,32.0295146 C0.770392067,32.0439355 0.655352093,32.0045184 0.574442792,31.9230349 C0.49353349,31.8415513 0.456118989,31.7274319 0.473372781,31.6147573 L0.473372781,25.4586408 Z" id="Path" fill="#3C3C3B"></path>
                <path d="M3.03431953,27.4252427 C3.01738966,27.3134733 3.05422558,27.2003098 3.13399003,27.1190451 C3.21375448,27.0377805 3.32737354,26.9976593 3.44142012,27.0104854 L3.83431953,27.0104854 C3.9483661,26.9976593 4.06198517,27.0377805 4.14174962,27.1190451 C4.22151407,27.2003098 4.25834998,27.3134733 4.24142012,27.4252427 L4.24142012,27.7281553 C4.24643672,27.8041917 4.24643672,27.8804685 4.24142012,27.9565049 L4.24142012,27.9565049 C4.58936656,27.2921292 5.2905579,26.8801182 6.04970414,26.8939806 C7.18106509,26.8939806 7.8295858,27.4718447 7.8295858,28.8 L7.8295858,31.5961165 C7.84547634,31.7102003 7.80623032,31.8250324 7.72352117,31.9064568 C7.64081203,31.9878811 7.524168,32.0265175 7.40828402,32.0108738 L6.98224852,32.0108738 C6.86680397,32.024575 6.75136529,31.9853041 6.66914261,31.9043586 C6.58691993,31.8234132 6.54702931,31.7097677 6.56094675,31.5961165 L6.56094675,29.0563107 C6.56094675,28.4458252 6.4,28.0357282 5.76094675,28.0357282 C4.86153846,28.0357282 4.29349112,28.7720388 4.29349112,29.6761165 L4.29349112,31.6147573 C4.31074492,31.7274319 4.27333042,31.8415513 4.19242111,31.9230349 C4.11151181,32.0045184 3.99647184,32.0439355 3.8816568,32.0295146 L3.44142012,32.0295146 C3.32737354,32.0423407 3.21375448,32.0022195 3.13399003,31.9209549 C3.05422558,31.8396902 3.01738966,31.7265267 3.03431953,31.6147573 L3.03431953,27.4252427 Z" id="Path" fill="#3C3C3B"></path>
                <path d="M8.9183432,27.4252427 C8.90308012,27.312979 8.9411574,27.2000474 9.02158185,27.1190521 C9.1020063,27.0380569 9.21582493,26.9980145 9.33017751,27.0104854 L9.7183432,27.0104854 C9.83269578,26.9980145 9.94651441,27.0380569 10.0269389,27.1190521 C10.1073633,27.2000474 10.1454406,27.312979 10.1301775,27.4252427 L10.1301775,27.7281553 C10.1286591,27.8047819 10.1207429,27.8811557 10.1065089,27.9565049 L10.1301775,27.9565049 C10.4755452,27.2897486 11.178411,26.8767538 11.9384615,26.8939806 C13.0650888,26.8939806 13.7136095,27.4718447 13.7136095,28.8 L13.7136095,31.5961165 C13.7312135,31.709708 13.6932242,31.8248054 13.6111589,31.9065139 C13.5290936,31.9882225 13.4126169,32.0269198 13.2970414,32.0108738 L12.8662722,32.0108738 C12.7508276,32.024575 12.635389,31.9853041 12.5531663,31.9043586 C12.4709436,31.8234132 12.431053,31.7097677 12.4449704,31.5961165 L12.4449704,29.0563107 C12.4449704,28.4458252 12.2887574,28.0357282 11.6449704,28.0357282 C10.7455621,28.0357282 10.1775148,28.7720388 10.1775148,29.6761165 L10.1775148,31.6147573 C10.1944447,31.7265267 10.1576087,31.8396902 10.0778443,31.9209549 C9.99807984,32.0022195 9.88446078,32.0423407 9.7704142,32.0295146 L9.33017751,32.0295146 C9.21536248,32.0439355 9.10032251,32.0045184 9.01941321,31.9230349 C8.9385039,31.8415513 8.9010894,31.7274319 8.9183432,31.6147573 L8.9183432,27.4252427 Z" id="Path" fill="#3C3C3B"></path>
                <path d="M17.2828402,26.8939806 C18.7415485,26.955145 19.8798038,28.158525 19.8379553,29.5952851 C19.7961068,31.0320452 18.5896776,32.1692368 17.129806,32.1480122 C15.6699345,32.1267877 14.4981421,30.95502 14.4994073,29.5176699 C14.5053458,28.8032449 14.8043855,28.1215209 15.328571,27.6274186 C15.8527566,27.1333163 16.5575688,26.8688 17.2828402,26.8939806 Z M17.2828402,31.0881553 C17.9324651,31.1205537 18.5366636,30.760276 18.8084006,30.1784786 C19.0801375,29.5966813 18.9646452,28.9106236 18.5167903,28.4462295 C18.0689354,27.9818354 17.3789816,27.8327021 16.7747037,28.0696779 C16.1704258,28.3066537 15.7736141,28.8819769 15.7727811,29.5223301 C15.7547579,29.9286388 15.9055525,30.3246586 16.1904359,30.6191835 C16.4753193,30.9137084 16.8697327,31.0813484 17.2828402,31.0834951 L17.2828402,31.0881553 Z" id="Shape" fill="#3C3C3B"></path>
                <path d="M20.4307692,27.4904854 C20.3313609,27.2062136 20.4307692,27.024466 20.7621302,27.024466 L21.235503,27.024466 C21.4590428,27.0054858 21.6619674,27.1533173 21.7088757,27.3693204 L22.6556213,30.1328155 C22.7316845,30.3827205 22.7948813,30.6362472 22.8449704,30.8924272 L22.8449704,30.8924272 C22.8877771,30.631383 22.9462623,30.373066 23.0201183,30.118835 L23.9668639,27.3553398 C24.0197774,27.1449459 24.221027,27.0042783 24.4402367,27.024466 L24.9136095,27.024466 C25.2213018,27.024466 25.3538462,27.2108738 25.2544379,27.4904854 L23.7301775,31.6846602 C23.6792375,31.896923 23.477441,32.0399594 23.2568047,32.0201942 L22.4568047,32.0201942 C22.2349974,32.0442608 22.0305998,31.8993806 21.983432,31.6846602 L20.4307692,27.4904854 Z" id="Path" fill="#3C3C3B"></path>
                <path d="M28.5633136,28.9304854 L28.7763314,28.9304854 L28.7763314,28.8093204 C28.7990885,28.5598554 28.704812,28.3138268 28.5203568,28.1413165 C28.3359017,27.9688061 28.0814878,27.8887247 27.8295858,27.9238835 C27.4574568,27.9334137 27.0933768,28.0326205 26.7692308,28.2128155 C26.6750007,28.2741764 26.5578626,28.290914 26.4498009,28.2584581 C26.3417391,28.2260023 26.2540405,28.1477429 26.2106509,28.0450485 L26.1112426,27.8586408 C26.046594,27.766812 26.0271876,27.6512801 26.058366,27.5438511 C26.0895443,27.436422 26.1680203,27.3484221 26.2721893,27.3040777 C26.7866971,27.0391687 27.357854,26.8985976 27.9384615,26.8939806 C29.2591716,26.8939806 30.0497041,27.6209709 30.0497041,28.8885437 L30.0497041,31.6147573 C30.0655947,31.7288411 30.0263487,31.8436732 29.9436395,31.9250975 C29.8609304,32.0065219 29.7442863,32.0451583 29.6284024,32.0295146 L29.287574,32.0295146 C29.1735274,32.0423407 29.0599083,32.0022195 28.9801439,31.9209549 C28.9003794,31.8396902 28.8635435,31.7265267 28.8804734,31.6147573 L28.8804734,31.4190291 C28.8727409,31.3462178 28.8727409,31.2728113 28.8804734,31.2 L28.8804734,31.2 C28.5592472,31.776756 27.9485216,32.1396337 27.2804734,32.1506796 C26.8505439,32.1841237 26.4256208,32.0416352 26.105819,31.7567854 C25.7860172,31.4719355 25.5996159,31.069913 25.5905234,30.6454369 C25.5857988,29.1774757 27.4272189,28.9304854 28.5633136,28.9304854 Z M27.616568,31.1906796 C28.2992396,31.1246135 28.811621,30.5466725 28.7857988,29.8718447 L28.7857988,29.6854369 L28.5727811,29.6854369 C27.9337278,29.6854369 26.8449704,29.783301 26.8449704,30.5335922 C26.8502877,30.7245664 26.9369172,30.9045411 27.0836853,31.0295278 C27.2304534,31.1545145 27.4238362,31.2129964 27.616568,31.1906796 L27.616568,31.1906796 Z" id="Shape" fill="#3C3C3B"></path>
                <path d="M31.3420118,28.0730097 L31.0674556,28.0730097 C30.7976331,28.0730097 30.660355,27.9378641 30.660355,27.6582524 L30.660355,27.4904854 C30.6447908,27.3773175 30.6834542,27.2634462 30.7650156,27.1822393 C30.8465771,27.1010324 30.9618009,27.0616854 31.0769231,27.0757282 L31.3656805,27.0757282 L31.3656805,26.0504854 C31.3533377,25.9375929 31.3939265,25.8253162 31.475941,25.7454829 C31.5579555,25.6656497 31.6724551,25.6269625 31.7869822,25.6403883 L32.1846154,25.6403883 C32.2991425,25.6269625 32.4136421,25.6656497 32.4956566,25.7454829 C32.5776711,25.8253162 32.6182599,25.9375929 32.6059172,26.0504854 L32.6059172,27.0757282 L33.3443787,27.0757282 C33.4593885,27.0638646 33.5736941,27.1037338 33.6554635,27.184233 C33.7372329,27.2647322 33.7777313,27.3772622 33.7656805,27.4904854 L33.7656805,27.6535922 C33.7809435,27.765856 33.7428663,27.8787876 33.6624418,27.9597828 C33.5820174,28.0407781 33.4681987,28.0808205 33.3538462,28.0683495 L32.6106509,28.0683495 L32.6106509,30.0163107 C32.579551,30.2497475 32.6512592,30.4851423 32.8077143,30.6632055 C32.9641694,30.8412688 33.1904586,30.9450282 33.4295858,30.9483495 C33.7420118,30.9763107 33.8508876,31.0741748 33.8508876,31.3491262 L33.8508876,31.6846602 C33.8508876,31.9782524 33.6804734,32.0947573 33.3301775,32.0947573 C32.4213018,32.0947573 31.3420118,31.6287379 31.3420118,30.2586408 L31.3420118,28.0730097 Z" id="Path" fill="#3C3C3B"></path>
                <path d="M34.5988166,25.752233 L34.5988166,25.4586408 C34.5835535,25.346377 34.6216308,25.2334454 34.7020552,25.1524502 C34.7824797,25.0714549 34.8962983,25.0314125 35.0106509,25.0438835 L35.4508876,25.0438835 C35.5655615,25.0317325 35.6796097,25.0716908 35.7607027,25.1524313 C35.8417957,25.2331717 35.8810933,25.3458927 35.8674556,25.4586408 L35.8674556,25.752233 C35.8801623,25.8635781 35.8399988,25.97447 35.7586008,26.0527824 C35.6772027,26.1310947 35.5636677,26.168075 35.4508876,26.1530097 L35.0106509,26.1530097 C34.8982049,26.1684219 34.7848851,26.1313729 34.7041442,26.0527998 C34.6234033,25.9742268 34.5844622,25.863103 34.5988166,25.752233 Z M34.5988166,27.4252427 C34.5835535,27.312979 34.6216308,27.2000474 34.7020552,27.1190521 C34.7824797,27.0380569 34.8962983,26.9980145 35.0106509,27.0104854 L35.4508876,27.0104854 C35.5649342,26.9976593 35.6785532,27.0377805 35.7583177,27.1190451 C35.8380821,27.2003098 35.874918,27.3134733 35.8579882,27.4252427 L35.8579882,31.6194175 C35.874918,31.7311869 35.8380821,31.8443504 35.7583177,31.9256151 C35.6785532,32.0068797 35.5649342,32.0470009 35.4508876,32.0341748 L35.0106509,32.0341748 C34.8958359,32.0485957 34.7807959,32.0091786 34.6998866,31.9276951 C34.6189773,31.8462115 34.5815628,31.7320921 34.5988166,31.6194175 L34.5988166,27.4252427 Z" id="Shape" fill="#3C3C3B"></path>
                <path d="M39.4982249,26.8939806 C40.9538853,26.9652129 42.082534,28.1725498 42.0340233,29.6065723 C41.9855126,31.0405948 40.7777706,32.1713318 39.3205214,32.1470626 C37.8632723,32.1227934 36.695071,30.9524872 36.6958576,29.5176699 C36.7016243,28.7998818 37.003257,28.1151766 37.5316134,27.6205079 C38.0599698,27.1258393 38.7697401,26.8636281 39.4982249,26.8939806 L39.4982249,26.8939806 Z M39.4982249,31.0881553 C40.1478497,31.1205537 40.7520482,30.760276 41.0237852,30.1784786 C41.2955222,29.5966813 41.1800298,28.9106236 40.7321749,28.4462295 C40.28432,27.9818354 39.5943662,27.8327021 38.9900883,28.0696779 C38.3858104,28.3066537 37.9889987,28.8819769 37.9881657,29.5223301 C37.9687803,29.928996 38.1191206,30.325785 38.4042965,30.6206122 C38.6894723,30.9154394 39.0846884,31.0826705 39.4982249,31.0834951 L39.4982249,31.0881553 Z" id="Shape" fill="#3C3C3B"></path>
                <path d="M43.1337278,27.4252427 C43.1187416,27.3138717 43.1562294,27.2018593 43.2355271,27.1210702 C43.3148248,27.0402811 43.4272529,26.999558 43.5408284,27.0104854 L43.9337278,27.0104854 C44.0477744,26.9976593 44.1613935,27.0377805 44.2411579,27.1190451 C44.3209224,27.2003098 44.3577583,27.3134733 44.3408284,27.4252427 L44.3408284,27.7281553 C44.345845,27.8041917 44.345845,27.8804685 44.3408284,27.9565049 L44.3408284,27.9565049 C44.6887748,27.2921292 45.3899662,26.8801182 46.1491124,26.8939806 C47.2804734,26.8939806 47.9289941,27.4718447 47.9289941,28.8 L47.9289941,31.5961165 C47.9465981,31.709708 47.9086088,31.8248054 47.8265435,31.9065139 C47.7444783,31.9882225 47.6280015,32.0269198 47.512426,32.0108738 L47.0816568,32.0108738 C46.9662123,32.024575 46.8507736,31.9853041 46.7685509,31.9043586 C46.6863282,31.8234132 46.6464376,31.7097677 46.660355,31.5961165 L46.660355,29.0563107 C46.660355,28.4458252 46.4994083,28.0357282 45.860355,28.0357282 C44.9609467,28.0357282 44.3928994,28.7720388 44.3928994,29.6761165 L44.3928994,31.6147573 C44.4101532,31.7274319 44.3727387,31.8415513 44.2918294,31.9230349 C44.2109201,32.0045184 44.0958801,32.0439355 43.9810651,32.0295146 L43.5408284,32.0295146 C43.4267818,32.0423407 43.3131628,32.0022195 43.2333983,31.9209549 C43.1536339,31.8396902 43.1167979,31.7265267 43.1337278,31.6147573 L43.1337278,27.4252427 Z" id="Path" fill="#3C3C3B"></path>
                <path d="M54.8544379,24.9273786 C55.6741065,24.9145341 56.479921,25.1363334 57.1739645,25.5658252 C57.2726999,25.6213886 57.3403863,25.7181649 57.3578872,25.8287931 C57.375388,25.9394214 57.3408012,26.0518781 57.2639053,26.1343689 L57.0840237,26.4093204 C56.9325444,26.6376699 56.7526627,26.6563107 56.5017751,26.521165 C56.0267768,26.2373537 55.4810711,26.0889302 54.9254438,26.0924272 C54.2698355,26.0647516 53.6331031,26.3123159 53.1736275,26.7735408 C52.714152,27.2347656 52.4751156,27.8663044 52.5159763,28.511068 C52.4740625,29.1544549 52.7047988,29.7861825 53.1532957,30.2559703 C53.6017925,30.7257582 54.22796,30.9916131 54.8828402,30.9902913 C55.5671741,31.0020834 56.2231877,30.7216602 56.6816568,30.2213592 L56.6816568,29.4431068 L56.0047337,29.4431068 C55.889724,29.4549704 55.7754183,29.4151011 55.6936489,29.334602 C55.6118795,29.2541028 55.5713812,29.1415727 55.583432,29.0283495 L55.583432,28.7627184 C55.5695145,28.6490672 55.6094051,28.5354218 55.6916278,28.4544763 C55.7738505,28.3735309 55.8892892,28.3342599 56.0047337,28.3479612 L57.4248521,28.3479612 C57.5388986,28.335135 57.6525177,28.3752562 57.7322822,28.4565209 C57.8120466,28.5377855 57.8488825,28.6509491 57.8319527,28.7627184 L57.8319527,31.6147573 C57.8488825,31.7265267 57.8120466,31.8396902 57.7322822,31.9209549 C57.6525177,32.0022195 57.5388986,32.0423407 57.4248521,32.0295146 L57.1739645,32.0295146 C56.904142,32.0295146 56.7621302,31.8897087 56.7621302,31.6939806 L56.7621302,31.5262136 C56.7591815,31.4703289 56.7591815,31.4143313 56.7621302,31.3584466 L56.7621302,31.3584466 C56.2035712,31.8893337 55.4505578,32.1751019 54.6745562,32.1506796 C53.7237083,32.150185 52.8141454,31.7681551 52.155783,31.0927575 C51.4974207,30.41736 51.1471463,29.5069543 51.1857988,28.5716505 C51.1515386,27.6008833 51.5259217,26.6592622 52.2204662,25.969331 C52.9150106,25.2793998 53.8680847,24.9023806 54.8544379,24.9273786 L54.8544379,24.9273786 Z" id="Path" fill="#3C3C3B"></path>
                <path d="M61.4390533,28.9304854 L61.652071,28.9304854 L61.652071,28.8093204 C61.6748281,28.5598554 61.5805516,28.3138268 61.3960965,28.1413165 C61.2116413,27.9688061 60.9572275,27.8887247 60.7053254,27.9238835 C60.3331965,27.9334137 59.9691164,28.0326205 59.6449704,28.2128155 C59.5507403,28.2741764 59.4336023,28.290914 59.3255405,28.2584581 C59.2174788,28.2260023 59.1297801,28.1477429 59.0863905,28.0450485 L58.9869822,27.8586408 C58.9223337,27.766812 58.9029273,27.6512801 58.9341056,27.5438511 C58.965284,27.436422 59.0437599,27.3484221 59.147929,27.3040777 C59.6624368,27.0391687 60.2335936,26.8985976 60.8142012,26.8939806 C62.1349112,26.8939806 62.9254438,27.6209709 62.9254438,28.8885437 L62.9254438,31.6147573 C62.9413343,31.7288411 62.9020883,31.8436732 62.8193792,31.9250975 C62.73667,32.0065219 62.620026,32.0451583 62.504142,32.0295146 L62.1633136,32.0295146 C62.049267,32.0423407 61.935648,32.0022195 61.8558835,31.9209549 C61.7761191,31.8396902 61.7392832,31.7265267 61.756213,31.6147573 L61.756213,31.4190291 C61.7484806,31.3462178 61.7484806,31.2728113 61.756213,31.2 L61.756213,31.2 C61.4301028,31.769565 60.8203036,32.1247878 60.156213,32.1320388 C59.7262835,32.1654829 59.3013605,32.0229945 58.9815587,31.7381446 C58.6617568,31.4532948 58.4753555,31.0512722 58.4662631,30.6267961 C58.4615385,29.1774757 60.3029586,28.9304854 61.4390533,28.9304854 Z M60.4923077,31.1906796 C61.1749793,31.1246135 61.6873606,30.5466725 61.6615385,29.8718447 L61.6615385,29.6854369 L61.4485207,29.6854369 C60.8094675,29.6854369 59.7207101,29.783301 59.7207101,30.5335922 C59.7260274,30.7245664 59.8126569,30.9045411 59.959425,31.0295278 C60.1061931,31.1545145 60.2995759,31.2129964 60.4923077,31.1906796 Z" id="Shape" fill="#3C3C3B"></path>
                <path d="M64.2035503,28.0730097 L63.9337278,28.0730097 C63.8189128,28.0874306 63.7038728,28.0480136 63.6229635,27.96653 C63.5420542,27.8850465 63.5046397,27.770927 63.5218935,27.6582524 L63.5218935,27.4904854 C63.5079761,27.3768342 63.5478667,27.2631887 63.6300894,27.1822433 C63.712312,27.1012979 63.8277507,27.0620269 63.9431953,27.0757282 L64.2319527,27.0757282 L64.2319527,26.0504854 C64.2128341,25.9306509 64.2541321,25.8091514 64.3426615,25.7247788 C64.4311908,25.6404062 64.5558815,25.6037105 64.6769231,25.6264078 L65.0745562,25.6264078 C65.1890833,25.612982 65.3035829,25.6516691 65.3855974,25.7315024 C65.4676119,25.8113356 65.5082007,25.9236123 65.495858,26.0365049 L65.495858,27.0617476 L66.2343195,27.0617476 C66.3493293,27.049884 66.463635,27.0897532 66.5454044,27.1702524 C66.6271737,27.2507516 66.6676721,27.3632816 66.6556213,27.4765049 L66.6556213,27.6396117 C66.6708844,27.7518754 66.6328071,27.864807 66.5523826,27.9458023 C66.4719582,28.0267975 66.3581396,28.0668399 66.243787,28.0543689 L65.495858,28.0543689 L65.495858,30.0023301 C65.4647581,30.2357669 65.5364663,30.4711617 65.6929214,30.649225 C65.8493765,30.8272882 66.0756657,30.9310476 66.3147929,30.9343689 C66.6272189,30.9623301 66.7360947,31.0601942 66.7360947,31.3351456 L66.7360947,31.6846602 C66.7360947,31.9782524 66.5656805,32.0947573 66.2153846,32.0947573 C65.3065089,32.0947573 64.2272189,31.6287379 64.2272189,30.2586408 L64.2035503,28.0730097 Z" id="Path" fill="#3C3C3B"></path>
                <path d="M69.7136095,26.8939806 C71.1621302,26.8939806 71.9715976,27.9052427 71.9715976,29.2846602 C71.9639987,29.5193197 71.7698321,29.7063594 71.5313609,29.7087379 L68.4260355,29.7087379 C68.4432192,30.0907874 68.6140661,30.4504169 68.9008985,30.7083151 C69.1877308,30.9662133 69.5669877,31.1011961 69.9550296,31.0834951 C70.3447869,31.0773565 70.7250919,30.9643918 71.0532544,30.7572816 C71.304142,30.6407767 71.4840237,30.6687379 71.6118343,30.8970874 L71.7301775,31.0928155 C71.7945667,31.1813308 71.8164363,31.2931321 71.7900428,31.398858 C71.7636494,31.5045839 71.6916303,31.5936693 71.5928994,31.6427184 C71.0839712,31.96866 70.49114,32.1448784 69.8840237,32.1506796 C69.1591632,32.1858144 68.4521115,31.9225881 67.9322471,31.424058 C67.4123826,30.9255279 67.1265403,30.2366068 67.1431953,29.5223301 C67.0991916,28.8299878 67.3523994,28.1512525 67.8411167,27.6515199 C68.329834,27.1517873 69.0091797,26.8769499 69.7136095,26.8939806 L69.7136095,26.8939806 Z M70.712426,28.9491262 C70.738961,28.6643152 70.6428846,28.3816118 70.4475945,28.1698639 C70.2523044,27.9581161 69.9757229,27.8367563 69.6852071,27.8353398 C69.0451055,27.8399003 68.5128349,28.3215793 68.4544379,28.9491262 L70.712426,28.9491262 Z" id="Shape" fill="#3C3C3B"></path>
                <path d="M72.383432,27.4904854 C72.3287064,27.3809727 72.3406543,27.2505462 72.414399,27.1524392 C72.4881436,27.0543323 72.6113485,27.0049571 72.7337278,27.024466 L73.2071006,27.024466 C73.4331748,27.002811 73.6343749,27.1654407 73.6568047,27.3879612 L74.4804734,30.2866019 C74.5420118,30.552233 74.5798817,30.8178641 74.5798817,30.8178641 L74.5798817,30.8178641 C74.5798817,30.8178641 74.6224852,30.552233 74.6934911,30.2866019 L75.564497,27.3739806 C75.5986935,27.1491248 75.8086492,26.9920372 76.0378698,27.0198058 L76.416568,27.0198058 C76.6457886,26.9920372 76.8557443,27.1491248 76.8899408,27.3739806 L77.7420118,30.3052427 C77.7928766,30.4791307 77.8292886,30.656804 77.8508876,30.8365049 L77.8508876,30.8365049 C77.8508876,30.8365049 77.8934911,30.5708738 77.964497,30.3052427 L78.7739645,27.3739806 C78.8035116,27.1453577 79.0149013,26.9830351 79.2473373,27.0104854 L79.7207101,27.0104854 C79.8430894,26.9909765 79.9662942,27.0403517 80.0400389,27.1384586 C80.1137836,27.2365656 80.1257314,27.3669921 80.0710059,27.4765049 L78.7597633,31.6706796 C78.7147851,31.8879001 78.5105487,32.0366873 78.2863905,32.015534 L77.6142012,32.015534 C77.3876888,32.0338112 77.183589,31.8811049 77.1408284,31.6613592 L76.3739645,29.1495146 C76.3219098,28.971927 76.2808091,28.7914034 76.2508876,28.608932 L76.2508876,28.608932 C76.2180532,28.7912303 76.1753893,28.9716795 76.1230769,29.1495146 L75.3088757,31.6846602 C75.2746792,31.909516 75.0647235,32.0666036 74.835503,32.038835 L74.1443787,32.038835 C73.9195907,32.0622435 73.7139774,31.9124533 73.6710059,31.6939806 L72.383432,27.4904854 Z" id="Path" fill="#3C3C3B"></path>
                <path d="M83.3751479,28.9304854 L83.583432,28.9304854 L83.583432,28.8093204 C83.6061891,28.5598554 83.5119126,28.3138268 83.3274574,28.1413165 C83.1430023,27.9688061 82.8885884,27.8887247 82.6366864,27.9238835 C82.2660245,27.9332228 81.9034316,28.0324674 81.5810651,28.2128155 C81.486083,28.2742224 81.3683267,28.2909915 81.2595623,28.2585991 C81.1507979,28.2262067 81.0622302,28.1479899 81.0177515,28.0450485 L80.9183432,27.8586408 C80.8536946,27.766812 80.8342882,27.6512801 80.8654666,27.5438511 C80.8966449,27.436422 80.9751208,27.3484221 81.0792899,27.3040777 C81.5955425,27.0392901 82.1681998,26.8987489 82.7502959,26.8939806 C84.0662722,26.8939806 84.8568047,27.6209709 84.8568047,28.8885437 L84.8568047,31.6147573 C84.8726953,31.7288411 84.8334493,31.8436732 84.7507401,31.9250975 C84.668031,32.0065219 84.5513869,32.0451583 84.435503,32.0295146 L84.0852071,32.0295146 C83.9703921,32.0439355 83.8553521,32.0045184 83.7744428,31.9230349 C83.6935335,31.8415513 83.656119,31.7274319 83.6733728,31.6147573 L83.6733728,31.4190291 C83.6656403,31.3462178 83.6656403,31.2728113 83.6733728,31.2 L83.6733728,31.2 C83.3479862,31.7702621 82.7377357,32.1257478 82.0733728,32.1320388 C81.6438952,32.1655245 81.219437,32.0229085 80.9003705,31.7379153 C80.581304,31.4529221 80.3959595,31.0508567 80.3881657,30.6267961 C80.3976331,29.1774757 82.2343195,28.9304854 83.3751479,28.9304854 Z M82.4284024,31.1906796 C83.1167307,31.1315557 83.6371446,30.5515984 83.6118343,29.8718447 L83.6118343,29.6854369 L83.4035503,29.6854369 C82.764497,29.6854369 81.6757396,29.783301 81.6757396,30.5335922 C81.6802103,30.7205555 81.7631874,30.897334 81.904922,31.0218539 C82.0466566,31.1463737 82.2344724,31.2074983 82.4236686,31.1906796 L82.4284024,31.1906796 Z" id="Shape" fill="#3C3C3B"></path>
                <path d="M85.9502959,32.9708738 C86.0619371,33.0266215 86.184904,33.0568857 86.3100592,33.0594175 C86.6922708,33.0196284 87.01212,32.7563072 87.1195266,32.3930097 L87.3088757,31.9269903 L85.3727811,27.4904854 C85.2402367,27.2015534 85.3727811,27.024466 85.6899408,27.024466 L86.2295858,27.024466 C86.4469449,27.0159493 86.6422219,27.1543647 86.7029586,27.36 L87.6497041,29.9184466 C87.739645,30.1840777 87.8390533,30.5941748 87.8390533,30.5941748 L87.8721893,30.5941748 C87.8721893,30.5941748 87.9621302,30.2027184 88.0378698,29.9370874 L88.9372781,27.3693204 C88.9822563,27.1520999 89.1864927,27.0033127 89.4106509,27.024466 L89.9076923,27.024466 C90.2201183,27.024466 90.347929,27.2108738 90.2485207,27.4904854 L88.1514793,32.784466 C87.8967751,33.5732779 87.1508154,34.1075382 86.3100592,34.103326 C86.0659778,34.097784 85.8251186,34.0471989 85.6,33.9541748 C85.4933514,33.9200078 85.4089891,33.8388316 85.3718565,33.7346474 C85.3347238,33.6304632 85.3490691,33.5151908 85.4106509,33.4229126 L85.5005917,33.2085437 C85.5597336,33.0219749 85.7596623,32.916312 85.9502959,32.9708738 L85.9502959,32.9708738 Z" id="Path" fill="#3C3C3B"></path>
                <polygon id="Path" fill="url(#linearGradientMobile-1)" points="78.1822485 44.4629126 78.1822485 35.0586408 76.3739645 35.0586408 76.3739645 47.8462136 85.6710059 41.5735922 84.6485207 40.1009709"></polygon>
                <polygon id="Path" fill="url(#linearGradientMobile-2)" points="101.467456 18.3937864 100.388166 19.824466 107.256805 24.8574757 100.416568 29.471068 101.439053 30.9390291 110.366864 24.9180583"></polygon>
                <polygon id="Path" fill="url(#linearGradientMobile-3)" points="76.3739645 12.8667961 78.1822485 12.8667961 78.1822485 3.54640777 84.6201183 8.26718447 85.6994083 6.83650485 76.3739645 0"></polygon>
            </g>
        </g>
    </g>
</svg>