<?xml version="1.0" encoding="UTF-8" standalone="no"?>
<svg
   xmlns="http://www.w3.org/2000/svg"
   version="1.1"
   id="svg2"
   xml:space="preserve"
   width="533.96002"
   height="306.60001"
   viewBox="0 0 533.96002 306.60001"
   sodipodi:docname="ICODA LOGO_THICK_20201029_v1.0_Full colour RGB.eps"><metadata
     id="metadata8"><rdf:RDF><cc:Work
         rdf:about=""><dc:format>image/svg+xml</dc:format><dc:type
           rdf:resource="http://purl.org/dc/dcmitype/StillImage" /></cc:Work></rdf:RDF></metadata><defs
     id="defs6"><clipPath
       clipPathUnits="userSpaceOnUse"
       id="clipPath86"><path
         d="M 0,664.711 V 1566.55 H 73.8047 V 664.711 Z m 2650.29,70.301 c 238.34,0 380.62,141.418 380.62,378.288 0,243.36 -138.74,382.94 -380.62,382.94 H 2460.94 V 735.012 Z m -263.15,-70.301 v 901.839 h 263.15 c 284.54,0 454.43,-168.58 454.43,-450.93 0,-282.331 -169.89,-450.909 -454.43,-450.909 z M 728.477,649.551 c -262.012,0 -467.247,204.719 -467.247,466.069 0,261.36 204.254,466.08 464.973,466.08 h 2.363 c 187.914,0 326.784,-111.84 394.084,-216.5 l 19.21,-29.91 h -86.3 l -5.8,8.09 c -28.3,39.42 -135.08,168.02 -321.283,168.02 -221.61,0 -393.442,-173.84 -393.442,-395.78 0,-225.632 169.129,-395.761 393.442,-395.761 188.386,0 293.563,125.063 321.333,163.411 l 5.79,8.019 h 83.47 L 1121.9,862.051 C 1059.7,756.27 913.941,649.551 728.477,649.551 Z M 1732.54,1511.4 c -224.32,0 -393.45,-170.13 -393.45,-395.78 0,-225.632 169.13,-395.761 393.45,-395.761 224.3,0 393.43,170.129 393.43,395.761 0,225.65 -169.13,395.78 -393.43,395.78 z m 0,-861.849 c -262.02,0 -467.25,204.719 -467.25,466.069 0,261.34 205.23,466.08 467.25,466.08 262.01,0 467.24,-204.74 467.24,-466.08 0,-261.35 -205.23,-466.069 -467.24,-466.069 z"
         id="path84" /></clipPath><linearGradient
       x1="0"
       y1="0"
       x2="1"
       y2="0"
       gradientUnits="userSpaceOnUse"
       gradientTransform="matrix(0,932.149,932.149,0,1552.36,649.55)"
       spreadMethod="pad"
       id="linearGradient96"><stop
         style="stop-opacity:1;stop-color:#4065b9"
         offset="0"
         id="stop88" /><stop
         style="stop-opacity:1;stop-color:#4065b9"
         offset="0.245014"
         id="stop90" /><stop
         style="stop-opacity:1;stop-color:#52ace4"
         offset="0.940837"
         id="stop92" /><stop
         style="stop-opacity:1;stop-color:#52ace4"
         offset="1"
         id="stop94" /></linearGradient><clipPath
       clipPathUnits="userSpaceOnUse"
       id="clipPath106"><path
         d="M 0,0 H 4005 V 2299 H 0 Z"
         id="path104" /></clipPath><clipPath
       clipPathUnits="userSpaceOnUse"
       id="clipPath112"><path
         d="m 3396.21,1037.41 170.34,404.11 c 40.91,-76.14 76.14,-147.28 107.31,-216.51 30.96,-67.7 57.39,-129.36 80.38,-187.6 z M 3995.4,321.691 c -3.56,53.75 -12.7,106.789 -19.04,160.34 l -14.08,79.559 c -4.44,26.601 -10.01,52.949 -16.02,79.211 -21.34,105.801 -52.92,209.14 -86.16,311.73 -34.09,102.419 -75.52,202.139 -119.19,300.719 -90.02,196.01 -197.84,383.59 -321.65,559.55 -61.64,88.15 -127.84,173 -197.33,254.86 -70.11,81.28 -142.92,160.46 -222.93,231.83 137.76,-163.78 261.59,-337.35 376.03,-516.27 53.3,-85.14 105.11,-171.11 153.06,-259.17 l -369,-859.339 h 79.67 l 130.04,302.277 h 416.87 c 4.41,-11.968 9,-23.859 13.25,-35.879 36.18,-99.449 68.33,-200.418 95.41,-302.839 15.05,-50.891 24.86,-102.981 37.92,-154.45 9.89,-52.05 22.4,-103.84 29.82,-156.441 19.74,-104.649 29.16,-210.75 40.04,-317.379 4.32,106.879 3.86,214.641 -6.71,321.691 z"
         id="path110" /></clipPath><linearGradient
       x1="0"
       y1="0"
       x2="1"
       y2="0"
       gradientUnits="userSpaceOnUse"
       gradientTransform="matrix(0,2324.24,2324.24,0,3501.83,-6.1e-5)"
       spreadMethod="pad"
       id="linearGradient122"><stop
         style="stop-opacity:1;stop-color:#4065b9"
         offset="0"
         id="stop114" /><stop
         style="stop-opacity:1;stop-color:#4065b9"
         offset="0.245014"
         id="stop116" /><stop
         style="stop-opacity:1;stop-color:#52ace4"
         offset="0.940837"
         id="stop118" /><stop
         style="stop-opacity:1;stop-color:#52ace4"
         offset="1"
         id="stop120" /></linearGradient></defs><sodipodi:namedview
     pagecolor="#ffffff"
     bordercolor="#666666"
     borderopacity="1"
     objecttolerance="10"
     gridtolerance="10"
     guidetolerance="10"
     inkscape:pageopacity="0"
     inkscape:pageshadow="2"
     inkscape:window-width="640"
     inkscape:window-height="480"
     id="namedview4" /><g
     id="g10"
     inkscape:groupmode="layer"
     inkscape:label="ink_ext_XXXXXX"
     transform="matrix(1.3333333,0,0,-1.3333333,0,306.6)"><g
       id="g12"
       transform="scale(0.1)"><path
         d="M 3.50781,307.461 V 509.68 H 32.6133 V 307.461 H 3.50781"
         style="fill:#4065b9;fill-opacity:1;fill-rule:nonzero;stroke:none"
         id="path14" /><path
         d="M 101.75,307.461 H 74.4531 v 126.43 c 0,1.82 0,3.679 0,5.609 0,1.922 -0.1015,4.898 -0.2968,8.949 h 26.0777 l 0.907,-21.238 c 2.422,3.449 5.656,7.027 9.695,10.769 4.039,3.75 9.141,6.981 15.316,9.7 6.164,2.73 13.594,4.09 22.282,4.09 18.398,0 32.046,-5.411 40.937,-16.219 8.899,-10.813 13.34,-25.313 13.34,-43.5 v -84.59 h -27.297 v 82.469 c 0,13.14 -2.875,22.781 -8.629,28.949 -5.762,6.16 -13.703,9.25 -23.801,9.25 -10.316,0 -18.5,-2.68 -24.558,-8.039 -6.074,-5.36 -10.371,-12.27 -12.899,-20.762 -2.523,-8.496 -3.777,-17.289 -3.777,-26.387 v -65.48"
         style="fill:#4065b9;fill-opacity:1;fill-rule:nonzero;stroke:none"
         id="path16" /><path
         d="m 251.535,353.551 v 72.148 h -25.469 v 22.75 h 25.469 v 46.082 h 27.274 v -46.082 h 41.242 v -22.75 h -41.242 v -69.437 c 0,-11.313 1.777,-19.09 5.308,-23.34 3.535,-4.242 8.543,-6.371 15.012,-6.371 5.254,0 9.656,0.82 13.191,2.437 3.532,1.614 6.922,4.032 10.16,7.274 l 12.43,-16.68 c -5.867,-5.672 -11.871,-9.754 -18.047,-12.281 -6.164,-2.531 -13.492,-3.781 -21.968,-3.781 -14.762,0 -25.676,4.089 -32.758,12.269 -7.071,8.191 -10.602,20.77 -10.602,37.762"
         style="fill:#4065b9;fill-opacity:1;fill-rule:nonzero;stroke:none"
         id="path18" /><path
         d="m 367.652,390.23 h 83.082 c -0.816,10.911 -4.66,20.2 -11.523,27.899 -6.875,7.672 -16.582,11.519 -29.102,11.519 -8.703,0 -16.187,-1.929 -22.437,-5.757 -6.277,-3.852 -11.074,-8.762 -14.414,-14.711 -3.324,-5.969 -5.203,-12.27 -5.606,-18.95 z m 92.172,-45.781 15.469,-16.379 c -2.031,-2.422 -5.668,-5.609 -10.926,-9.55 -5.254,-3.95 -12.082,-7.481 -20.457,-10.622 -8.387,-3.128 -18.551,-4.687 -30.476,-4.687 -14.551,0 -27.399,3.18 -38.504,9.551 -11.121,6.367 -19.758,15.25 -25.918,26.687 -6.18,11.41 -9.258,24.602 -9.258,39.563 0,13.738 2.976,26.179 8.945,37.289 5.969,11.129 14.254,19.961 24.871,26.551 10.606,6.558 22.789,9.839 36.539,9.839 16.364,0 29.61,-3.953 39.707,-11.832 10.114,-7.89 17.489,-18.078 22.137,-30.621 4.649,-12.527 6.981,-25.968 6.981,-40.328 H 367.652 c 0.196,-8.281 2.422,-15.719 6.672,-22.281 4.242,-6.578 9.852,-11.731 16.828,-15.457 6.965,-3.742 14.504,-5.621 22.594,-5.621 11.926,0 21.777,2.019 29.555,6.07 7.785,4.039 13.289,7.981 16.523,11.828"
         style="fill:#4065b9;fill-opacity:1;fill-rule:nonzero;stroke:none"
         id="path20" /><path
         d="m 536.535,307.461 h -27.293 v 127.34 c 0,1.41 0,3.027 0,4.847 0,1.821 -0.105,4.75 -0.297,8.801 h 26.075 l 0.906,-22.75 c 2.215,3.242 5.312,6.77 9.246,10.61 3.945,3.839 8.945,7.179 15.004,10.011 6.07,2.821 13.347,4.25 21.828,4.25 3.043,0 5.816,-0.199 8.348,-0.609 2.531,-0.422 4.898,-1.012 7.125,-1.82 l -6.075,-25.469 c -3.636,1.406 -8.285,2.117 -13.941,2.117 -7.68,0 -14.602,-1.961 -20.77,-5.91 -6.164,-3.938 -11.07,-9.141 -14.707,-15.609 -3.636,-6.469 -5.449,-13.641 -5.449,-21.532 v -74.277"
         style="fill:#4065b9;fill-opacity:1;fill-rule:nonzero;stroke:none"
         id="path22" /><path
         d="m 646.895,307.461 h -27.293 v 126.43 c 0,1.82 0,3.679 0,5.609 0,1.922 -0.106,4.898 -0.297,8.949 h 26.078 l 0.902,-21.238 c 2.422,3.449 5.66,7.027 9.699,10.769 4.036,3.75 9.137,6.981 15.317,9.7 6.16,2.73 13.594,4.09 22.277,4.09 18.402,0 32.047,-5.411 40.942,-16.219 8.894,-10.813 13.339,-25.313 13.339,-43.5 v -84.59 h -27.296 v 82.469 c 0,13.14 -2.875,22.781 -8.637,28.949 -5.758,6.16 -13.696,9.25 -23.793,9.25 -10.32,0 -18.504,-2.68 -24.563,-8.039 -6.074,-5.36 -10.371,-12.27 -12.894,-20.762 -2.524,-8.496 -3.781,-17.289 -3.781,-26.387 v -65.48"
         style="fill:#4065b9;fill-opacity:1;fill-rule:nonzero;stroke:none"
         id="path24" /><path
         d="m 872.473,358.09 v 16.058 c -1.012,0.403 -3.332,0.782 -6.969,1.071 -3.637,0.312 -7.731,0.601 -12.285,0.91 -4.547,0.312 -8.946,0.449 -13.18,0.449 -10.109,0 -17.84,-1.469 -23.203,-4.387 -5.359,-2.941 -8.996,-6.582 -10.91,-10.921 -1.93,-4.34 -2.879,-8.641 -2.879,-12.879 0,-7.481 2.617,-13.243 7.871,-17.282 5.262,-4.058 12.535,-6.078 21.844,-6.078 7.066,0 13.582,1.578 19.551,4.707 5.957,3.133 10.808,7.223 14.554,12.293 3.738,5.039 5.606,10.41 5.606,16.059 z m 0.918,-50.629 -0.61,16.969 c -5.058,-6.871 -11.972,-12.078 -20.769,-15.621 -8.789,-3.528 -17.645,-5.289 -26.528,-5.289 -7.691,0 -15.316,1.41 -22.898,4.23 -7.578,2.84 -13.844,7.488 -18.801,13.961 -4.945,6.461 -7.422,15.051 -7.422,25.758 0,15.16 5.348,27.301 16.071,36.402 10.707,9.078 25.972,13.629 45.781,13.629 4.437,0 9.047,-0.141 13.797,-0.461 4.742,-0.289 9.039,-0.598 12.886,-0.898 3.829,-0.301 6.368,-0.563 7.575,-0.762 v 5.16 c 0,10.5 -3.176,18.039 -9.547,22.582 -6.367,4.559 -15.004,6.828 -25.934,6.828 -10.512,0 -18.937,-1.469 -25.304,-4.39 -6.375,-2.938 -11.68,-5.918 -15.93,-8.938 l -12.723,18.481 c 5.047,4.027 12.024,7.988 20.922,11.828 8.891,3.84 20.922,5.761 36.082,5.761 17.984,0 32.238,-4.402 42.75,-13.191 10.496,-8.789 15.758,-21.27 15.758,-37.449 v -82.16 c 0,-1.422 0,-3.141 0,-5.161 0,-2.019 0.101,-4.449 0.312,-7.269 h -25.468"
         style="fill:#4065b9;fill-opacity:1;fill-rule:nonzero;stroke:none"
         id="path26" /><path
         d="m 947.977,353.551 v 72.148 h -25.465 v 22.75 h 25.465 v 46.082 h 27.277 v -46.082 h 41.236 v -22.75 h -41.236 v -69.437 c 0,-11.313 1.777,-19.09 5.309,-23.34 3.535,-4.242 8.546,-6.371 15.011,-6.371 5.256,0 9.656,0.82 13.186,2.437 3.54,1.614 6.93,4.032 10.17,7.274 l 12.42,-16.68 c -5.86,-5.672 -11.87,-9.754 -18.04,-12.281 -6.17,-2.531 -13.494,-3.781 -21.97,-3.781 -14.762,0 -25.68,4.089 -32.762,12.269 -7.066,8.191 -10.601,20.77 -10.601,37.762"
         style="fill:#4065b9;fill-opacity:1;fill-rule:nonzero;stroke:none"
         id="path28" /><path
         d="m 1053.5,307.461 v 140.988 h 27.27 V 307.461 Z m -1.83,166.16 v 30.609 h 30.62 v -30.609 h -30.62"
         style="fill:#4065b9;fill-opacity:1;fill-rule:nonzero;stroke:none"
         id="path30" /><path
         d="m 1187.51,326.859 c 9.9,0 18.35,2.469 25.31,7.43 6.98,4.949 12.33,11.371 16.07,19.262 3.74,7.879 5.62,16.058 5.62,24.558 0,8.481 -1.88,16.672 -5.62,24.563 -3.74,7.867 -9.14,14.289 -16.21,19.25 -7.08,4.949 -15.47,7.418 -25.17,7.418 -9.71,0 -18.1,-2.469 -25.17,-7.418 -7.08,-4.961 -12.48,-11.332 -16.22,-19.113 -3.75,-7.789 -5.61,-16.02 -5.61,-24.7 0,-8.5 1.92,-16.64 5.77,-24.418 3.82,-7.793 9.24,-14.203 16.22,-19.25 6.96,-5.05 15.3,-7.582 25.01,-7.582 z m 0,-23.648 c -14.36,0 -27.19,3.391 -38.5,10.16 -11.33,6.77 -20.18,15.859 -26.55,27.277 -6.36,11.422 -9.54,23.903 -9.54,37.461 0,13.731 3.18,26.27 9.54,37.602 6.37,11.309 15.22,20.348 26.55,27.141 11.31,6.75 24.14,10.136 38.5,10.136 14.35,0 27.13,-3.386 38.35,-10.136 11.22,-6.793 20.07,-15.832 26.53,-27.141 6.47,-11.332 9.71,-23.871 9.71,-37.602 0,-13.558 -3.24,-26.039 -9.71,-37.461 -6.46,-11.418 -15.31,-20.507 -26.53,-27.277 -11.22,-6.769 -24,-10.16 -38.35,-10.16"
         style="fill:#4065b9;fill-opacity:1;fill-rule:nonzero;stroke:none"
         id="path32" /><path
         d="m 1320.31,307.461 h -27.3 v 126.43 c 0,1.82 0,3.679 0,5.609 0,1.922 -0.1,4.898 -0.29,8.949 h 26.07 l 0.91,-21.238 c 2.42,3.449 5.66,7.027 9.7,10.769 4.03,3.75 9.14,6.981 15.31,9.7 6.17,2.73 13.6,4.09 22.28,4.09 18.4,0 32.05,-5.411 40.94,-16.219 8.9,-10.813 13.34,-25.313 13.34,-43.5 v -84.59 h -27.29 v 82.469 c 0,13.14 -2.88,22.781 -8.64,28.949 -5.76,6.16 -13.7,9.25 -23.8,9.25 -10.31,0 -18.5,-2.68 -24.56,-8.039 -6.07,-5.36 -10.37,-12.27 -12.89,-20.762 -2.53,-8.496 -3.78,-17.289 -3.78,-26.387 v -65.48"
         style="fill:#4065b9;fill-opacity:1;fill-rule:nonzero;stroke:none"
         id="path34" /><path
         d="m 1545.89,358.09 v 16.058 c -1.02,0.403 -3.33,0.782 -6.97,1.071 -3.64,0.312 -7.73,0.601 -12.29,0.91 -4.54,0.312 -8.95,0.449 -13.18,0.449 -10.11,0 -17.84,-1.469 -23.2,-4.387 -5.36,-2.941 -9,-6.582 -10.91,-10.921 -1.94,-4.34 -2.88,-8.641 -2.88,-12.879 0,-7.481 2.62,-13.243 7.87,-17.282 5.26,-4.058 12.54,-6.078 21.84,-6.078 7.07,0 13.59,1.578 19.55,4.707 5.96,3.133 10.81,7.223 14.55,12.293 3.75,5.039 5.62,10.41 5.62,16.059 z m 0.91,-50.629 -0.61,16.969 c -5.06,-6.871 -11.97,-12.078 -20.76,-15.621 -8.79,-3.528 -17.65,-5.289 -26.53,-5.289 -7.69,0 -15.32,1.41 -22.91,4.23 -7.57,2.84 -13.84,7.488 -18.8,13.961 -4.94,6.461 -7.41,15.051 -7.41,25.758 0,15.16 5.34,27.301 16.07,36.402 10.7,9.078 25.97,13.629 45.78,13.629 4.44,0 9.05,-0.141 13.8,-0.461 4.74,-0.289 9.03,-0.598 12.88,-0.898 3.83,-0.301 6.37,-0.563 7.58,-0.762 v 5.16 c 0,10.5 -3.18,18.039 -9.55,22.582 -6.37,4.559 -15.01,6.828 -25.93,6.828 -10.52,0 -18.94,-1.469 -25.31,-4.39 -6.37,-2.938 -11.68,-5.918 -15.93,-8.938 l -12.72,18.481 c 5.05,4.027 12.02,7.988 20.92,11.828 8.89,3.84 20.92,5.761 36.08,5.761 17.98,0 32.24,-4.402 42.75,-13.191 10.5,-8.789 15.76,-21.27 15.76,-37.449 v -82.16 c 0,-1.422 0,-3.141 0,-5.161 0,-2.019 0.1,-4.449 0.31,-7.269 h -25.47"
         style="fill:#4065b9;fill-opacity:1;fill-rule:nonzero;stroke:none"
         id="path36" /><path
         d="M 1608.96,307.461 V 509.68 h 27.28 V 307.461 h -27.28"
         style="fill:#4065b9;fill-opacity:1;fill-rule:nonzero;stroke:none"
         id="path38" /><path
         d="m 1884.26,359.91 20.32,-16.98 c -3.03,-4.641 -8.08,-10.16 -15.16,-16.52 -7.07,-6.371 -15.97,-11.941 -26.67,-16.68 -10.72,-4.75 -23.15,-7.128 -37.3,-7.128 -19.81,0 -37.35,4.609 -52.61,13.796 -15.26,9.192 -27.14,21.731 -35.63,37.602 -8.49,15.859 -12.72,33.809 -12.72,53.82 0,14.739 2.42,28.551 7.27,41.371 4.84,12.848 11.77,24.161 20.77,33.969 8.99,9.801 19.7,17.481 32.13,23.051 12.43,5.551 26.23,8.328 41.4,8.328 14.34,0 26.68,-2.168 36.98,-6.508 10.31,-4.351 18.86,-9.609 25.63,-15.769 6.77,-6.172 12.08,-12.082 15.91,-17.731 l -20.61,-17.601 c -3.24,4.648 -7.33,9.39 -12.29,14.261 -4.95,4.848 -11.11,8.938 -18.49,12.278 -7.38,3.332 -16.32,5 -26.84,5 -14.76,0 -27.43,-3.641 -38.05,-10.918 -10.6,-7.27 -18.8,-16.93 -24.56,-28.961 -5.76,-12.02 -8.63,-25.41 -8.63,-40.18 0,-14.551 2.87,-27.781 8.63,-39.699 5.76,-11.941 13.91,-21.383 24.41,-28.352 10.51,-6.988 22.94,-10.468 37.3,-10.468 12.13,0 22.03,1.918 29.71,5.757 7.68,3.84 13.8,8.133 18.35,12.891 4.54,4.75 8.13,8.543 10.75,11.371"
         style="fill:#4065b9;fill-opacity:1;fill-rule:nonzero;stroke:none"
         id="path40" /><path
         d="m 2027.69,329.59 c 14.75,0 27.59,3.648 38.51,10.922 10.91,7.277 19.41,16.918 25.46,28.949 6.08,12.027 9.1,25.219 9.1,39.57 0,14.547 -2.99,27.84 -8.94,39.867 -5.97,12.032 -14.4,21.622 -25.31,28.813 -10.93,7.168 -23.86,10.758 -38.82,10.758 -14.76,0 -27.59,-3.59 -38.5,-10.758 -10.92,-7.191 -19.36,-16.781 -25.33,-28.813 -5.95,-12.027 -8.94,-25.32 -8.94,-39.867 0,-14.351 2.99,-27.543 8.94,-39.57 5.97,-12.031 14.41,-21.672 25.33,-28.949 10.91,-7.274 23.74,-10.922 38.5,-10.922 z m 0,-27.289 c -14.55,0 -28.09,2.73 -40.62,8.179 -12.54,5.469 -23.45,13.098 -32.75,22.891 -9.31,9.809 -16.58,21.141 -21.84,33.969 -5.26,12.82 -7.87,26.629 -7.87,41.379 0,14.75 2.57,28.551 7.73,41.402 5.15,12.82 12.43,24.09 21.83,33.801 9.4,9.699 20.36,17.289 32.9,22.726 12.53,5.473 26.07,8.192 40.62,8.192 14.55,0 28.1,-2.719 40.63,-8.192 12.53,-5.437 23.5,-13.027 32.9,-22.726 9.4,-9.711 16.73,-20.981 21.98,-33.801 5.26,-12.851 7.89,-26.652 7.89,-41.402 0,-14.75 -2.63,-28.559 -7.89,-41.379 -5.25,-12.828 -12.58,-24.16 -21.98,-33.969 -9.4,-9.793 -20.37,-17.422 -32.9,-22.891 -12.53,-5.449 -26.08,-8.179 -40.63,-8.179"
         style="fill:#4065b9;fill-opacity:1;fill-rule:nonzero;stroke:none"
         id="path42" /><path
         d="m 2218.71,307.461 -78.23,202.219 h 32.45 l 61.55,-166.141 61.55,166.141 h 30.62 l -78.23,-202.219 h -29.71"
         style="fill:#4065b9;fill-opacity:1;fill-rule:nonzero;stroke:none"
         id="path44" /><path
         d="M 2353.34,307.461 V 509.68 h 29.1 V 307.461 h -29.1"
         style="fill:#4065b9;fill-opacity:1;fill-rule:nonzero;stroke:none"
         id="path46" /><path
         d="m 2457.64,333.531 h 37.6 c 25.25,0 44.92,6.207 58.97,18.641 14.04,12.43 21.07,30.879 21.07,55.328 0,24.672 -6.82,43.52 -20.46,56.559 -13.65,13.043 -33.81,19.55 -60.49,19.55 h -36.69 z m -29.11,-26.07 V 509.68 h 67.61 c 21.43,0 40.38,-3.578 56.85,-10.75 16.48,-7.18 29.42,-18.239 38.82,-33.2 9.4,-14.96 14.09,-34.16 14.09,-57.609 0,-22.652 -4.69,-41.449 -14.09,-56.402 -9.4,-14.957 -22.39,-26.071 -38.96,-33.348 -16.58,-7.281 -35.58,-10.91 -57.01,-10.91 h -67.31"
         style="fill:#4065b9;fill-opacity:1;fill-rule:nonzero;stroke:none"
         id="path48" /><path
         d="m 2642.9,379.309 v 26.07 h 88.82 v -26.07 h -88.82"
         style="fill:#4065b9;fill-opacity:1;fill-rule:nonzero;stroke:none"
         id="path50" /><path
         d="m 2796.61,307.461 v 24.25 h 33.96 v 137.348 l -39.41,-21.219 -11.22,21.531 53.66,29.399 h 24.57 V 331.711 h 33.34 v -24.25 h -94.9"
         style="fill:#4065b9;fill-opacity:1;fill-rule:nonzero;stroke:none"
         id="path52" /><path
         d="m 3037.35,415.711 c 0,19.789 -3.18,35.348 -9.54,46.68 -6.37,11.32 -16.64,16.98 -30.77,16.98 -6.48,0 -12.59,-1.57 -18.35,-4.711 -5.76,-3.129 -10.41,-7.672 -13.95,-13.629 -3.54,-5.972 -5.41,-13.293 -5.61,-21.98 0,-10.512 2.88,-19.469 8.64,-26.84 5.76,-7.383 15.2,-11.07 28.35,-11.07 10.11,0 18.34,1.41 24.71,4.238 6.37,2.84 11.87,6.269 16.52,10.332 z m -97.93,-100.371 11.82,22.121 c 0.82,-0.59 2.84,-1.699 6.07,-3.332 3.22,-1.609 7.38,-3.18 12.43,-4.688 5.05,-1.519 10.51,-2.281 16.38,-2.281 11.51,0 20.91,3.031 28.2,9.102 7.28,6.058 12.78,13.949 16.52,23.648 3.74,9.699 5.8,20.11 6.22,31.238 -3.65,-3.046 -9.06,-6.277 -16.23,-9.718 -7.17,-3.43 -16.72,-5.149 -28.65,-5.149 -11.93,0 -22.33,2.68 -31.23,8.039 -8.89,5.352 -15.77,12.782 -20.62,22.289 -4.85,9.5 -7.28,20.411 -7.28,32.743 0,12.73 2.79,23.937 8.34,33.66 5.57,9.699 13.14,17.277 22.75,22.738 9.59,5.461 20.46,8.18 32.58,8.18 21.43,0 38.16,-7.692 50.19,-23.039 12.02,-15.371 18.03,-38.309 18.03,-68.832 0,-22.239 -2.98,-41.539 -8.93,-57.911 -5.97,-16.367 -14.81,-29.007 -26.54,-37.91 -11.72,-8.886 -26.38,-13.328 -43.96,-13.328 -10.51,0 -19.91,1.52 -28.2,4.551 -8.3,3.019 -14.25,5.648 -17.89,7.879"
         style="fill:#4065b9;fill-opacity:1;fill-rule:nonzero;stroke:none"
         id="path54" /><path
         d="m 32.6133,30.332 h 37.5976 c 25.2579,0 44.9221,6.2071 58.9691,18.6368 14.05,12.4296 21.082,30.8828 21.082,55.3322 0,24.668 -6.824,43.519 -20.473,56.551 -13.644,13.039 -33.8007,19.546 -60.4843,19.546 H 32.6133 Z M 3.50781,4.25 V 206.48 H 71.1133 c 21.4336,0 40.3827,-3.589 56.8517,-10.761 16.484,-7.168 29.414,-18.25 38.82,-33.199 9.399,-14.961 14.094,-34.161 14.094,-57.598 0,-22.6525 -4.695,-41.4532 -14.094,-56.4103 C 157.379,33.5586 144.395,22.4414 127.824,15.1602 111.238,7.87891 92.2461,4.25 70.8164,4.25 H 3.50781"
         style="fill:#4065b9;fill-opacity:1;fill-rule:nonzero;stroke:none"
         id="path56" /><path
         d="m 302.453,54.8906 v 16.0586 c -1.012,0.4024 -3.324,0.7617 -6.965,1.0703 -3.64,0.3086 -7.726,0.6016 -12.289,0.9024 -4.539,0.3086 -8.945,0.4492 -13.179,0.4492 -10.11,0 -17.84,-1.4609 -23.204,-4.3828 -5.355,-2.9375 -8.992,-6.5781 -10.91,-10.918 -1.929,-4.3594 -2.879,-8.6484 -2.879,-12.8789 0,-7.4922 2.618,-13.25 7.879,-17.293 5.254,-4.0468 12.528,-6.0703 21.84,-6.0703 7.07,0 13.578,1.5625 19.551,4.7032 5.949,3.1289 10.808,7.2187 14.551,12.2773 3.738,5.0625 5.605,10.4102 5.605,16.082 z M 303.371,4.25 302.766,21.2188 C 297.703,14.3594 290.785,9.14063 281.996,5.60938 273.203,2.07031 264.352,0.320313 255.469,0.320313 c -7.688,0 -15.317,1.398437 -22.903,4.218747 -7.574,2.83985 -13.839,7.49224 -18.8,13.96094 -4.946,6.4609 -7.418,15.0586 -7.418,25.7695 0,15.1602 5.347,27.2891 16.066,36.3907 10.707,9.0898 25.973,13.6289 45.781,13.6289 4.442,0 9.047,-0.1407 13.801,-0.4493 4.738,-0.3007 9.035,-0.6015 12.883,-0.9101 3.832,-0.2891 6.367,-0.5508 7.574,-0.7578 v 5.1679 c 0,10.5002 -3.176,18.0392 -9.543,22.5822 -6.371,4.558 -15.004,6.816 -25.93,6.816 -10.515,0 -18.941,-1.457 -25.316,-4.386 -6.371,-2.942 -11.676,-5.922 -15.922,-8.954 l -12.726,18.493 c 5.047,4.039 12.023,7.988 20.922,11.828 8.894,3.84 20.921,5.769 36.082,5.769 17.984,0 32.238,-4.406 42.75,-13.199 10.503,-8.789 15.757,-21.269 15.757,-37.4374 V 16.6719 c 0,-1.4024 0,-3.1211 0,-5.1406 0,-2.01958 0.102,-4.46099 0.313,-7.2813 h -25.469"
         style="fill:#4065b9;fill-opacity:1;fill-rule:nonzero;stroke:none"
         id="path58" /><path
         d="m 377.961,50.3398 v 72.1482 h -25.469 v 22.75 h 25.469 v 46.082 h 27.281 v -46.082 h 41.235 v -22.75 H 405.242 V 53.0586 c 0,-11.3203 1.77,-19.0977 5.305,-23.3477 3.535,-4.2421 8.547,-6.3711 15.008,-6.3711 5.254,0 9.656,0.8204 13.191,2.4415 3.535,1.6171 6.926,4.039 10.16,7.2695 L 461.34,16.3789 C 455.477,10.7109 449.465,6.62109 443.293,4.10156 437.125,1.57031 429.801,0.320313 421.32,0.320313 c -14.761,0 -25.675,4.089847 -32.757,12.261687 -7.067,8.1875 -10.602,20.7696 -10.602,37.7578"
         style="fill:#4065b9;fill-opacity:1;fill-rule:nonzero;stroke:none"
         id="path60" /><path
         d="m 570.184,54.8906 v 16.0586 c -1.008,0.4024 -3.329,0.7617 -6.965,1.0703 -3.637,0.3086 -7.731,0.6016 -12.285,0.9024 -4.547,0.3086 -8.95,0.4492 -13.184,0.4492 -10.113,0 -17.84,-1.4609 -23.199,-4.3828 -5.36,-2.9375 -8.996,-6.5781 -10.918,-10.918 -1.93,-4.3594 -2.871,-8.6484 -2.871,-12.8789 0,-7.4922 2.613,-13.25 7.871,-17.293 5.254,-4.0468 12.535,-6.0703 21.844,-6.0703 7.07,0 13.582,1.5625 19.55,4.7032 5.957,3.1289 10.809,7.2187 14.551,12.2773 3.742,5.0625 5.606,10.4102 5.606,16.082 z M 571.105,4.25 570.492,21.2188 C 565.43,14.3594 558.516,9.14063 549.727,5.60938 540.938,2.07031 532.082,0.320313 523.199,0.320313 c -7.691,0 -15.316,1.398437 -22.906,4.218747 -7.57,2.83985 -13.836,7.49224 -18.797,13.96094 -4.945,6.4609 -7.418,15.0586 -7.418,25.7695 0,15.1602 5.348,27.2891 16.07,36.3907 10.704,9.0898 25.969,13.6289 45.778,13.6289 4.441,0 9.051,-0.1407 13.801,-0.4493 4.738,-0.3007 9.039,-0.6015 12.882,-0.9101 3.832,-0.2891 6.371,-0.5508 7.575,-0.7578 v 5.1679 c 0,10.5002 -3.172,18.0392 -9.543,22.5822 -6.368,4.558 -15.004,6.816 -25.934,6.816 -10.512,0 -18.937,-1.457 -25.312,-4.386 -6.368,-2.942 -11.672,-5.922 -15.922,-8.954 l -12.731,18.493 c 5.055,4.039 12.031,7.988 20.922,11.828 8.899,3.84 20.926,5.769 36.086,5.769 17.984,0 32.242,-4.406 42.754,-13.199 10.5,-8.789 15.758,-21.269 15.758,-37.4374 V 16.6719 c 0,-1.4024 0,-3.1211 0,-5.1406 0,-2.01958 0.101,-4.46099 0.308,-7.2813 h -25.465"
         style="fill:#4065b9;fill-opacity:1;fill-rule:nonzero;stroke:none"
         id="path62" /><path
         d="m 733.316,85.2109 h 65.797 L 766.367,174.051 Z M 673.281,4.25 752.414,206.48 h 29.711 L 861.27,4.25 H 828.824 L 807.902,60.6484 H 724.82 L 703.902,4.25 h -30.621"
         style="fill:#4065b9;fill-opacity:1;fill-rule:nonzero;stroke:none"
         id="path64" /><path
         d="m 883.41,4.25 v 202.23 h 27.281 V 4.25 H 883.41"
         style="fill:#4065b9;fill-opacity:1;fill-rule:nonzero;stroke:none"
         id="path66" /><path
         d="m 947.691,4.25 v 202.23 h 27.282 V 4.25 h -27.282"
         style="fill:#4065b9;fill-opacity:1;fill-rule:nonzero;stroke:none"
         id="path68" /><path
         d="m 1013.49,4.25 v 140.988 h 27.28 V 4.25 Z m -1.83,166.16 v 30.621 h 30.62 V 170.41 h -30.62"
         style="fill:#4065b9;fill-opacity:1;fill-rule:nonzero;stroke:none"
         id="path70" /><path
         d="m 1167.51,54.8906 v 16.0586 c -1.01,0.4024 -3.33,0.7617 -6.97,1.0703 -3.64,0.3086 -7.73,0.6016 -12.29,0.9024 -4.54,0.3086 -8.94,0.4492 -13.18,0.4492 -10.11,0 -17.84,-1.4609 -23.2,-4.3828 -5.36,-2.9375 -8.99,-6.5781 -10.91,-10.918 -1.93,-4.3594 -2.87,-8.6484 -2.87,-12.8789 0,-7.4922 2.61,-13.25 7.87,-17.293 5.25,-4.0468 12.53,-6.0703 21.84,-6.0703 7.07,0 13.58,1.5625 19.55,4.7032 5.95,3.1289 10.81,7.2187 14.55,12.2773 3.74,5.0625 5.61,10.4102 5.61,16.082 z m 0.91,-50.6406 -0.6,16.9688 c -5.06,-6.8594 -11.98,-12.07817 -20.77,-15.60942 -8.79,-3.53907 -17.64,-5.289067 -26.53,-5.289067 -7.69,0 -15.31,1.398437 -22.9,4.218747 -7.57,2.83985 -13.84,7.49224 -18.8,13.96094 -4.95,6.4609 -7.42,15.0586 -7.42,25.7695 0,15.1602 5.35,27.2891 16.07,36.3907 10.71,9.0898 25.97,13.6289 45.78,13.6289 4.44,0 9.05,-0.1407 13.8,-0.4493 4.74,-0.3007 9.04,-0.6015 12.88,-0.9101 3.84,-0.2891 6.37,-0.5508 7.58,-0.7578 v 5.1679 c 0,10.5002 -3.18,18.0392 -9.54,22.5822 -6.38,4.558 -15.01,6.816 -25.94,6.816 -10.51,0 -18.94,-1.457 -25.31,-4.386 -6.37,-2.942 -11.68,-5.922 -15.92,-8.954 l -12.73,18.493 c 5.05,4.039 12.02,7.988 20.92,11.828 8.9,3.84 20.92,5.769 36.08,5.769 17.99,0 32.24,-4.406 42.75,-13.199 10.51,-8.789 15.76,-21.269 15.76,-37.4374 V 16.6719 c 0,-1.4024 0,-3.1211 0,-5.1406 0,-2.01958 0.11,-4.46099 0.31,-7.2813 h -25.47"
         style="fill:#4065b9;fill-opacity:1;fill-rule:nonzero;stroke:none"
         id="path72" /><path
         d="m 1258.18,4.25 h -27.3 v 126.441 c 0,1.809 0,3.68 0,5.598 0,1.922 -0.1,4.902 -0.3,8.949 h 26.08 l 0.9,-21.226 c 2.43,3.449 5.66,7.027 9.7,10.769 4.05,3.739 9.14,6.957 15.32,9.699 6.16,2.731 13.59,4.09 22.28,4.09 18.4,0 32.05,-5.41 40.94,-16.218 8.89,-10.813 13.34,-25.313 13.34,-43.5122 V 4.25 h -27.3 v 82.4688 c 0,13.1406 -2.87,22.7932 -8.63,28.9532 -5.76,6.156 -13.7,9.258 -23.8,9.258 -10.32,0 -18.5,-2.68 -24.56,-8.039 -6.07,-5.36 -10.37,-12.282 -12.9,-20.7699 -2.52,-8.4922 -3.77,-17.2891 -3.77,-26.3906 V 4.25"
         style="fill:#4065b9;fill-opacity:1;fill-rule:nonzero;stroke:none"
         id="path74" /><path
         d="m 1501.64,41.2305 16.68,-17.5703 C 1512.05,16.582 1504.27,10.8594 1494.98,6.53125 1485.68,2.17969 1475.06,0 1463.14,0 c -15.16,0 -28.25,3.23828 -39.27,9.71094 -11.02,6.46876 -19.55,15.30076 -25.62,26.52736 -6.06,11.2226 -9.09,24.1015 -9.09,38.6601 0,13.7422 3.13,26.2736 9.4,37.5896 6.25,11.321 15.01,20.371 26.22,27.141 11.22,6.762 24,10.16 38.36,10.16 11.92,0 22.44,-2.129 31.54,-6.379 9.09,-4.238 16.87,-10 23.34,-17.281 l -17.89,-17.27 c -4.25,5.25 -9.4,9.391 -15.46,12.43 -6.07,3.031 -13.25,4.543 -21.53,4.543 -9.7,0 -18.04,-2.383 -25.01,-7.121 -6.98,-4.75 -12.29,-10.961 -15.93,-18.66 -3.64,-7.6721 -5.45,-16.0627 -5.45,-25.1526 0,-8.6992 1.86,-16.9375 5.6,-24.7187 3.75,-7.7695 9.06,-14.0899 15.93,-18.9492 6.86,-4.8399 15.16,-7.2813 24.86,-7.2813 8.28,0 15.71,1.5703 22.28,4.711 6.56,3.1289 11.97,7.3203 16.22,12.5703"
         style="fill:#4065b9;fill-opacity:1;fill-rule:nonzero;stroke:none"
         id="path76" /><path
         d="m 1557.73,87.0195 h 83.08 c -0.81,10.9102 -4.66,20.2105 -11.52,27.9025 -6.88,7.68 -16.59,11.519 -29.11,11.519 -8.7,0 -16.18,-1.921 -22.43,-5.761 -6.28,-3.84 -11.07,-8.75 -14.41,-14.711 -3.33,-5.969 -5.21,-12.2698 -5.61,-18.9495 z m 92.17,-45.789 15.47,-16.3711 c -2.03,-2.418 -5.67,-5.6094 -10.93,-9.5391 -5.25,-3.9492 -12.08,-7.48046 -20.45,-10.62108 C 1625.6,1.57031 1615.44,0 1603.51,0 c -14.55,0 -27.4,3.19141 -38.5,9.55078 -11.13,6.37112 -19.76,15.25782 -25.93,26.68752 -6.17,11.4219 -9.25,24.6015 -9.25,39.5625 0,13.7383 2.97,26.1872 8.95,37.2892 5.96,11.121 14.25,19.969 24.86,26.539 10.61,6.57 22.79,9.859 36.54,9.859 16.37,0 29.61,-3.949 39.71,-11.84 10.11,-7.878 17.49,-18.089 22.14,-30.609 4.65,-12.5273 6.98,-25.9804 6.98,-40.3398 h -111.28 c 0.19,-8.2773 2.42,-15.7109 6.67,-22.2695 4.24,-6.5781 9.85,-11.7383 16.83,-15.4609 6.96,-3.75 14.5,-5.629 22.59,-5.629 11.92,0 21.78,2.0313 29.56,6.0821 7.78,4.039 13.28,7.9765 16.52,11.8086"
         style="fill:#4065b9;fill-opacity:1;fill-rule:nonzero;stroke:none"
         id="path78" /><g
         id="g80"><g
           id="g82"
           clip-path="url(#clipPath86)"><path
             d="M 0,664.711 V 1566.55 H 73.8047 V 664.711 Z m 2650.29,70.301 c 238.34,0 380.62,141.418 380.62,378.288 0,243.36 -138.74,382.94 -380.62,382.94 H 2460.94 V 735.012 Z m -263.15,-70.301 v 901.839 h 263.15 c 284.54,0 454.43,-168.58 454.43,-450.93 0,-282.331 -169.89,-450.909 -454.43,-450.909 z M 728.477,649.551 c -262.012,0 -467.247,204.719 -467.247,466.069 0,261.36 204.254,466.08 464.973,466.08 h 2.363 c 187.914,0 326.784,-111.84 394.084,-216.5 l 19.21,-29.91 h -86.3 l -5.8,8.09 c -28.3,39.42 -135.08,168.02 -321.283,168.02 -221.61,0 -393.442,-173.84 -393.442,-395.78 0,-225.632 169.129,-395.761 393.442,-395.761 188.386,0 293.563,125.063 321.333,163.411 l 5.79,8.019 h 83.47 L 1121.9,862.051 C 1059.7,756.27 913.941,649.551 728.477,649.551 Z M 1732.54,1511.4 c -224.32,0 -393.45,-170.13 -393.45,-395.78 0,-225.632 169.13,-395.761 393.45,-395.761 224.3,0 393.43,170.129 393.43,395.761 0,225.65 -169.13,395.78 -393.43,395.78 z m 0,-861.849 c -262.02,0 -467.25,204.719 -467.25,466.069 0,261.34 205.23,466.08 467.25,466.08 262.01,0 467.24,-204.74 467.24,-466.08 0,-261.35 -205.23,-466.069 -467.24,-466.069"
             style="fill:url(#linearGradient96);fill-opacity:1;fill-rule:nonzero;stroke:none"
             id="path98" /></g></g><g
         id="g100"><g
           id="g102"
           clip-path="url(#clipPath106)"><g
             id="g108"
             clip-path="url(#clipPath112)"><path
               d="m 4002,0 v 1 h -1 v 9 h -1 v 10 h -1 v 10 h -1 v 10 h -1 v 10 h -1 v 10 h -1 v 10 h -1 v 10 h -1 v 9 h -1 v 9 h -1 v 9 h -1 v 10 h -1 v 9 h -1 v 9 h -1 v 9 h -1 v 10 h -1 v 8 h -1 v 8 h -1 v 8 h -1 v 7 h -1 v 8 h -1 v 8 h -1 v 7 h -1 v 8 h -1 v 8 h -1 v 7 h -1 v 8 h -1 v 6 h -1 v 7 h -1 v 6 h -1 v 6 h -1 v 7 h -1 v 6 h -1 v 6 h -1 v 6 h -1 v 7 h -1 v 5 h -1 v 6 h -1 v 5 h -1 v 5 h -1 v 7 h -1 v 7 h -1 v 6 h -1 v 6 h -1 v 5 h -1 v 6 h -1 v 6 h -1 v 5 h -1 v 5 h -1 v 5 h -1 v 5 h -1 v 5 h -1 v 6 h -1 v 5 h -1 v 5 h -1 v 4 h -1 v 5 h -1 v 5 h -1 v 5 h -1 v 5 h -1 v 5 h -1 v 4 h -1 v 5 h -1 v 5 h -1 v 5 h -1 v 5 h -1 v 5 h -1 v 5 h -1 v 5 h -1 v 5 h -1 v 4 h -1 v 4 h -1 v 4 h -1 v 5 h -1 v 4 h -1 v 4 h -1 v 4 h -1 v 5 h -1 v 4 h -1 v 4 h -1 v 4 h -1 v 5 h -1 v 4 h -1 v 5 h -1 v 4 h -1 v 4 h -1 v 5 h -1 v 4 h -1 v 4 h -1 v 4 h -1 v 4 h -1 v 5 h -1 v 4 h -1 v 4 h -1 v 4 h -1 v 4 h -1 v 4 h -1 v 4 h -1 v 4 h -1 v 4 h -1 v 4 h -1 v 3 h -1 v 4 h -1 v 4 h -1 v 4 h -1 v 3 h -1 v 4 h -1 v 3 h -1 v 4 h -1 v 4 h -1 v 3 h -1 v 4 h -1 v 4 h -1 v 3 h -1 v 4 h -1 v 4 h -1 v 3 h -1 v 4 h -1 v 3 h -1 v 4 h -1 v 3 h -1 v 4 h -1 v 3 h -1 v 4 h -1 v 3 h -1 v 4 h -1 v 4 h -1 v 3 h -1 v 4 h -1 v 3 h -1 v 3 h -1 v 3 h -1 v 4 h -1 v 3 h -1 v 3 h -1 v 4 h -1 v 3 h -1 v 3 h -1 v 4 h -1 v 3 h -1 v 3 h -1 v 3 h -1 v 4 h -1 v 3 h -1 v 3 h -1 v 4 h -1 v 3 h -1 v 3 h -1 v 4 h -1 v 3 h -1 v 3 h -1 v 3 h -1 v 3 h -1 v 4 h -1 v 3 h -1 v 3 h -1 v 3 h -1 v 3 h -1 v 3 h -1 v 3 h -1 v 3 h -1 v 3 h -1 v 3 h -1 v 3 h -1 v 3 h -1 v 3 h -1 v 3 h -1 v 3 h -1 v 3 h -1 v 3 h -1 v 3 h -1 v 3 h -1 v 3 h -1 v 3 h -1 v 4 h -1 v 3 h -1 v 3 h -1 v 2 h -1 v 3 h -1 v 3 h -1 v 3 h -1 v 3 h -1 v 3 h -1 v 3 h -1 v 3 h -1 v 2 h -1 v 3 h -1 v 3 h -1 v 3 h -1 v 3 h -1 v 3 h -1 v 3 h -1 v 3 h -1 v 2 h -1 v 3 h -1 v 3 h -1 v 3 h -1 v 3 h -1 v 2 h -1 v 3 h -1 v 3 h -1 v 3 h -1 v 2 h -1 v 3 h -1 v 3 h -1 v 3 h -1 v 2 h -1 v 3 h -1 v 3 h -1 v 2 h -1 v 3 h -1 v 3 h -1 v 3 h -1 v 2 h -1 v 3 h -1 v 3 h -417 v -1 h -1 v -3 h -1 v -2 h -1 v -2 h -1 v -3 h -1 v -2 h -1 v -2 h -1 v -3 h -1 v -2 h -1 v -2 h -1 v -3 h -1 v -2 h -1 v -2 h -1 v -3 h -1 v -2 h -1 v -2 h -1 v -3 h -1 v -2 h -1 v -2 h -1 v -3 h -1 v -2 h -1 v -2 h -1 v -3 h -1 v -2 h -1 v -2 h -1 v -2 h -1 v -3 h -1 v -2 h -1 v -2 h -1 v -3 h -1 v -2 h -1 v -2 h -1 v -3 h -1 v -2 h -1 v -2 h -1 v -3 h -1 v -2 h -1 v -2 h -1 v -3 h -1 v -2 h -1 v -2 h -1 v -3 h -1 v -2 h -1 v -2 h -1 v -3 h -1 v -2 h -1 v -2 h -1 v -3 h -1 v -2 h -1 v -2 h -1 v -3 h -1 v -2 h -1 v -2 h -1 v -3 h -1 v -2 h -1 v -2 h -1 v -3 h -1 v -2 h -1 v -2 h -1 v -3 h -1 v -2 h -1 v -2 h -1 v -2 h -1 v -3 h -1 v -2 h -1 v -2 h -1 v -3 h -1 v -2 h -1 v -2 h -1 v -3 h -1 v -2 h -1 v -2 h -1 v -3 h -1 v -2 h -1 v -2 h -1 v -3 h -1 v -2 h -1 v -2 h -1 v -3 h -1 v -2 h -1 v -2 h -1 v -3 h -1 v -2 h -1 v -2 h -1 v -3 h -1 v -2 h -1 v -2 h -1 v -3 h -1 v -2 h -1 v -2 h -1 v -3 h -1 v -2 h -1 v -2 h -1 v -3 h -1 v -2 h -1 v -2 h -1 v -3 h -1 v -2 h -1 v -2 h -1 v -2 h -1 v -3 h -1 v -2 h -1 v -2 h -1 v -3 h -1 v -2 h -1 v -2 h -1 v -3 h -1 v -2 h -1 v -2 h -1 v -3 h -1 v -2 h -1 v -2 h -1 v -3 h -1 v -2 h -1 v -2 h -1 v -3 h -1 v -2 h -1 v -2 h -1 v -3 h -1 v -2 h -1 v -2 h -1 v -3 h -1 v -2 h -1 v -2 h -1 v -3 h -1 v -2 h -1 v -2 h -1 v -3 h -1 v -2 h -1 v -2 h -1 v -1 h -80 v 3 h 1 v 3 h 1 v 2 h 1 v 2 h 1 v 3 h 1 v 2 h 1 v 2 h 1 v 3 h 1 v 2 h 1 v 2 h 1 v 3 h 1 v 2 h 1 v 2 h 1 v 3 h 1 v 2 h 1 v 2 h 1 v 3 h 1 v 2 h 1 v 2 h 1 v 3 h 1 v 2 h 1 v 2 h 1 v 3 h 1 v 2 h 1 v 2 h 1 v 3 h 1 v 2 h 1 v 2 h 1 v 3 h 1 v 2 h 1 v 2 h 1 v 3 h 1 v 2 h 1 v 2 h 1 v 2 h 1 v 3 h 1 v 2 h 1 v 2 h 1 v 3 h 1 v 2 h 1 v 2 h 1 v 3 h 1 v 2 h 1 v 2 h 1 v 3 h 1 v 2 h 1 v 2 h 1 v 3 h 1 v 2 h 1 v 2 h 1 v 3 h 1 v 2 h 1 v 2 h 1 v 3 h 1 v 2 h 1 v 2 h 1 v 3 h 1 v 2 h 1 v 2 h 1 v 3 h 1 v 2 h 1 v 2 h 1 v 3 h 1 v 2 h 1 v 2 h 1 v 3 h 1 v 2 h 1 v 2 h 1 v 3 h 1 v 2 h 1 v 2 h 1 v 3 h 1 v 2 h 1 v 2 h 1 v 3 h 1 v 2 h 1 v 2 h 1 v 3 h 1 v 2 h 1 v 2 h 1 v 3 h 1 v 2 h 1 v 2 h 1 v 3 h 1 v 2 h 1 v 2 h 1 v 3 h 1 v 2 h 1 v 2 h 1 v 3 h 1 v 2 h 1 v 2 h 1 v 3 h 1 v 2 h 1 v 2 h 1 v 3 h 1 v 2 h 1 v 2 h 1 v 3 h 1 v 2 h 1 v 2 h 1 v 3 h 1 v 2 h 1 v 2 h 1 v 3 h 1 v 2 h 1 v 2 h 1 v 3 h 1 v 2 h 1 v 2 h 1 v 2 h 1 v 3 h 1 v 2 h 1 v 2 h 1 v 3 h 1 v 2 h 1 v 2 h 1 v 3 h 1 v 2 h 1 v 2 h 1 v 3 h 1 v 2 h 1 v 2 h 1 v 3 h 1 v 2 h 1 v 2 h 1 v 3 h 1 v 2 h 1 v 2 h 1 v 3 h 1 v 2 h 1 v 2 h 1 v 3 h 1 v 2 h 1 v 2 h 1 v 3 h 1 v 2 h 1 v 2 h 1 v 3 h 1 v 2 h 1 v 2 h 1 v 3 h 1 v 2 h 1 v 2 h 1 v 3 h 1 v 2 h 1 v 2 h 1 v 3 h 1 v 2 h 1 v 2 h 1 v 3 h 1 v 2 h 1 v 2 h 1 v 3 h 1 v 2 h 1 v 2 h 1 v 3 h 1 v 2 h 1 v 2 h 1 v 3 h 1 v 2 h 1 v 2 h 1 v 3 h 1 v 2 h 1 v 2 h 1 v 3 h 1 v 2 h 1 v 2 h 1 v 3 h 1 v 2 h 1 v 2 h 1 v 3 h 1 v 2 h 1 v 2 h 1 v 3 h 1 v 2 h 1 v 2 h 1 v 3 h 1 v 2 h 1 v 2 h 1 v 3 h 1 v 2 h 1 v 2 h 1 v 2 h 1 v 3 h 1 v 2 h 1 v 2 h 1 v 3 h 1 v 2 h 1 v 2 h 1 v 3 h 1 v 2 h 1 v 2 h 1 v 3 h 1 v 2 h 1 v 2 h 1 v 3 h 1 v 2 h 1 v 2 h 1 v 3 h 1 v 2 h 1 v 2 h 1 v 3 h 1 v 2 h 1 v 2 h 1 v 3 h 1 v 2 h 1 v 2 h 1 v 3 h 1 v 2 h 1 v 2 h 1 v 3 h 1 v 2 h 1 v 2 h 1 v 3 h 1 v 2 h 1 v 2 h 1 v 3 h 1 v 2 h 1 v 2 h 1 v 3 h 1 v 2 h 1 v 2 h 1 v 3 h 1 v 2 h 1 v 2 h 1 v 3 h 1 v 2 h 1 v 2 h 1 v 3 h 1 v 2 h 1 v 2 h 1 v 3 h 1 v 2 h 1 v 2 h 1 v 3 h 1 v 2 h 1 v 2 h 1 v 3 h 1 v 2 h 1 v 2 h 1 v 3 h 1 v 2 h 1 v 2 h 1 v 3 h 1 v 2 h 1 v 2 h 1 v 3 h 1 v 2 h 1 v 2 h 1 v 3 h 1 v 2 h 1 v 2 h 1 v 3 h 1 v 2 h 1 v 2 h 1 v 2 h 1 v 3 h 1 v 2 h 1 v 2 h 1 v 3 h 1 v 2 h 1 v 2 h 1 v 3 h 1 v 2 h 1 v 2 h 1 v 3 h 1 v 2 h 1 v 2 h 1 v 3 h 1 v 2 h 1 v 2 h 1 v 3 h 1 v 2 h 1 v 2 h 1 v 3 h 1 v 2 h 1 v 2 h 1 v 3 h 1 v 2 h 1 v 2 h 1 v 3 h 1 v 2 h 1 v 2 h 1 v 3 h 1 v 2 h 1 v 2 h 1 v 3 h 1 v 2 h 1 v 2 h 1 v 3 h 1 v 2 h 1 v 2 h 1 v 3 h 1 v 2 h 1 v 2 h 1 v 3 h 1 v 2 h 1 v 2 h 1 v 3 h 1 v 2 h 1 v 2 h 1 v 3 h 1 v 2 h 1 v 2 h 1 v 3 h 1 v 2 h 1 v 2 h 1 v 3 h 1 v 2 h 1 v 2 h 1 v 3 h 1 v 2 h 1 v 2 h 1 v 3 h 1 v 2 h 1 v 2 h 1 v 3 h 1 v 2 h 1 v 2 h 1 v 3 h 1 v 2 h 1 v 2 h 1 v 3 h 1 v 2 h 1 v 2 h 1 v 3 h 1 v 2 h 1 v 2 h 1 v 3 h 1 v 2 h 1 v 2 h 1 v 2 h 1 v 3 h 1 v 2 h 1 v 2 h 1 v 3 h 1 v 2 h 1 v 2 h 1 v 3 h 1 v 2 h 1 v 2 h 1 v 3 h 1 v 2 h 1 v 2 h 1 v 3 h 1 v 2 h 1 v 2 h 1 v 3 h 1 v 2 h 1 v 2 h 1 v 3 h 1 v 2 h 1 v 2 h 1 v 3 h 1 v 2 h 1 v 2 h 1 v 3 h 1 v 2 h 1 v 2 h 1 v 3 h 1 v 2 h 1 v 2 h 1 v 3 h 1 v 2 h 1 v 2 h 1 v 3 h 1 v 2 h 1 v 4 h -1 v 1 h -1 v 2 h -1 v 2 h -1 v 2 h -1 v 2 h -1 v 2 h -1 v 1 h -1 v 2 h -1 v 2 h -1 v 2 h -1 v 2 h -1 v 1 h -1 v 2 h -1 v 2 h -1 v 2 h -1 v 1 h -1 v 2 h -1 v 2 h -1 v 2 h -1 v 2 h -1 v 1 h -1 v 2 h -1 v 2 h -1 v 2 h -1 v 1 h -1 v 2 h -1 v 2 h -1 v 2 h -1 v 2 h -1 v 1 h -1 v 2 h -1 v 2 h -1 v 2 h -1 v 1 h -1 v 2 h -1 v 2 h -1 v 2 h -1 v 1 h -1 v 2 h -1 v 2 h -1 v 2 h -1 v 1 h -1 v 2 h -1 v 2 h -1 v 1 h -1 v 2 h -1 v 2 h -1 v 2 h -1 v 1 h -1 v 2 h -1 v 2 h -1 v 1 h -1 v 2 h -1 v 2 h -1 v 2 h -1 v 1 h -1 v 2 h -1 v 2 h -1 v 1 h -1 v 2 h -1 v 2 h -1 v 2 h -1 v 1 h -1 v 2 h -1 v 2 h -1 v 1 h -1 v 2 h -1 v 2 h -1 v 2 h -1 v 1 h -1 v 2 h -1 v 2 h -1 v 1 h -1 v 2 h -1 v 2 h -1 v 1 h -1 v 2 h -1 v 2 h -1 v 1 h -1 v 2 h -1 v 2 h -1 v 1 h -1 v 2 h -1 v 2 h -1 v 1 h -1 v 2 h -1 v 2 h -1 v 1 h -1 v 2 h -1 v 2 h -1 v 1 h -1 v 2 h -1 v 2 h -1 v 1 h -1 v 2 h -1 v 2 h -1 v 1 h -1 v 2 h -1 v 2 h -1 v 1 h -1 v 2 h -1 v 2 h -1 v 1 h -1 v 2 h -1 v 2 h -1 v 1 h -1 v 2 h -1 v 2 h -1 v 1 h -1 v 2 h -1 v 2 h -1 v 1 h -1 v 2 h -1 v 1 h -1 v 2 h -1 v 2 h -1 v 1 h -1 v 2 h -1 v 2 h -1 v 1 h -1 v 2 h -1 v 1 h -1 v 2 h -1 v 2 h -1 v 1 h -1 v 2 h -1 v 1 h -1 v 2 h -1 v 2 h -1 v 1 h -1 v 2 h -1 v 2 h -1 v 1 h -1 v 2 h -1 v 1 h -1 v 2 h -1 v 2 h -1 v 1 h -1 v 2 h -1 v 2 h -1 v 1 h -1 v 2 h -1 v 1 h -1 v 2 h -1 v 2 h -1 v 1 h -1 v 2 h -1 v 1 h -1 v 2 h -1 v 2 h -1 v 1 h -1 v 2 h -1 v 1 h -1 v 2 h -1 v 1 h -1 v 2 h -1 v 2 h -1 v 1 h -1 v 2 h -1 v 1 h -1 v 2 h -1 v 1 h -1 v 2 h -1 v 1 h -1 v 2 h -1 v 2 h -1 v 1 h -1 v 2 h -1 v 1 h -1 v 2 h -1 v 1 h -1 v 2 h -1 v 1 h -1 v 2 h -1 v 1 h -1 v 2 h -1 v 1 h -1 v 2 h -1 v 2 h -1 v 1 h -1 v 2 h -1 v 1 h -1 v 2 h -1 v 1 h -1 v 2 h -1 v 1 h -1 v 2 h -1 v 1 h -1 v 2 h -1 v 1 h -1 v 2 h -1 v 1 h -1 v 2 h -1 v 2 h -1 v 1 h -1 v 2 h -1 v 1 h -1 v 2 h -1 v 1 h -1 v 2 h -1 v 1 h -1 v 2 h -1 v 1 h -1 v 2 h -1 v 1 h -1 v 2 h -1 v 1 h -1 v 2 h -1 v 1 h -1 v 2 h -1 v 1 h -1 v 1 h -1 v 2 h -1 v 1 h -1 v 2 h -1 v 1 h -1 v 2 h -1 v 1 h -1 v 2 h -1 v 1 h -1 v 2 h -1 v 1 h -1 v 2 h -1 v 1 h -1 v 2 h -1 v 1 h -1 v 2 h -1 v 1 h -1 v 2 h -1 v 1 h -1 v 2 h -1 v 1 h -1 v 2 h -1 v 1 h -1 v 2 h -1 v 1 h -1 v 2 h -1 v 1 h -1 v 2 h -1 v 1 h -1 v 2 h -1 v 1 h -1 v 2 h -1 v 1 h -1 v 2 h -1 v 1 h -1 v 2 h -1 v 1 h -1 v 1 h -1 v 2 h -1 v 1 h -1 v 2 h -1 v 1 h -1 v 2 h -1 v 1 h -1 v 2 h -1 v 1 h -1 v 1 h -1 v 2 h -1 v 1 h -1 v 2 h -1 v 1 h -1 v 2 h -1 v 1 h -1 v 2 h -1 v 1 h -1 v 2 h -1 v 1 h -1 v 1 h -1 v 2 h -1 v 1 h -1 v 2 h -1 v 1 h -1 v 2 h -1 v 1 h -1 v 2 h -1 v 1 h -1 v 1 h -1 v 2 h -1 v 1 h -1 v 2 h -1 v 1 h -1 v 2 h -1 v 1 h -1 v 2 h -1 v 1 h -1 v 1 h -1 v 2 h -1 v 1 h -1 v 2 h -1 v 1 h -1 v 1 h -1 v 2 h -1 v 1 h -1 v 2 h -1 v 1 h -1 v 1 h -1 v 2 h -1 v 1 h -1 v 2 h -1 v 1 h -1 v 1 h -1 v 2 h -1 v 1 h -1 v 2 h -1 v 1 h -1 v 2 h -1 v 1 h -1 v 1 h -1 v 2 h -1 v 1 h -1 v 2 h -1 v 1 h -1 v 1 h -1 v 2 h -1 v 1 h -1 v 2 h -1 v 1 h -1 v 1 h -1 v 2 h -1 v 1 h -1 v 2 h -1 v 1 h -1 v 1 h -1 v 2 h -1 v 1 h -1 v 2 h -1 v 1 h -1 v 1 h -1 v 2 h -1 v 1 h -1 v 2 h -1 v 1 h -1 v 1 h -1 v 2 h -1 v 1 h -1 v 1 h -1 v 2 h -1 v 1 h -1 v 1 h -1 v 2 h -1 v 1 h -1 v 1 h -1 v 2 h -1 v 1 h -1 v 2 h -1 v 1 h -1 v 1 h -1 v 2 h -1 v 1 h -1 v 1 h -1 v 2 h -1 v 1 h -1 v 1 h -1 v 2 h -1 v 1 h -1 v 1 h -1 v 2 h -1 v 1 h -1 v 2 h -1 v 1 h -1 v 1 h -1 v 2 h -1 v 1 h -1 v 1 h -1 v 2 h -1 v 1 h -1 v 1 h -1 v 2 h -1 v 1 h -1 v 1 h -1 v 2 h -1 v 1 h -1 v 2 h -1 v 1 h -1 v 1 h -1 v 2 h -1 v 1 h -1 v 1 h -1 v 2 h -1 v 1 h -1 v 1 h -1 v 2 h -1 v 1 h -1 v 1 h -1 v 1 h -1 v 2 h -1 v 1 h -1 v 1 h -1 v 2 h -1 v 1 h -1 v 1 h -1 v 2 h -1 v 1 h -1 v 1 h -1 v 2 h -1 v 1 h -1 v 1 h -1 v 1 h -1 v 2 h -1 v 1 h -1 v 1 h -1 v 2 h -1 v 1 h -1 v 1 h -1 v 2 h -1 v 1 h -1 v 1 h -1 v 2 h -1 v 1 h -1 v 1 h -1 v 1 h -1 v 2 h -1 v 1 h -1 v 1 h -1 v 2 h -1 v 1 h -1 v 1 h -1 v 2 h -1 v 1 h -1 v 1 h -1 v 2 h -1 v 1 h -1 v 1 h -1 v 1 h -1 v 2 h -1 v 1 h -1 v 1 h -1 v 2 h -1 v 1 h -1 v 1 h -1 v 1 h -1 v 2 h -1 v 1 h -1 v 1 h -1 v 1 h -1 v 2 h -1 v 1 h -1 v 1 h -1 v 2 h -1 v 1 h -1 v 1 h -1 v 1 h -1 v 2 h -1 v 1 h -1 v 1 h -1 v 1 h -1 v 2 h -1 v 1 h -1 v 1 h -1 v 1 h -1 v 2 h -1 v 1 h -1 v 1 h -1 v 1 h -1 v 2 h -1 v 1 h -1 v 1 h -1 v 1 h -1 v 2 h -1 v 1 h -1 v 1 h -1 v 1 h -1 v 2 h -1 v 1 h -1 v 1 h -1 v 2 h -1 v 1 h -1 v 1 h -1 v 1 h -1 v 2 h -1 v 1 h -1 v 1 h -1 v 1 h -1 v 2 h -1 v 1 h -1 v 1 h -1 v 1 h -1 v 2 h -1 v 1 h -1 v 1 h -1 v 1 h -1 v 1 h -1 v 2 h -1 v 1 h -1 v 1 h -1 v 1 h -1 v 2 h -1 v 1 h -1 v 1 h -1 v 1 h -1 v 1 h -1 v 2 h -1 v 1 h -1 v 1 h -1 v 1 h -1 v 2 h -1 v 1 h -1 v 1 h -1 v 1 h -1 v 1 h -1 v 2 h -1 v 1 h -1 v 1 h -1 v 1 h -1 v 2 h -1 v 1 h -1 v 1 h -1 v 1 h -1 v 1 h -1 v 2 h -1 v 1 h -1 v 1 h -1 v 1 h -1 v 2 h -1 v 1 h -1 v 1 h -1 v 1 h -1 v 1 h -1 v 1 h -1 v 2 h -1 v 1 h -1 v 1 h -1 v 1 h -1 v 1 h -1 v 2 h -1 v 1 h -1 v 1 h 2 v -1 h 1 v -1 h 1 v -1 h 2 v -1 h 1 v -1 h 1 v -1 h 1 v -1 h 1 v -1 h 1 v -1 h 1 v -1 h 1 v -1 h 2 v -1 h 1 v -1 h 1 v -1 h 1 v -1 h 1 v -1 h 1 v -1 h 1 v -1 h 1 v -1 h 1 v -1 h 1 v -1 h 1 v -1 h 1 v -1 h 1 v -1 h 1 v -1 h 1 v -1 h 1 v -1 h 1 v -1 h 1 v -1 h 2 v -1 h 1 v -1 h 1 v -1 h 1 v -1 h 1 v -1 h 1 v -1 h 1 v -1 h 1 v -1 h 1 v -1 h 1 v -1 h 1 v -1 h 1 v -1 h 1 v -1 h 1 v -1 h 1 v -1 h 1 v -1 h 1 v -1 h 1 v -1 h 1 v -1 h 2 v -1 h 1 v -1 h 1 v -1 h 1 v -1 h 1 v -1 h 1 v -1 h 1 v -1 h 1 v -1 h 1 v -1 h 1 v -1 h 1 v -1 h 1 v -1 h 1 v -1 h 1 v -1 h 1 v -1 h 1 v -1 h 1 v -1 h 1 v -1 h 1 v -1 h 1 v -1 h 1 v -1 h 1 v -1 h 1 v -1 h 1 v -1 h 1 v -1 h 1 v -1 h 1 v -2 h 1 v -1 h 1 v -1 h 1 v -1 h 1 v -1 h 1 v -1 h 1 v -1 h 1 v -1 h 1 v -1 h 1 v -1 h 1 v -1 h 1 v -1 h 1 v -1 h 1 v -1 h 1 v -1 h 1 v -1 h 1 v -1 h 1 v -1 h 1 v -1 h 1 v -1 h 1 v -1 h 1 v -1 h 1 v -1 h 1 v -1 h 1 v -1 h 1 v -1 h 1 v -1 h 1 v -1 h 1 v -1 h 1 v -1 h 1 v -1 h 1 v -1 h 1 v -1 h 1 v -1 h 1 v -1 h 1 v -1 h 1 v -1 h 1 v -1 h 1 v -1 h 1 v -1 h 1 v -1 h 1 v -2 h 1 v -1 h 1 v -1 h 1 v -1 h 1 v -1 h 1 v -1 h 1 v -1 h 1 v -1 h 1 v -1 h 1 v -1 h 1 v -1 h 1 v -1 h 1 v -2 h 1 v -1 h 1 v -1 h 1 v -1 h 1 v -1 h 1 v -1 h 1 v -1 h 1 v -1 h 1 v -1 h 1 v -1 h 1 v -1 h 1 v -1 h 1 v -2 h 1 v -1 h 1 v -1 h 1 v -1 h 1 v -1 h 1 v -1 h 1 v -1 h 1 v -1 h 1 v -1 h 1 v -1 h 1 v -1 h 1 v -1 h 1 v -2 h 1 v -1 h 1 v -1 h 1 v -1 h 1 v -1 h 1 v -1 h 1 v -1 h 1 v -1 h 1 v -1 h 1 v -1 h 1 v -1 h 1 v -1 h 1 v -2 h 1 v -1 h 1 v -1 h 1 v -1 h 1 v -1 h 1 v -1 h 1 v -1 h 1 v -1 h 1 v -2 h 1 v -1 h 1 v -1 h 1 v -1 h 1 v -1 h 1 v -1 h 1 v -1 h 1 v -1 h 1 v -2 h 1 v -1 h 1 v -1 h 1 v -1 h 1 v -1 h 1 v -1 h 1 v -1 h 1 v -1 h 1 v -2 h 1 v -1 h 1 v -1 h 1 v -1 h 1 v -1 h 1 v -1 h 1 v -1 h 1 v -2 h 1 v -1 h 1 v -1 h 1 v -1 h 1 v -1 h 1 v -1 h 1 v -1 h 1 v -1 h 1 v -2 h 1 v -1 h 1 v -1 h 1 v -1 h 1 v -1 h 1 v -1 h 1 v -1 h 1 v -2 h 1 v -1 h 1 v -1 h 1 v -1 h 1 v -1 h 1 v -1 h 1 v -2 h 1 v -1 h 1 v -1 h 1 v -1 h 1 v -1 h 1 v -1 h 1 v -2 h 1 v -1 h 1 v -1 h 1 v -1 h 1 v -1 h 1 v -2 h 1 v -1 h 1 v -1 h 1 v -1 h 1 v -1 h 1 v -1 h 1 v -2 h 1 v -1 h 1 v -1 h 1 v -1 h 1 v -2 h 1 v -1 h 1 v -1 h 1 v -1 h 1 v -1 h 1 v -2 h 1 v -1 h 1 v -1 h 1 v -1 h 1 v -1 h 1 v -2 h 1 v -1 h 1 v -1 h 1 v -1 h 1 v -1 h 1 v -2 h 1 v -1 h 1 v -1 h 1 v -1 h 1 v -2 h 1 v -1 h 1 v -1 h 1 v -1 h 1 v -1 h 1 v -2 h 1 v -1 h 1 v -1 h 1 v -1 h 1 v -1 h 1 v -2 h 1 v -1 h 1 v -1 h 1 v -1 h 1 v -2 h 1 v -1 h 1 v -1 h 1 v -1 h 1 v -2 h 1 v -1 h 1 v -1 h 1 v -1 h 1 v -2 h 1 v -1 h 1 v -1 h 1 v -1 h 1 v -2 h 1 v -1 h 1 v -1 h 1 v -1 h 1 v -2 h 1 v -1 h 1 v -1 h 1 v -1 h 1 v -2 h 1 v -1 h 1 v -1 h 1 v -2 h 1 v -1 h 1 v -1 h 1 v -1 h 1 v -2 h 1 v -1 h 1 v -1 h 1 v -1 h 1 v -2 h 1 v -1 h 1 v -1 h 1 v -1 h 1 v -2 h 1 v -1 h 1 v -1 h 1 v -1 h 1 v -2 h 1 v -1 h 1 v -1 h 1 v -1 h 1 v -2 h 1 v -1 h 1 v -1 h 1 v -1 h 1 v -2 h 1 v -1 h 1 v -1 h 1 v -2 h 1 v -1 h 1 v -1 h 1 v -1 h 1 v -2 h 1 v -1 h 1 v -1 h 1 v -2 h 1 v -1 h 1 v -1 h 1 v -2 h 1 v -1 h 1 v -1 h 1 v -2 h 1 v -1 h 1 v -1 h 1 v -2 h 1 v -1 h 1 v -1 h 1 v -2 h 1 v -1 h 1 v -1 h 1 v -2 h 1 v -1 h 1 v -1 h 1 v -2 h 1 v -1 h 1 v -1 h 1 v -2 h 1 v -1 h 1 v -1 h 1 v -1 h 1 v -2 h 1 v -1 h 1 v -1 h 1 v -2 h 1 v -1 h 1 v -1 h 1 v -2 h 1 v -1 h 1 v -1 h 1 v -2 h 1 v -1 h 1 v -1 h 1 v -2 h 1 v -1 h 1 v -1 h 1 v -2 h 1 v -1 h 1 v -1 h 1 v -2 h 1 v -1 h 1 v -1 h 1 v -2 h 1 v -1 h 1 v -2 h 1 v -1 h 1 v -1 h 1 v -2 h 1 v -1 h 1 v -1 h 1 v -2 h 1 v -1 h 1 v -2 h 1 v -1 h 1 v -1 h 1 v -2 h 1 v -1 h 1 v -2 h 1 v -1 h 1 v -1 h 1 v -2 h 1 v -1 h 1 v -1 h 1 v -2 h 1 v -1 h 1 v -2 h 1 v -1 h 1 v -1 h 1 v -2 h 1 v -1 h 1 v -1 h 1 v -2 h 1 v -1 h 1 v -2 h 1 v -1 h 1 v -1 h 1 v -2 h 1 v -1 h 1 v -2 h 1 v -1 h 1 v -2 h 1 v -1 h 1 v -1 h 1 v -2 h 1 v -1 h 1 v -2 h 1 v -1 h 1 v -2 h 1 v -1 h 1 v -1 h 1 v -2 h 1 v -1 h 1 v -2 h 1 v -1 h 1 v -2 h 1 v -1 h 1 v -1 h 1 v -2 h 1 v -1 h 1 v -2 h 1 v -1 h 1 v -2 h 1 v -1 h 1 v -2 h 1 v -1 h 1 v -2 h 1 v -1 h 1 v -2 h 1 v -1 h 1 v -1 h 1 v -2 h 1 v -1 h 1 v -2 h 1 v -1 h 1 v -2 h 1 v -1 h 1 v -2 h 1 v -1 h 1 v -2 h 1 v -1 h 1 v -2 h 1 v -1 h 1 v -2 h 1 v -1 h 1 v -2 h 1 v -1 h 1 v -1 h 1 v -2 h 1 v -1 h 1 v -2 h 1 v -1 h 1 v -2 h 1 v -1 h 1 v -2 h 1 v -1 h 1 v -2 h 1 v -2 h 1 v -1 h 1 v -2 h 1 v -1 h 1 v -2 h 1 v -1 h 1 v -2 h 1 v -1 h 1 v -2 h 1 v -1 h 1 v -2 h 1 v -1 h 1 v -2 h 1 v -1 h 1 v -2 h 1 v -1 h 1 v -2 h 1 v -2 h 1 v -1 h 1 v -2 h 1 v -1 h 1 v -2 h 1 v -1 h 1 v -2 h 1 v -1 h 1 v -2 h 1 v -1 h 1 v -2 h 1 v -1 h 1 v -2 h 1 v -1 h 1 v -2 h 1 v -1 h 1 v -2 h 1 v -2 h 1 v -1 h 1 v -2 h 1 v -1 h 1 v -2 h 1 v -1 h 1 v -2 h 1 v -1 h 1 v -2 h 1 v -2 h 1 v -1 h 1 v -2 h 1 v -2 h 1 v -1 h 1 v -2 h 1 v -1 h 1 v -2 h 1 v -2 h 1 v -1 h 1 v -2 h 1 v -1 h 1 v -2 h 1 v -2 h 1 v -1 h 1 v -2 h 1 v -1 h 1 v -2 h 1 v -2 h 1 v -1 h 1 v -2 h 1 v -2 h 1 v -1 h 1 v -2 h 1 v -1 h 1 v -2 h 1 v -2 h 1 v -1 h 1 v -2 h 1 v -1 h 1 v -2 h 1 v -2 h 1 v -1 h 1 v -2 h 1 v -1 h 1 v -2 h 1 v -2 h 1 v -1 h 1 v -2 h 1 v -2 h 1 v -1 h 1 v -2 h 1 v -2 h 1 v -1 h 1 v -2 h 1 v -2 h 1 v -1 h 1 v -2 h 1 v -2 h 1 v -2 h 1 v -1 h 1 v -2 h 1 v -2 h 1 v -1 h 1 v -2 h 1 v -2 h 1 v -1 h 1 v -2 h 1 v -2 h 1 v -1 h 1 v -2 h 1 v -2 h 1 v -2 h 1 v -1 h 1 v -2 h 1 v -2 h 1 v -1 h 1 v -2 h 1 v -2 h 1 v -1 h 1 v -2 h 1 v -2 h 1 v -2 h 1 v -1 h 1 v -2 h 1 v -2 h 1 v -1 h 1 v -2 h 1 v -2 h 1 v -1 h 1 v -2 h 1 v -2 h 1 v -2 h 1 v -2 h 1 v -1 h 1 v -2 h 1 v -2 h 1 v -2 h 1 v -1 h 1 v -2 h 1 v -2 h 1 v -2 h 1 v -2 h 1 v -1 h 1 v -2 h 1 v -2 h 1 v -2 h 1 v -2 h 1 v -1 h 1 v -2 h 1 v -2 h 1 v -2 h 1 v -1 h 1 v -2 h 1 v -2 h 1 v -2 h 1 v -2 h 1 v -1 h 1 v -2 h 1 v -2 h 1 v -2 h 1 v -2 h 1 v -1 h 1 v -2 h 1 v -2 h 1 v -2 h 1 v -1 h 1 v -2 h 1 v -2 h 1 v -2 h 1 v -2 h 1 v -2 h 1 v -2 h 1 v -1 h 1 v -2 h 1 v -2 h 1 v -2 h 1 v -2 h 1 v -2 h 1 v -2 h 1 v -2 h 1 v -2 h 1 v -1 h 1 v -2 h 1 v -2 h 1 v -2 h 1 v -2 h 1 v -2 h 1 v -2 h 1 v -2 h 1 v -2 h 1 v -1 h 1 v -2 h 1 v -2 h 1 v -2 h 1 v -2 h 1 v -2 h 1 v -2 h 1 v -2 h 1 v -2 h 1 v -1 h 1 v -2 h 1 v -2 h 1 v -2 h 1 v -2 h 1 v -2 h 1 v -2 h 1 v -2 h 1 v -2 h 1 v -2 h 1 v -2 h 1 v -2 h 1 v -2 h 1 v -2 h 1 v -2 h 1 v -2 h 1 v -2 h 1 v -2 h 1 v -2 h 1 v -2 h 1 v -2 h 1 v -2 h 1 v -2 h 1 v -2 h 1 v -2 h 1 v -2 h 1 v -2 h 1 v -2 h 1 v -2 h 1 v -2 h 1 v -2 h 1 v -2 h 1 v -2 h 1 v -2 h 1 v -2 h 1 v -2 h 1 v -2 h 1 v -2 h 1 v -2 h 1 v -2 h 1 v -2 h 1 v -2 h 1 v -2 h 1 v -2 h 1 v -2 h 1 v -2 h 1 v -2 h 1 v -2 h 1 v -2 h 1 v -2 h 1 v -2 h 1 v -2 h 1 v -2 h 1 v -2 h 1 v -3 h 1 v -2 h 1 v -2 h 1 v -2 h 1 v -2 h 1 v -2 h 1 v -2 h 1 v -2 h 1 v -2 h 1 v -2 h 1 v -3 h 1 v -2 h 1 v -2 h 1 v -2 h 1 v -2 h 1 v -2 h 1 v -2 h 1 v -2 h 1 v -3 h 1 v -2 h 1 v -2 h 1 v -2 h 1 v -2 h 1 v -2 h 1 v -3 h 1 v -2 h 1 v -2 h 1 v -2 h 1 v -3 h 1 v -2 h 1 v -2 h 1 v -3 h 1 v -2 h 1 v -2 h 1 v -2 h 1 v -3 h 1 v -2 h 1 v -2 h 1 v -3 h 1 v -2 h 1 v -2 h 1 v -3 h 1 v -2 h 1 v -2 h 1 v -3 h 1 v -2 h 1 v -2 h 1 v -3 h 1 v -2 h 1 v -2 h 1 v -2 h 1 v -3 h 1 v -2 h 1 v -2 h 1 v -3 h 1 v -2 h 1 v -2 h 1 v -3 h 1 v -2 h 1 v -3 h 1 v -2 h 1 v -3 h 1 v -2 h 1 v -2 h 1 v -3 h 1 v -2 h 1 v -3 h 1 v -2 h 1 v -2 h 1 v -3 h 1 v -2 h 1 v -3 h 1 v -2 h 1 v -3 h 1 v -2 h 1 v -2 h 1 v -3 h 1 v -2 h 1 v -3 h 1 v -2 h 1 v -2 h 1 v -3 h 1 v -2 h 1 v -3 h 1 v -2 h 1 v -3 h 1 v -2 h 1 v -3 h 1 v -2 h 1 v -3 h 1 v -2 h 1 v -3 h 1 v -2 h 1 v -3 h 1 v -3 h 1 v -2 h 1 v -3 h 1 v -2 h 1 v -3 h 1 v -3 h 1 v -2 h 1 v -3 h 1 v -2 h 1 v -3 h 1 v -3 h 1 v -2 h 1 v -3 h 1 v -2 h 1 v -3 h 1 v -2 h 1 v -3 h 1 v -3 h 1 v -2 h 1 v -3 h 1 v -2 h 1 v -3 h 1 v -3 h 1 v -3 h 1 v -2 h 1 v -3 h 1 v -3 h 1 v -3 h 1 v -3 h 1 v -2 h 1 v -3 h 1 v -3 h 1 v -3 h 1 v -2 h 1 v -3 h 1 v -3 h 1 v -3 h 1 v -3 h 1 v -2 h 1 v -3 h 1 v -3 h 1 v -3 h 1 v -3 h 1 v -3 h 1 v -3 h 1 v -3 h 1 v -3 h 1 v -3 h 1 v -3 h 1 v -3 h 1 v -3 h 1 v -3 h 1 v -3 h 1 v -3 h 1 v -3 h 1 v -3 h 1 v -4 h 1 v -3 h 1 v -3 h 1 v -3 h 1 v -3 h 1 v -3 h 1 v -4 h 1 v -3 h 1 v -3 h 1 v -3 h 1 v -3 h 1 v -3 h 1 v -4 h 1 v -3 h 1 v -3 h 1 v -3 h 1 v -3 h 1 v -3 h 1 v -4 h 1 v -3 h 1 v -4 h 1 v -3 h 1 v -3 h 1 v -4 h 1 v -3 h 1 v -3 h 1 v -4 h 1 v -3 h 1 v -3 h 1 v -4 h 1 v -3 h 1 v -4 h 1 v -3 h 1 v -3 h 1 v -4 h 1 v -3 h 1 v -3 h 1 v -4 h 1 v -3 h 1 v -3 h 1 v -4 h 1 v -4 h 1 v -3 h 1 v -4 h 1 v -4 h 1 v -4 h 1 v -3 h 1 v -4 h 1 v -4 h 1 v -4 h 1 v -4 h 1 v -3 h 1 v -4 h 1 v -4 h 1 v -4 h 1 v -3 h 1 v -4 h 1 v -4 h 1 v -4 h 1 v -3 h 1 v -4 h 1 v -4 h 1 v -4 h 1 v -5 h 1 v -4 h 1 v -4 h 1 v -4 h 1 v -5 h 1 v -4 h 1 v -4 h 1 v -5 h 1 v -4 h 1 v -4 h 1 v -4 h 1 v -5 h 1 v -5 h 1 v -4 h 1 v -5 h 1 v -5 h 1 v -5 h 1 v -4 h 1 v -5 h 1 v -5 h 1 v -4 h 1 v -5 h 1 v -5 h 1 v -4 h 1 v -5 h 1 v -5 h 1 v -5 h 1 v -6 h 1 v -5 h 1 v -5 h 1 v -5 h 1 v -6 h 1 v -6 h 1 v -6 h 1 v -5 h 1 v -6 h 1 v -6 h 1 v -5 h 1 v -6 h 1 v -6 h 1 v -5 h 1 v -6 h 1 v -5 h 1 v -6 h 1 v -6 h 1 v -5 h 1 v -8 h 1 v -8 h 1 v -8 h 1 v -7 h 1 v -8 h 1 v -7 h 1 v -8 h 1 v -7 h 1 v -7 h 1 v -8 h 1 v -7 h 1 v -8 h 1 v -9 h 1 v -8 h 1 v -8 h 1 v -9 h 1 v -10 h 1 v -10 h 1 v -12 h 1 v -12 h 1 v -10 h 1 v -13 h 1 v -15 h 1 v -14 h 1 v -15 h 1 v -21 h 1 v -29 h 1 v -28 h 1 V 65 h -1 V 23 h -1 V 0 Z m -605,1039 v -1 h 356 v 2 h -1 v 3 h -1 v 2 h -1 v 3 h -1 v 2 h -1 v 3 h -1 v 2 h -1 v 3 h -1 v 2 h -1 v 2 h -1 v 3 h -1 v 2 h -1 v 3 h -1 v 2 h -1 v 3 h -1 v 2 h -1 v 3 h -1 v 2 h -1 v 2 h -1 v 3 h -1 v 2 h -1 v 3 h -1 v 2 h -1 v 2 h -1 v 3 h -1 v 2 h -1 v 2 h -1 v 3 h -1 v 2 h -1 v 3 h -1 v 2 h -1 v 2 h -1 v 3 h -1 v 2 h -1 v 3 h -1 v 2 h -1 v 2 h -1 v 3 h -1 v 2 h -1 v 2 h -1 v 2 h -1 v 3 h -1 v 2 h -1 v 2 h -1 v 3 h -1 v 2 h -1 v 2 h -1 v 2 h -1 v 3 h -1 v 2 h -1 v 2 h -1 v 3 h -1 v 2 h -1 v 2 h -1 v 3 h -1 v 2 h -1 v 2 h -1 v 2 h -1 v 3 h -1 v 2 h -1 v 2 h -1 v 2 h -1 v 3 h -1 v 2 h -1 v 2 h -1 v 2 h -1 v 2 h -1 v 3 h -1 v 2 h -1 v 2 h -1 v 2 h -1 v 3 h -1 v 2 h -1 v 2 h -1 v 2 h -1 v 2 h -1 v 3 h -1 v 2 h -1 v 2 h -1 v 2 h -1 v 2 h -1 v 3 h -1 v 2 h -1 v 2 h -1 v 2 h -1 v 3 h -1 v 2 h -1 v 2 h -1 v 2 h -1 v 2 h -1 v 2 h -1 v 2 h -1 v 3 h -1 v 2 h -1 v 2 h -1 v 2 h -1 v 2 h -1 v 2 h -1 v 2 h -1 v 3 h -1 v 2 h -1 v 2 h -1 v 2 h -1 v 2 h -1 v 2 h -1 v 2 h -1 v 2 h -1 v 2 h -1 v 3 h -1 v 2 h -1 v 2 h -1 v 2 h -1 v 2 h -1 v 2 h -1 v 2 h -1 v 2 h -1 v 2 h -1 v 2 h -1 v 2 h -1 v 2 h -1 v 2 h -1 v 2 h -1 v 2 h -1 v 2 h -1 v 3 h -1 v 2 h -1 v 2 h -1 v 2 h -1 v 2 h -1 v 2 h -1 v 2 h -1 v 2 h -1 v 2 h -1 v 2 h -1 v 2 h -1 v 2 h -1 v 2 h -1 v 2 h -1 v 2 h -1 v 2 h -1 v 2 h -1 v 2 h -1 v 2 h -1 v 2 h -1 v 2 h -1 v 1 h -1 v 2 h -1 v 2 h -1 v 2 h -1 v 2 h -1 v 2 h -1 v 2 h -1 v 2 h -1 v 2 h -1 v 2 h -1 v 2 h -1 v 2 h -1 v 2 h -1 v 2 h -1 v 2 h -1 v 2 h -1 v 2 h -1 v 2 h -1 v 2 h -1 v 2 h -1 v 1 h -1 v 2 h -1 v 2 h -1 v 2 h -1 v 2 h -1 v 2 h -1 v 2 h -1 v 2 h -1 v 2 h -1 v 2 h -1 v 2 h -1 v 1 h -1 v 2 h -1 v 2 h -1 v 2 h -1 v 2 h -1 v 2 h -1 v 2 h -1 v 2 h -1 v 1 h -1 v 2 h -1 v 2 h -1 v -3 h -1 v -2 h -1 v -2 h -1 v -3 h -1 v -2 h -1 v -3 h -1 v -2 h -1 v -2 h -1 v -3 h -1 v -2 h -1 v -2 h -1 v -3 h -1 v -2 h -1 v -2 h -1 v -3 h -1 v -2 h -1 v -3 h -1 v -2 h -1 v -2 h -1 v -3 h -1 v -2 h -1 v -2 h -1 v -3 h -1 v -2 h -1 v -3 h -1 v -2 h -1 v -2 h -1 v -3 h -1 v -2 h -1 v -2 h -1 v -3 h -1 v -2 h -1 v -3 h -1 v -2 h -1 v -2 h -1 v -3 h -1 v -2 h -1 v -2 h -1 v -3 h -1 v -2 h -1 v -3 h -1 v -2 h -1 v -2 h -1 v -3 h -1 v -2 h -1 v -2 h -1 v -3 h -1 v -2 h -1 v -3 h -1 v -2 h -1 v -2 h -1 v -3 h -1 v -2 h -1 v -2 h -1 v -3 h -1 v -2 h -1 v -3 h -1 v -2 h -1 v -2 h -1 v -3 h -1 v -2 h -1 v -2 h -1 v -3 h -1 v -2 h -1 v -2 h -1 v -3 h -1 v -2 h -1 v -3 h -1 v -2 h -1 v -2 h -1 v -3 h -1 v -2 h -1 v -2 h -1 v -3 h -1 v -2 h -1 v -3 h -1 v -2 h -1 v -2 h -1 v -3 h -1 v -2 h -1 v -2 h -1 v -3 h -1 v -2 h -1 v -3 h -1 v -2 h -1 v -2 h -1 v -3 h -1 v -2 h -1 v -2 h -1 v -3 h -1 v -2 h -1 v -3 h -1 v -2 h -1 v -2 h -1 v -3 h -1 v -2 h -1 v -2 h -1 v -3 h -1 v -2 h -1 v -3 h -1 v -2 h -1 v -2 h -1 v -3 h -1 v -2 h -1 v -2 h -1 v -3 h -1 v -2 h -1 v -3 h -1 v -2 h -1 v -2 h -1 v -3 h -1 v -2 h -1 v -2 h -1 v -3 h -1 v -2 h -1 v -2 h -1 v -3 h -1 v -2 h -1 v -3 h -1 v -2 h -1 v -2 h -1 v -3 h -1 v -2 h -1 v -2 h -1 v -3 h -1 v -2 h -1 v -3 h -1 v -2 h -1 v -2 h -1 v -3 h -1 v -2 h -1 v -2 h -1 v -3 h -1 v -2 h -1 v -3 h -1 v -2 h -1 v -2 h -1 v -3 h -1 v -2 h -1 v -2 h -1 v -3 h -1 v -2 h -1 v -3 h -1 v -2 h -1 v -2 h -1 v -3 h -1 v -2 h -1 v -2 h -1 v -3 h -1 v -2 h -1 v -3 h -1 v -2 h -1 v -2 h -1 v -3 h -1 v -2 h -1 v -2 h -1 v -3 h -1 v -2 h -1 v -2 h -1 v -3 h -1 v -2 h -1 v -3 h -1 v -2 h -1 v -2 h -1 v -3 h -1 v -2 h -1 v -2 h -1 v -3 h -1 v -2"
               style="fill:url(#linearGradient122);fill-opacity:1;fill-rule:nonzero;stroke:none"
               id="path124" /></g></g></g></g></g></svg>
