<?xml version="1.0" encoding="UTF-8"?>
<svg width="24px" height="24px" viewBox="0 0 24 24" version="1.1" xmlns="http://www.w3.org/2000/svg" xmlns:xlink="http://www.w3.org/1999/xlink">
    <title>icon/cycle</title>
    <defs>
        <path d="M7.375,0.5 C7.78925,0.5 8,0.83575 8,1.25 L8,1.25 L8,6.5 C8,6.91425 7.66425,7.25 7.25,7.25 C6.83575,7.25 6.5,6.91425 6.5,6.5 L6.5,6.5 L6.5,3.0665 C3.50375,4.9175 1.5,8.22675 1.5,12 C1.5,17.78975 6.21025,22.5 12,22.5 L12,22.5 L12,24 C5.3725,24 0,18.6275 0,12 C0,7.82325 2.13625,4.14875 5.3735,2 L5.3735,2 L2.125,2 C1.71075,2 1.375,1.66425 1.375,1.25 C1.375,0.83575 1.71075,0.5 2.125,0.5 L2.125,0.5 Z M12,0 C18.6275,0 24,5.3725 24,12 C24,16.0185 22.0225,19.5725 18.9895,21.75 L18.9895,21.75 L21.75,21.75 C22.16425,21.75 22.5,22.08575 22.5,22.5 C22.5,22.91425 22.16425,23.25 21.75,23.25 L21.75,23.25 L16.5,23.25 C16.08575,23.25 15.75,22.91425 15.75,22.5 L15.75,22.5 L15.75,17.25 C15.75,16.83575 16.08575,16.5 16.5,16.5 C16.91425,16.5 17.25,16.83575 17.25,17.25 L17.25,17.25 L17.25,21.088 C20.3855,19.27 22.5,15.878 22.5,12 C22.5,6.21025 17.78975,1.5 12,1.5 L12,1.5 Z" id="path-1"></path>
    </defs>
    <g id="icon/cycle" stroke="none" stroke-width="1" fill="none" fill-rule="evenodd">
        <mask id="mask-2" fill="white">
            <use xlink:href="#path-1"></use>
        </mask>
        <use id="symbol" fill="#454545" fill-rule="nonzero" xlink:href="#path-1"></use>
        <g id="Group" mask="url(#mask-2)" fill="#475DA7">
            <g id="colour">
                <rect id="Rectangle" x="0" y="0" width="24" height="24"></rect>
            </g>
        </g>
    </g>
</svg>