<svg xmlns="http://www.w3.org/2000/svg" xmlns:xlink="http://www.w3.org/1999/xlink" width="24" height="24" viewBox="0 0 24 24">
    <defs>
        <path id="a4qz375iwb" d="M0 0H690V196H0z"/>
        <path id="f090ebxd0c" d="M15.879 1.707c1.171-1.172 3.07-1.172 4.242 0l2.172 2.172c1.172 1.171 1.172 3.07 0 4.242L8.481 21.934.783 23.217l1.283-7.698zM3.665 18.079l-.449 2.704 2.702-.45-2.253-2.254zM14.5 5.913L4.413 16l3.585 3.585L18.085 9.5 14.5 5.913zm4.208-2.792c-.39-.39-1.023-.39-1.414 0L15.913 4.5 19.5 8.085l1.38-1.378c.33-.33.381-.834.152-1.218l-.069-.102-.083-.094z"/>
        <filter id="cym74o92ja" width="101.4%" height="105.1%" x="-.6%" y="-2%" filterUnits="objectBoundingBox">
            <feOffset dx="1" dy="1" in="SourceAlpha" result="shadowOffsetOuter1"/>
            <feGaussianBlur in="shadowOffsetOuter1" result="shadowBlurOuter1" stdDeviation="1.5"/>
            <feColorMatrix in="shadowBlurOuter1" values="0 0 0 0 0 0 0 0 0 0 0 0 0 0 0 0 0 0 0.0917012675 0"/>
        </filter>
    </defs>
    <g fill="none" fill-rule="evenodd">
        <g transform="translate(-428 3)">
            <use fill="#000" filter="url(#cym74o92ja)" xlink:href="#a4qz375iwb"/>
            <use fill="#FFF" xlink:href="#a4qz375iwb"/>
        </g>
        <mask id="zu7gayirgd" fill="#fff">
            <use xlink:href="#f090ebxd0c"/>
        </mask>
        <use fill="#111" fill-rule="nonzero" xlink:href="#f090ebxd0c"/>
        <g fill="#53575a" mask="url(#zu7gayirgd)">
            <path d="M0 0H24V24H0z"/>
        </g>
    </g>
</svg>
