<?xml version="1.0" encoding="UTF-8"?>
<svg width="24px" height="24px" viewBox="0 0 24 24" version="1.1" xmlns="http://www.w3.org/2000/svg" xmlns:xlink="http://www.w3.org/1999/xlink">
    <title>icon/external link</title>
    <defs>
        <path d="M8,7 L8,9 L3,9 L3,21 L17,21 L17,14 L19,14 L19,23 L1,23 L1,7 L8,7 Z M18,0.585786438 L23.4142136,6 L18,11.4142136 L16.5857864,10 L19.585,6.99978644 L19,7 C14.1181973,7 10.1442086,10.8868137 10.0038371,15.7346377 L10,16 L8,16 C8,10.0212984 12.7697636,5.15663482 18.7115925,5.0037074 L19,5 L19.585,4.99978644 L16.5857864,2 L18,0.585786438 Z" id="path-1"></path>
    </defs>
    <g id="icon/external-link" stroke="none" stroke-width="1" fill="none" fill-rule="evenodd">
        <mask id="mask-2" fill="white">
            <use xlink:href="#path-1"></use>
        </mask>
        <use id="Combined-Shape" fill="#000000" fill-rule="nonzero" xlink:href="#path-1"></use>
        <g id="colour/purple" mask="url(#mask-2)" fill="#475DA7">
            <rect id="Rectangle" x="0" y="0" width="24" height="24"></rect>
        </g>
    </g> 
</svg>