<svg xmlns="http://www.w3.org/2000/svg" xmlns:xlink="http://www.w3.org/1999/xlink" width="24" height="24" viewBox="0 0 24 24">
    <defs>
        <path id="swoknfdapa" d="M21 1.586L22.414 3l-3.679 3.679c.416.343.824.715 1.222 1.114.808.807 1.522 1.67 2.138 2.532.28.391.495.72.645.964l.128.215.284.496-.284.496c-.105.185-.278.462-.515.81l-.258.369c-.616.863-1.33 1.725-2.138 2.532C17.6 18.565 14.934 20 12 20c-1.799 0-3.496-.54-5.084-1.5L3 22.414 1.586 21l3.68-3.678c-.417-.344-.824-.716-1.223-1.115-.808-.807-1.522-1.67-2.138-2.532-.372-.521-.632-.932-.773-1.179L.848 12l.284-.496c.105-.185.278-.462.515-.81l.258-.369c.616-.863 1.33-1.725 2.138-2.532C6.4 5.435 9.066 4 12 4c1.799 0 3.497.54 5.085 1.5L21 1.587zM17.313 8.1l-1.867 1.867c.352.595.554 1.29.554 2.032 0 2.21-1.79 4-4 4-.742 0-1.437-.202-2.032-.554l-1.585 1.585C9.549 17.66 10.759 18 12 18c2.316 0 4.525-1.19 6.543-3.207.724-.724 1.369-1.502 1.925-2.28.096-.136.187-.267.271-.392L20.82 12l-.081-.121-.271-.392c-.556-.778-1.201-1.556-1.925-2.28-.403-.402-.813-.772-1.23-1.106zM12 6C9.684 6 7.475 7.19 5.457 9.207c-.724.724-1.369 1.502-1.925 2.28-.096.136-.187.267-.271.392L3.179 12l.082.121.271.392c.556.778 1.201 1.556 1.925 2.28.403.403.813.773 1.23 1.107l1.867-1.868C8.202 13.437 8 12.742 8 12c0-2.21 1.79-4 4-4 .742 0 1.437.202 2.032.554l1.585-1.585C14.451 6.34 13.241 6 12 6zm1.932 5.482l-2.45 2.45c.165.044.339.068.518.068 1.105 0 2-.895 2-2 0-.18-.024-.353-.068-.518zM12 10c-1.105 0-2 .895-2 2 0 .18.024.353.068.518l2.45-2.45C12.353 10.024 12.179 10 12 10z"/>
    </defs>
    <g fill="none" fill-rule="evenodd">
        <g>
            <mask id="zi5oz4rceb" fill="#fff">
                <use xlink:href="#swoknfdapa"/>
            </mask>
            <use fill="#000" fill-rule="nonzero" xlink:href="#swoknfdapa"/>
            <g fill="#475DA7" mask="url(#zi5oz4rceb)">
                <g>
                    <path d="M0 0H24V24H0z"/>
                </g>
            </g>
        </g>
    </g>
</svg>
