<svg xmlns="http://www.w3.org/2000/svg" xmlns:xlink="http://www.w3.org/1999/xlink" width="24" height="24" viewBox="0 0 24 24">
    <defs>
        <path id="qyzj490uea" d="M12 4c2.934 0 5.6 1.435 7.957 3.793.808.807 1.522 1.67 2.138 2.532.28.391.495.72.645.964l.128.215.284.496-.284.496c-.105.185-.278.462-.515.81l-.258.369c-.616.863-1.33 1.725-2.138 2.532C17.6 18.565 14.934 20 12 20s-5.6-1.435-7.957-3.793c-.808-.807-1.522-1.67-2.138-2.532-.372-.521-.632-.932-.773-1.179L.848 12l.284-.496c.105-.185.278-.462.515-.81l.258-.369c.616-.863 1.33-1.725 2.138-2.532C6.4 5.435 9.066 4 12 4zm0 2C9.684 6 7.475 7.19 5.457 9.207c-.724.724-1.369 1.502-1.925 2.28-.096.136-.187.267-.271.392L3.179 12l.082.121.271.392c.556.778 1.201 1.556 1.925 2.28C7.475 16.81 9.684 18 12 18s4.525-1.19 6.543-3.207c.724-.724 1.369-1.502 1.925-2.28.096-.136.187-.267.271-.392L20.82 12l-.081-.121-.271-.392c-.556-.778-1.201-1.556-1.925-2.28C16.525 7.19 14.316 6 12 6zm0 2c2.21 0 4 1.79 4 4s-1.79 4-4 4-4-1.79-4-4 1.79-4 4-4zm0 2c-1.105 0-2 .895-2 2s.895 2 2 2 2-.895 2-2-.895-2-2-2z"/>
    </defs>
    <g fill="none" fill-rule="evenodd">
        <g>
            <mask id="gzi4e8iesb" fill="#fff">
                <use xlink:href="#qyzj490uea"/>
            </mask>
            <use fill="#111" fill-rule="nonzero" xlink:href="#qyzj490uea"/>
            <g fill="#475DA7" mask="url(#gzi4e8iesb)">
                <g>
                    <path d="M0 0H24V24H0z"/>
                </g>
            </g>
        </g>
    </g>
</svg>
