<svg xmlns="http://www.w3.org/2000/svg" xmlns:xlink="http://www.w3.org/1999/xlink" width="24" height="24" viewBox="0 0 24 24">
    <defs>
        <path id="9v7dk28sja" d="M2.664 4.433l10.503 18.131-1.731 1.003L.933 5.436l1.731-1.003zM17.551.11l5.414 9.599-.597.536c-1.196 1.074-2.51 1.59-4.1 1.75-.45.045-.827.061-1.418.063l-.95-.005c-2.717-.002-3.666.37-4.73 2.242l-.873 1.535-5.549-9.836.287-.495c1.546-2.666 3.18-3.218 6.768-3.21h.43c.295-.002.51-.005.71-.012l.297-.015c1.441-.086 2.45-.437 3.383-1.297L17.55.11zm-.556 3.085l-.216.133c-.998.579-2.103.852-3.42.93-.23.014-.435.022-.686.026l-.42.004h-.733c-2.458.016-3.487.32-4.439 1.71l-.019.029 3.323 5.89.144-.16c1.252-1.35 2.785-1.702 5.364-1.704l.529.003c.576.004.94 0 1.274-.02l.372-.031c.825-.083 1.518-.281 2.15-.65l.186-.116-3.409-6.044z"/>
    </defs>
    <g fill="none" fill-rule="evenodd">
        <g>
            <g>
                <g transform="translate(-698 -532) translate(66 301) translate(632 231)">
                    <mask id="d1yoc5kcqb" fill="#fff">
                        <use xlink:href="#9v7dk28sja"/>
                    </mask>
                    <use fill="#111" fill-rule="nonzero" xlink:href="#9v7dk28sja"/>
                    <g fill="#DC3645" mask="url(#d1yoc5kcqb)">
                        <path d="M0 0H24V24H0z"/>
                    </g>
                </g>
            </g>
        </g>
    </g>
</svg>
