<svg width="32" height="32" xmlns="http://www.w3.org/2000/svg">

 <title/>
 <g>
  <title>background</title>
  <rect fill="none" id="canvas_background" height="402" width="582" y="-1" x="-1"/>
 </g>
 <g>
  <title>Layer 1</title>
  <path fill="#475da7" id="svg_1" d="m28,10l-24,0a1,1 0 0 1 0,-2l24,0a1,1 0 0 1 0,2z"/>
  <path fill="#475da7" id="svg_2" d="m28,17l-24,0a1,1 0 0 1 0,-2l24,0a1,1 0 0 1 0,2z"/>
  <path fill="#475da7" id="svg_3" d="m28,24l-24,0a1,1 0 0 1 0,-2l24,0a1,1 0 0 1 0,2z"/>
  <path d="m3.981109,6.717237c0.42503,0.283353 1.558137,1.039639 2.502952,1.463991c1.369099,0.614914 2.83353,0.94451 4.439198,0.94451c1.747343,0 3.683589,0 5.761512,0c2.077921,0 4.961061,-0.086183 6.517118,0c0.853981,0.047297 1.280565,0.208 2.077923,0.377805c0.190445,0.040557 0.236128,0.094451 0.283352,0.094451l0,0l0,0" id="svg_5" stroke-opacity="null" stroke-width="null" stroke="null" fill="none"/>
  <path fill-opacity="0" d="m1.997638,7.000591c-0.047225,0 0.143552,-0.004083 0.661157,0.236127c0.900603,0.417952 2.042278,0.99975 3.541913,1.46399c1.575739,0.4878 3.061817,0.783157 4.344746,1.133412c0.751365,0.205132 1.614121,0.340655 2.31405,0.519481c0.767007,0.195964 1.227863,0.330579 1.605667,0.472255c0.377805,0.141677 0.75618,0.232287 1.086186,0.283353c0.283884,0.043928 0.661158,0.094452 1.038961,0.141677c0.377804,0.047226 0.989969,0.118034 1.463991,0.141677c0.424501,0.021173 0.897284,0 1.511215,0c0.708384,0 1.511217,0 2.077923,0c0.661158,0 1.275089,0 1.794569,0c0.613932,0 0.991735,0 1.463991,0c0.377804,0 0.804272,0.009153 1.133411,-0.047226c0.237347,-0.040656 0.70488,-0.117948 0.94451,-0.141676c0.23498,-0.023268 0.609577,-0.070661 0.802834,-0.094452c0.140615,-0.017311 0.283354,0 0.42503,0c0.094452,0 0.188902,0 0.283354,0c0.09445,0 0.188902,0 0.236128,0c0.141676,0 0.237345,0.015129 0.330578,0c0.147411,-0.023921 0.324842,-0.117755 0.472256,-0.141676c0.093231,-0.015129 0.188902,0 0.236126,-0.047226l0.047226,0l0,0" id="svg_6" stroke-opacity="null" stroke-width="null" stroke="null" fill="#000000"/>
 </g>
</svg>