<svg width="24" height="24" xmlns="http://www.w3.org/2000/svg" xmlns:xlink="http://www.w3.org/1999/xlink">
    <defs>
        <path d="M9 18.286c1.238 0 2.25-1.029 2.25-2.286 0-1.257-1.012-2.286-2.25-2.286-1.237 0-2.25 1.029-2.25 2.286 0 1.257 1.013 2.286 2.25 2.286zM15.75 8h-1.125V5.714C14.625 2.56 12.105 0 9 0S3.375 2.56 3.375 5.714V8H2.25C1.012 8 0 9.029 0 10.286v11.428C0 22.971 1.012 24 2.25 24h13.5c1.238 0 2.25-1.029 2.25-2.286V10.286C18 9.029 16.988 8 15.75 8zM5.512 5.714C5.512 3.76 7.076 2.171 9 2.171s3.488 1.589 3.488 3.543V8H5.513V5.714zm10.238 16H2.25V10.286h13.5v11.428z" id="icon-security"/>
    </defs>
    <g transform="translate(3)" fill="none" fill-rule="evenodd">
        <mask id="mask-security" fill="#fff">
            <use xlink:href="#icon-security"/>
        </mask>
        <use fill="#111" fill-rule="nonzero" xlink:href="#icon-security"/>
        <g mask="url(#mask-security)" fill="#868E96">
            <path d="M-4-2h27v27H-4z"/>
        </g>
    </g> 
</svg>