<?xml version="1.0" encoding="UTF-8"?>
<svg width="24px" height="24px" viewBox="0 0 24 24" version="1.1" xmlns="http://www.w3.org/2000/svg" xmlns:xlink="http://www.w3.org/1999/xlink">
    <title>icon / info fill</title>
    <defs>
        <path d="M12,0 C18.627417,0 24,5.372583 24,12 C24,18.627417 18.627417,24 12,24 C5.372583,24 0,18.627417 0,12 C0,5.372583 5.372583,0 12,0 Z M12,17 C11.4477153,17 11,17.4477153 11,18 C11,18.5522847 11.4477153,19 12,19 C12.5522847,19 13,18.5522847 13,18 C13,17.4477153 12.5522847,17 12,17 Z M16.1206874,6.67932807 C14.9712365,4.81918811 11.9582508,4.53635489 9.44879121,5.64533325 L9.44879121,5.64533325 L8.53412447,6.04954204 L9.34254204,7.87887553 L10.2572088,7.47466675 L10.4549463,7.39185066 C12.1100643,6.73606478 13.9279593,6.93552185 14.4193126,7.73067193 C14.9648001,8.61342658 14.6203376,9.73739295 13.3945335,10.7760576 C11.6219948,12.2779887 11,13.1575019 11,14.5 L11,14.5 L11,15.5 L13,15.5 L13,14.5 L13.0023052,14.4175067 C13.030424,13.9263637 13.3239342,13.4945028 14.3264329,12.6130934 L14.3264329,12.6130934 L14.8741206,12.1384592 C16.6379252,10.5411221 17.2209199,8.45981868 16.1206874,6.67932807 Z" id="path-1"></path>
    </defs>
    <g id="icon-/-info-fill" stroke="none" stroke-width="1" fill="none" fill-rule="evenodd">
        <mask id="mask-2" fill="white">
            <use xlink:href="#path-1"></use>
        </mask>
        <use id="Combined-Shape" fill="#000000" fill-rule="nonzero" xlink:href="#path-1"></use>
        <g id="colour/purple" mask="url(#mask-2)" fill="#475DA7">
            <rect id="Rectangle" x="0" y="0" width="24" height="24"></rect>
        </g>
    </g>
</svg>