<svg xmlns="http://www.w3.org/2000/svg" width="24" height="24" viewBox="0 0 24 24">
    <g fill="none" fill-rule="evenodd">
        <g>
            <g fill="#b3b8bd" fill-rule="nonzero">
                <path d="M4 2l-.186.006C2.215 2.123 1 3.426 1 5l.006.186C1.123 6.785 2.426 8 4 8l.186-.006C5.785 7.877 7 6.574 7 5l-.006-.186C6.877 3.215 5.574 2 4 2zm-.076 2.003L4 4c.525 0 .959.405.997.924l.004.113c-.001.488-.406.922-.925.96l-.113.004c-.488-.001-.922-.406-.96-.925l-.004-.113c.001-.488.406-.922.925-.96zM5 9v2H3c-.513 0-.936.386-.993.883L2 12v4h2v4h3v2H2v-4H0v-6c0-1.598 1.249-2.904 2.824-2.995L3 9h2zM20.223 2.008L20 2c-1.574 0-2.877 1.215-2.992 2.777l-.007.186C17 6.574 18.215 7.877 19.777 7.992l.186.007c1.611.001 2.914-1.214 3.029-2.776l.007-.186c.001-1.611-1.214-2.914-2.776-3.029zm-.342 1.999L19.997 4l.116.005c.482.036.887.47.887.995l-.005.113C20.96 5.595 20.525 6 20 6l-.113-.005C19.405 5.96 19 5.525 19 5l.005-.113c.033-.445.406-.824.876-.88zM21 9c1.598 0 2.904 1.249 2.995 2.824L24 12v6h-2v4h-5v-2h3v-4h2v-4c0-.513-.386-.936-.883-.993L21 11h-2V9h2zM12 0l-.205.006C9.656.129 8 1.878 8 4l.006.205C8.129 6.344 9.878 8 12 8l.205-.006C14.344 7.871 16 6.122 16 4l-.006-.205C15.871 1.656 14.122 0 12 0zm-.118 2.003L12 2c1.06 0 1.936.828 1.997 1.882l.003.147c0 1.032-.828 1.907-1.882 1.968L11.971 6c-1.032 0-1.907-.828-1.968-1.882L10 3.971c0-1.032.828-1.907 1.882-1.968z"/>
                <path d="M15 9H9c-1.657 0-3 1.343-3 3v6h2v6h8v-5h2v-7c0-1.657-1.343-3-3-3zm0 2l.117.007c.497.057.883.48.883.993v5h-2v5h-4v-6H8v-4c0-.553.447-1 1-1h6z"/>
            </g>
        </g>
    </g>
</svg>
