<?xml version="1.0" encoding="UTF-8"?>
<svg width="30px" height="30px" viewBox="0 0 30 30" version="1.1" xmlns="http://www.w3.org/2000/svg" xmlns:xlink="http://www.w3.org/1999/xlink">
    <title>Messages</title>
    <defs>
        <path d="M15,0 C15.6,0 16,0.4 16,1 L16,1 L16,13 C16,13.6 15.6,14 15,14 L15,14 L11.4,14 L8.7,16.7 C8.5,16.9 8.3,17 8,17 C7.7,17 7.5,16.9 7.3,16.7 L7.3,16.7 L4.6,14 L1,14 C0.4,14 0,13.6 0,13 L0,13 L0,1 C0,0.4 0.4,0 1,0 L1,0 Z M14,2 L2,2 L2,12 L5,12 C5.3,12 5.5,12.1 5.7,12.3 L5.7,12.3 L8,14.6 L10.3,12.3 C10.5,12.1 10.7,12 11,12 L11,12 L14,12 L14,2 Z M11,8 C11.5522847,8 12,8.44771525 12,9 C12,9.51283584 11.6139598,9.93550716 11.1166211,9.99327227 L11,10 L5,10 C4.44771525,10 4,9.55228475 4,9 C4,8.48716416 4.38604019,8.06449284 4.88337887,8.00672773 L5,8 L11,8 Z M11,4 C11.5522847,4 12,4.44771525 12,5 C12,5.51283584 11.6139598,5.93550716 11.1166211,5.99327227 L11,6 L5,6 C4.44771525,6 4,5.55228475 4,5 C4,4.48716416 4.38604019,4.06449284 4.88337887,4.00672773 L5,4 L11,4 Z" id="messages-path-1"></path>
    </defs>
    <g id="✅-Activity-Log" stroke="none" stroke-width="1" fill="none" fill-rule="evenodd">
        <g id="Activity-log:-Spec" transform="translate(-402.000000, -3958.000000)">
            <g id="Stacked-Group" transform="translate(370.000000, 360.000000)">
                <g id="Pre-submission" transform="translate(0.000000, 3472.000000)">
                    <g id="Version-2-events" transform="translate(24.000000, 91.000000)">
                        <g id="Message-row" transform="translate(0.000000, 27.000000)">
                            <g id="Messages" transform="translate(8.000000, 8.000000)">
                                <circle id="Oval" fill="#475DA7" cx="15" cy="15" r="15"></circle>
                                <g id="icon-/-small-message" transform="translate(7.000000, 7.000000)">
                                    <mask id="messages-mask-2" fill="white">
                                        <use xlink:href="#messages-path-1"></use>
                                    </mask>
                                    <use id="Combined-Shape" fill="#6D7278" fill-rule="nonzero" xlink:href="#messages-path-1"></use>
                                    <g id="Group" mask="url(#messages-mask-2)" fill="#FFFFFF">
                                        <g id="colour">
                                            <rect id="Rectangle" x="0" y="0" width="16" height="17.6705819"></rect>
                                        </g>
                                    </g>
                                </g>
                            </g>
                        </g>
                    </g>
                </g>
            </g>
        </g>
    </g>
</svg>