<?xml version="1.0" encoding="UTF-8"?>
<svg width="30px" height="31px" viewBox="0 0 30 31" version="1.1" xmlns="http://www.w3.org/2000/svg" xmlns:xlink="http://www.w3.org/1999/xlink">
    <title>Notes</title>
    <defs>
        <path d="M13.5333333,8.99471173 C14.0487991,8.99471173 14.4666667,9.41233377 14.4666667,9.92749666 C14.4666667,10.4058622 14.1063625,10.8001236 13.6421797,10.854006 L13.5333333,10.8602816 L8.86666667,10.8602816 L8.86666667,21.1209157 L19.1333333,21.1209157 L19.1333333,16.4569911 C19.1333333,15.9418282 19.5512009,15.5242062 20.0666667,15.5242062 C20.5453134,15.5242062 20.9398067,15.8842986 20.9937208,16.3482087 L21,16.4569911 L21,21.1209157 C21,22.1041549 20.2382719,22.9101282 19.2726118,22.981367 L19.1333333,22.9864855 L8.86666667,22.9864855 C7.88284934,22.9864855 7.07640228,22.225205 7.00512159,21.2601124 L7,21.1209157 L7,10.8602816 C7,9.87704233 7.76172809,9.07106912 8.72738817,8.99983032 L8.86666667,8.99471173 L13.5333333,8.99471173 Z M18.9490796,7.27774092 C19.3251059,6.90193557 19.934765,6.90193557 20.3107913,7.27774092 L20.3107913,7.27774092 L22.7179803,9.68351546 C23.0940066,10.0593208 23.0940066,10.6686217 22.7179803,11.044427 L22.7179803,11.044427 L15.0149756,18.7429055 C14.8992681,18.8585451 14.7559811,18.9428061 14.598642,18.9877337 L14.598642,18.9877337 L11.2285775,19.9500435 C10.5022305,20.1574493 9.83069955,19.4863129 10.0382273,18.7603927 L10.0382273,18.7603927 L11.0011029,15.3923084 C11.0460569,15.2350617 11.1303674,15.091859 11.2460749,14.9762194 L11.2460749,14.9762194 Z M19.6299355,9.3198651 L12.7829272,16.1618879 L12.3650392,17.6236365 L13.8276472,17.205994 L20.6746555,10.3639712 L19.6299355,9.3198651 Z" id="path-1"></path>
    </defs>
    <g id="✅-Activity-Log" stroke="none" stroke-width="1" fill="none" fill-rule="evenodd">
        <g id="Activity-log:-Spec" transform="translate(-402.000000, -1926.000000)">
            <g id="Stacked-Group" transform="translate(370.000000, 360.000000)">
                <g id="Version-1" transform="translate(0.000000, 800.000000)">
                    <g id="Stacked-Group-2" transform="translate(24.000000, 91.000000)">
                        <g id="Date" transform="translate(0.000000, 638.000000)">
                            <g id="Notes" transform="translate(8.000000, 37.977672)">
                                <ellipse id="Oval" fill="#475DA7" cx="15" cy="14.9911862" rx="15" ry="14.9911862"></ellipse>
                                <mask id="mask-2" fill="white">
                                    <use xlink:href="#path-1"></use>
                                </mask>
                                <use id="Combined-Shape" fill="#475DA7" fill-rule="nonzero" xlink:href="#path-1"></use>
                                <g id="Group" mask="url(#mask-2)">
                                    <g transform="translate(7.000000, 6.995887)" id="colour">
                                        <rect id="Rectangle" fill="#FFFFFF" x="0" y="0" width="16.0094069" height="16"></rect>
                                    </g>
                                </g>
                            </g>
                        </g>
                    </g>
                </g>
            </g>
        </g>
    </g>
</svg>