<?xml version="1.0" encoding="UTF-8"?>
<svg width="24px" height="24px" viewBox="0 0 24 24" version="1.1" xmlns="http://www.w3.org/2000/svg" xmlns:xlink="http://www.w3.org/1999/xlink">
    <title>icon / plus chunky</title>
    <defs>
        <path d="M21.5548454,10.3604426 C22.3696216,10.4624086 23,11.1575879 23,12 C23,12.8711307 22.3259087,13.5848189 21.4708908,13.6478997 L21.3475678,13.6524322 L13.6527668,13.6527668 L13.6524322,21.3475678 C13.6524322,22.2601809 12.9126131,23 12,23 C11.1575879,23 10.4624086,22.3696216 10.3604426,21.5548454 L10.3475678,21.3475678 L10.3472332,13.6527668 L2.65243215,13.6524322 L2.44515457,13.6395574 C1.63037838,13.5375914 1,12.8424121 1,12 C1,11.1288693 1.67409135,10.4151811 2.5291092,10.3521003 L2.65243215,10.3475678 L10.3472332,10.3472332 L10.3475678,2.65243215 C10.3475678,1.73981907 11.0873869,1 12,1 C12.8424121,1 13.5375914,1.63037838 13.6395574,2.44515457 L13.6524322,2.65243215 L13.6527668,10.3472332 L21.3475678,10.3475678 L21.5548454,10.3604426 Z" id="plusChunky"></path>
    </defs>
    <g id="icon-/-plus-chunky" stroke="none" stroke-width="1" fill="none" fill-rule="evenodd">
        <mask id="mask-plusChunky" fill="white">
            <use xlink:href="#plusChunky"></use>
        </mask>
        <use id="Path" fill="#475DA7" fill-rule="nonzero" xlink:href="#plusChunky"></use>
        <g id="Group" mask="url(#mask-plusChunky)" fill="#475DA7">
            <g id="colour">
                <rect id="Rectangle" x="0" y="0" width="24" height="24"></rect>
            </g>
        </g>
    </g>
</svg>