<?xml version="1.0" encoding="UTF-8"?>
<svg width="24px" height="24px" viewBox="0 0 24 24" version="1.1" xmlns="http://www.w3.org/2000/svg" xmlns:xlink="http://www.w3.org/1999/xlink">
    <title>icon/project</title>
    <defs>
        <path d="M12,0 C14.7614237,0 17,2.23857625 17,5 C17,7.41853874 15.2828356,9.43601224 13.0011864,9.89974091 L13,12.495 L16.2001785,14.8568121 C16.9430625,14.3538145 17.8284249,14.0453652 18.7831104,14.0046195 L19,14 C21.7614237,14 24,16.2385763 24,19 C24,21.7614237 21.7614237,24 19,24 C16.2385763,24 14,21.7614237 14,19 C14,18.006293 14.2898828,17.0802918 14.7896973,16.3019475 L12,14.242 L9.21030272,16.3019475 C9.67356615,17.0233721 9.95647949,17.8716471 9.99538049,18.7831104 L10,19 C10,21.7614237 7.76142375,24 5,24 C2.23857625,24 0,21.7614237 0,19 C0,16.2385763 2.23857625,14 5,14 C6.03738327,14 7.00097825,14.3159252 7.79982145,14.8568121 L11,12.495 L10.999812,9.89994372 C8.71766536,9.43660076 7,7.4188915 7,5 C7,2.23857625 9.23857625,0 12,0 Z M5,16 C3.34314575,16 2,17.3431458 2,19 C2,20.6568542 3.34314575,22 5,22 C6.65685425,22 8,20.6568542 8,19 C8,17.3431458 6.65685425,16 5,16 Z M19,16 C17.3431458,16 16,17.3431458 16,19 C16,20.6568542 17.3431458,22 19,22 C20.6568542,22 22,20.6568542 22,19 C22,17.3431458 20.6568542,16 19,16 Z M12,2 C10.3431458,2 9,3.34314575 9,5 C9,6.65685425 10.3431458,8 12,8 C13.6568542,8 15,6.65685425 15,5 C15,3.34314575 13.6568542,2 12,2 Z" id="projectUpdated"></path>
    </defs>
    <g id="icon/project" stroke="none" stroke-width="1" fill="none" fill-rule="evenodd">
        <g id="single-content-02">
            <mask id="mask-projectUpdated" fill="white">
                <use xlink:href="#projectUpdated"></use>
            </mask>
            <use id="Combined-Shape" fill="#111111" fill-rule="nonzero" xlink:href="#projectUpdated"></use>
            <g id="colour/purple" mask="url(#mask-projectUpdated)" fill="#475DA7">
                <rect id="Rectangle" x="0" y="0" width="24" height="24"></rect>
            </g>
        </g>
    </g>
</svg>