<?xml version="1.0" encoding="UTF-8"?>
<svg width="20px" height="24px" viewBox="0 0 20 24" version="1.1" xmlns="http://www.w3.org/2000/svg" xmlns:xlink="http://www.w3.org/1999/xlink">
    <!-- Generator: Sketch 62 (91390) - https://sketch.com -->
    <title>icon/project</title>
    <desc>Created with Sketch.</desc>
    <defs>
        <path d="M20,0 L20,17.4142136 L13.4142136,24 L0,24 L0,0 L20,0 Z M18,2 L2,2 L2,22 L12,22 L12,16 L18,16 L18,2 Z M10,16 L10,18 L4,18 L4,16 L10,16 Z M16,11 L16,13 L4,13 L4,11 L16,11 Z M16,6 L16,8 L4,8 L4,6 L16,6 Z" id="project"></path>
    </defs>
    <g id="Page-1" stroke="none" stroke-width="1" fill="none" fill-rule="evenodd">
        <g id="Artboard" transform="translate(-110.000000, -996.000000)">
            <g id="icon/project" transform="translate(110.000000, 996.000000)">
                <mask id="mask-project" fill="white">
                    <use xlink:href="#project"></use>
                </mask>
                <!-- <use id="Combined-Shape" fill="#111111" fill-rule="nonzero" xlink:href="#project"></use> -->
                <use id="Combined-Shape" fill="#3db28c" fill-rule="nonzero" xlink:href="#project"></use>
            </g>
        </g>
    </g>
</svg>