<?xml version="1.0" encoding="UTF-8"?>
<svg width="20px" height="24px" viewBox="0 0 20 24" version="1.1" xmlns="http://www.w3.org/2000/svg" xmlns:xlink="http://www.w3.org/1999/xlink">
    <title>Combined Shape</title>
    <defs>
        <path d="M22,0 L22,17.4142136 L15.4142136,24 L2,24 L2,0 L22,0 Z M20,2 L4,2 L4,22 L14,22 L14,16 L20,16 L20,2 Z M12,16 L12,18 L6,18 L6,16 L12,16 Z M18,11 L18,13 L6,13 L6,11 L18,11 Z M18,6 L18,8 L6,8 L6,6 L18,6 Z" id="projectNew"></path>
    </defs>
    <g id="Symbols" stroke="none" stroke-width="1" fill="none" fill-rule="evenodd">
        <g id="icon/project" transform="translate(-2.000000, 0.000000)">
            <mask id="mask-projectNew" fill="white">
                <use xlink:href="#projectNew"></use>
            </mask>
            <use id="Combined-Shape" fill="#111111" fill-rule="nonzero" xlink:href="#projectNew"></use>
        </g>
    </g>
</svg>