<?xml version="1.0" encoding="UTF-8"?>
<svg width="24px" height="24px" viewBox="0 0 24 24" version="1.1" xmlns="http://www.w3.org/2000/svg" xmlns:xlink="http://www.w3.org/1999/xlink">
    <title>icon/shield</title>
    <defs>
        <path d="M4.47181266,5.59851616 L11.6738942,2.07122417 C11.8820468,1.97625861 12.1179532,1.97625861 12.3261058,2.07122417 L19.5281873,5.59851616 C19.8057242,5.70704822 20,5.96481187 20,6.26327504 C20,9.92623211 19.5004337,12.7616322 18.3070252,15.1222046 C17.0997398,17.4963434 15.1986123,19.354955 12.39549,21.0779014 C12.1595837,21.2406995 11.8404163,21.2406995 11.60451,21.0779014 C8.80138768,19.354955 6.90026019,17.4963434 5.69297485,15.1222046 C4.49956635,12.7616322 4,9.92623211 4,6.26327504 C4,5.96481187 4.1942758,5.70704822 4.47181266,5.59851616 Z" id="path-1"></path>
    </defs>
    <g id="icon/shield" stroke="none" stroke-width="1" fill="none" fill-rule="evenodd">
        <mask id="mask-2" fill="white">
            <use xlink:href="#path-1"></use>
        </mask>
        <use id="Path" fill="#475DA7" xlink:href="#path-1"></use>
        <g id="Group" mask="url(#mask-2)" fill="#475DA7">
            <g id="colour">
                <rect id="Rectangle" x="0" y="0" width="24" height="24"></rect>
            </g>
        </g>
    </g>
</svg>