<?xml version="1.0" encoding="UTF-8"?>
<svg width="24px" height="24px" viewBox="0 0 24 24" version="1.1" xmlns="http://www.w3.org/2000/svg" xmlns:xlink="http://www.w3.org/1999/xlink">
    <title>icon/shield</title>
    <defs>
        <path d="M12.3261058,2.07122417 L19.5281873,5.59851616 C19.8057242,5.70704822 20,5.96481187 20,6.26327504 C20,9.92623211 19.5004337,12.7616322 18.3070252,15.1222046 C17.0997398,17.4963434 15.1986123,19.354955 12.39549,21.0779014 C12.1595837,21.2406995 11.8404163,21.2406995 11.60451,21.0779014 C8.80138768,19.354955 6.90026019,17.4963434 5.69297485,15.1222046 C4.49956635,12.7616322 4,9.92623211 4,6.26327504 C4,5.96481187 4.1942758,5.70704822 4.47181266,5.59851616 L11.6738942,2.07122417 C11.8820468,1.97625861 12.1179532,1.97625861 12.3261058,2.07122417 Z M15.7420192,8.13460125 C15.4508655,7.9188202 15.0313953,7.96896159 14.8051062,8.24659519 L14.8051062,8.24659519 L10.5990074,13.4053166 L9.13091008,12.0053922 C8.86906899,11.7642411 8.45285947,11.7676899 8.19545276,12.0131436 C7.93804606,12.2585973 7.93442931,12.6554796 8.18732389,12.9051618 L8.18732389,12.9051618 L10.1892748,14.8141496 C10.3143919,14.9334927 10.4840989,15.0005941 10.6610679,15.0005941 L10.6610679,15.0005941 L10.7024415,15.0005941 C10.8938706,14.9891006 11.0708571,14.8996165 11.1882483,14.754971 L11.1882483,14.754971 L15.859467,9.02800754 C16.0857561,8.75037392 16.0331729,8.35038231 15.7420192,8.13460125 Z" id="shield"></path>
    </defs> 
    <g id="icon/shield" stroke="none" stroke-width="1" fill="none" fill-rule="evenodd">
        <mask id="mask-shield" fill="white">
            <use xlink:href="#shield"></use>
        </mask>
        <use id="Combined-Shape" fill="#475DA7" xlink:href="#shield"></use>
        <g id="Group" mask="url(#mask-shield)" fill="#475DA7">
            <g id="colour">
                <rect id="Rectangle" x="0" y="0" width="24" height="24"></rect>
            </g>
        </g>
    </g>
</svg>