<?xml version="1.0" encoding="UTF-8"?>
<svg width="70px" height="35px" viewBox="0 0 70 35" version="1.1" xmlns="http://www.w3.org/2000/svg" xmlns:xlink="http://www.w3.org/1999/xlink">
    <g id="Badges" stroke="none" stroke-width="1" fill="none" fill-rule="evenodd">
        <g id="Spec:-Meta-data-quality-rating" transform="translate(-201.000000, -368.000000)" stroke="#FFFFFF">
            <g id="Group-17-Copy-2" transform="translate(192.000000, 368.000000)">
                <g id="Group-16" transform="translate(9.000000, 0.000000)">
                    <path d="M6.7323836,14.9872946 C2.77630566,20.6031457 0.604257225,27.2850918 0.503659927,34.1560644 L13.3672537,34.1560644 C13.4647646,30.0021547 14.7755114,25.965672 17.138947,22.5478108 L6.7323836,14.9872946 Z" id="Segment-1" fill="#4BD0EA"></path>
                    <path d="M23.6256582,2.3308024 C17.1240343,4.55082901 11.4389937,8.68072116 7.32019133,14.1782939 L17.7268759,21.7388982 C20.2481364,18.4359835 23.680146,15.945045 27.6005725,14.5674924 L23.6256582,2.3308024 Z" id="Segment-2" fill="#4BD0EA"></path>
                    <path d="M44.7302936,2.02154621 C38.1664915,-0.00718595872 31.1404392,-0.00718595872 24.5766371,2.02154621 L28.5515303,14.2581715 C32.532201,13.065921 36.7747297,13.065921 40.7554004,14.2581715 L44.7302936,2.02154621 Z" id="Segment-3" fill="#4BD0EA"></path>
                    <path d="M45.6812725,2.3308024 L41.7063582,14.5674924 C45.6267847,15.945045 49.0587943,18.4359835 51.5800548,21.7388982 L61.9867394,14.1782939 C57.867937,8.68072116 52.1828964,4.55082901 45.6812725,2.3308024 Z" id="Segment-4" fill="#F3F3F3"></path>
                    <path d="M62.5745471,14.9872946 L52.1679837,22.5478108 C54.5314193,25.965672 55.8421661,30.0021547 55.939677,34.1560644 L68.8032708,34.1560644 C68.7026735,27.2850918 66.530625,20.6031457 62.5745471,14.9872946 Z" id="Segment-5" fill="#F3F3F3"></path>
                </g>
            </g>
        </g>
    </g>
</svg>