<svg xmlns="http://www.w3.org/2000/svg" xmlns:xlink="http://www.w3.org/1999/xlink" width="16" height="16" viewBox="0 0 16 16">
    <defs>
        <path id="w2zsjtvp0a" d="M8 0C3.6 0 0 3.6 0 8s3.6 8 8 8 8-3.6 8-8-3.6-8-8-8zm0 12c-.6 0-1-.4-1-1s.4-1 1-1 1 .4 1 1-.4 1-1 1zm1-3H7V4h2v5z"/>
    </defs>
    <g fill="none" fill-rule="evenodd">
        <g>
            <g>
                <g>
                    <g>
                        <g transform="translate(-835 -536) translate(491 96) translate(24 124) translate(0 300) translate(320 16)">
                            <mask id="r4ovut3zvb" fill="#fff">
                                <use xlink:href="#w2zsjtvp0a"/>
                            </mask>
                            <use fill="#111" fill-rule="nonzero" xlink:href="#w2zsjtvp0a"/>
                            <g fill="#DC3645" mask="url(#r4ovut3zvb)">
                                <g>
                                    <path d="M0 0H16V16H0z"/>
                                </g>
                            </g>
                        </g>
                    </g>
                </g>
            </g>
        </g>
    </g>
</svg>
