<?xml version="1.0" encoding="UTF-8"?>
<svg width="24px" height="24px" viewBox="0 0 24 24" version="1.1" xmlns="http://www.w3.org/2000/svg" xmlns:xlink="http://www.w3.org/1999/xlink">
    <title>icon/variable</title>
    <g id="icon/variable" stroke="none" stroke-width="1" fill="none" fill-rule="evenodd" stroke-linejoin="round">
        <g id="Group-10" transform="translate(4.000000, 4.000000)" stroke="#2C8267">
            <g id="iconfinder_puzzle_291495">
                <path d="M15.7030968,7.50032258 L13.3882581,5.18522581 C13.3944516,5.77051613 13.1753548,6.3576129 12.7286452,6.80432258 C11.847871,7.68509677 10.4192258,7.68509677 9.53845161,6.80432258 C8.65767742,5.92354839 8.65767742,4.49490323 9.53870968,3.61412903 C9.98490323,3.16741935 10.5725161,2.94832258 11.1578065,2.95477419 L8.38696774,0.183677419 C8.14206452,-0.0612258065 7.74464516,-0.0612258065 7.5,0.183677419 L4.95703226,2.72664516 C4.96322581,2.14109677 4.74412903,1.554 4.29767742,1.10754839 C3.41664516,0.226516129 1.98825806,0.226516129 1.10774194,1.10754839 C0.226709677,1.98806452 0.226709677,3.41670968 1.10774194,4.29748387 C1.55419355,4.74393548 2.14129032,4.96303226 2.72683871,4.95683871 L0.183870968,7.49980645 C-0.0612903226,7.74445161 -0.0612903226,8.14212903 0.183870968,8.38677419 L2.56270968,10.7653548 C2.56270968,10.7640645 2.56245161,10.7632903 2.56245161,10.762 C2.56245161,9.48793548 3.59496774,8.45541935 4.86877419,8.45541935 C6.14258065,8.45541935 7.17509677,9.48793548 7.17509677,10.762 C7.17509677,12.0355484 6.14258065,13.0680645 4.86877419,13.0680645 C4.86748387,13.0680645 4.86619355,13.0678065 4.86516129,13.0678065 L7.50025806,15.7031613 C7.74490323,15.9480645 8.14232258,15.9480645 8.38722581,15.7031613 L15.7030968,8.38729032 C15.9482581,8.14264516 15.9482581,7.74496774 15.7030968,7.50032258 Z" id="Path"></path>
            </g>
        </g>
    </g>
</svg>