<?xml version="1.0" encoding="UTF-8"?>
<svg width="235px" height="103px" viewBox="0 0 235 103" version="1.1" xmlns="http://www.w3.org/2000/svg" xmlns:xlink="http://www.w3.org/1999/xlink">
    <!-- Generator: Sketch 63.1 (92452) - https://sketch.com -->
    <title>logo / white</title>
    <desc>Created with Sketch.</desc>
    <defs>
        <linearGradient x1="-65.5419281%" y1="-202.478134%" x2="87.2512227%" y2="165.05102%" id="linearGradient-1">
            <stop stop-color="#FFFFFF" offset="19%"></stop>
            <stop stop-color="#FFFFFF" offset="33%"></stop>
            <stop stop-color="#FFFFFF" offset="45%"></stop>
            <stop stop-color="#FFFFFF" offset="58%"></stop>
            <stop stop-color="#FFFFFF" offset="70%"></stop>
            <stop stop-color="#FFFFFF" offset="79%"></stop>
        </linearGradient>
        <linearGradient x1="-68.6705707%" y1="-191.010401%" x2="101.692842%" y2="183.618128%" id="linearGradient-2">
            <stop stop-color="#FFFFFF" offset="19%"></stop>
            <stop stop-color="#FFFFFF" offset="33%"></stop>
            <stop stop-color="#FFFFFF" offset="45%"></stop>
            <stop stop-color="#FFFFFF" offset="58%"></stop>
            <stop stop-color="#FFFFFF" offset="70%"></stop>
            <stop stop-color="#FFFFFF" offset="79%"></stop>
        </linearGradient>
        <linearGradient x1="19.8181413%" y1="3.73053242%" x2="171.170519%" y2="368.99674%" id="linearGradient-3">
            <stop stop-color="#FFFFFF" offset="19%"></stop>
            <stop stop-color="#FFFFFF" offset="33%"></stop>
            <stop stop-color="#FFFFFF" offset="45%"></stop>
            <stop stop-color="#FFFFFF" offset="58%"></stop>
            <stop stop-color="#FFFFFF" offset="70%"></stop>
            <stop stop-color="#FFFFFF" offset="79%"></stop>
        </linearGradient>
    </defs>
    <g id="Style-Guide" stroke="none" stroke-width="1" fill="none" fill-rule="evenodd">
        <g id="Style-guide" transform="translate(-284.000000, -1001.000000)" fill-rule="nonzero">
            <g id="logo-/-white" transform="translate(284.000000, 1001.000000)">
                <path d="M1.0042735,32.87 C0.971892473,32.6291007 1.05267447,32.3867683 1.22329717,32.212966 C1.39391987,32.0391637 1.63538927,31.9532394 1.87799145,31.98 L2.88226496,31.98 C3.12486714,31.9532394 3.36633654,32.0391637 3.53695924,32.212966 C3.70758194,32.3867683 3.78836394,32.6291007 3.75598291,32.87 L3.75598291,38.34 L10.6452991,38.34 L10.6452991,32.87 C10.6122792,32.6271604 10.6943046,32.3828117 10.8673395,32.2085551 C11.0403744,32.0342986 11.2848249,31.9498665 11.5290598,31.98 L12.5333333,31.98 C12.7759355,31.9532394 13.0174049,32.0391637 13.1880276,32.212966 C13.3586503,32.3867683 13.4394323,32.6291007 13.4070513,32.87 L13.4070513,46.08 C13.4436557,46.3217809 13.3642798,46.5666622 13.1926284,46.7415123 C13.0209771,46.9163624 12.7769166,47.0009449 12.5333333,46.97 L11.5290598,46.97 C11.2838633,47.004432 11.0367546,46.9213941 10.8626508,46.7460611 C10.6885471,46.5707282 10.6079517,46.3237485 10.6452991,46.08 L10.6452991,40.68 L3.7258547,40.68 L3.7258547,46.08 C3.7624591,46.3217809 3.6830832,46.5666622 3.51143187,46.7415123 C3.33978053,46.9163624 3.09572003,47.0009449 2.85213675,46.97 L1.84786325,46.97 C1.60427997,47.0009449 1.36021947,46.9163624 1.18856813,46.7415123 C1.0169168,46.5666622 0.937540901,46.3217809 0.974145299,46.08 L1.0042735,32.87 Z" id="Path" fill="#FFFFFF"></path>
                <path d="M20.8286325,35.99 C23.9017094,35.99 25.6190171,38.17 25.6190171,41.12 C25.5890496,41.5913927 25.2089752,41.9655491 24.7352564,41.99 L18.0970085,41.99 C18.1203864,42.8186363 18.477153,43.6031698 19.0871406,44.1673109 C19.6971281,44.7314519 20.509176,45.0278851 21.340812,44.99 C22.1660037,44.9751848 22.9715248,44.7366312 23.6707265,44.3 C24.2029915,44.04 24.5846154,44.11 24.8557692,44.59 L25.1168803,45.02 C25.2493683,45.2122254 25.2922506,45.4519741 25.2345595,45.6779267 C25.1768685,45.9038794 25.0241989,46.094123 24.8155983,46.2 C23.7199011,46.8945804 22.4488868,47.2655936 21.15,47.27 C19.6139705,47.3452447 18.1155751,46.7817423 17.0129971,45.714195 C15.9104192,44.6466477 15.3027525,43.1710009 15.3352564,41.64 C15.2381749,40.1455311 15.7793774,38.6797264 16.8255087,37.6037685 C17.87164,36.5278105 19.3254212,35.9417516 20.8286325,35.99 L20.8286325,35.99 Z M22.9476496,40.4 C23.0099572,39.7855709 22.8088441,39.1735053 22.3938514,38.714576 C21.9788587,38.2556467 21.3885636,37.9925153 20.7683761,37.99 C19.413883,37.9992807 18.28599,39.0273431 18.157265,40.37 L22.9476496,40.4 Z" id="Shape" fill="#FFFFFF"></path>
                <path d="M32.8497863,40.32 L33.2916667,40.32 L33.2916667,40.07 C33.3439744,39.5336638 33.1452219,39.0032384 32.7528796,38.6320993 C32.3605374,38.2609602 31.8183594,38.090497 31.2831197,38.17 C30.4951876,38.1921223 29.7239477,38.4012538 29.033547,38.78 C28.5012821,39.01 28.0995726,38.93 27.8485043,38.42 L27.6376068,38.02 C27.4966038,37.8256806 27.4531739,37.57759 27.5198334,37.3472266 C27.586493,37.1168633 27.7558364,36.9298194 27.9790598,36.84 C29.0712772,36.2768195 30.2841414,35.9851867 31.5141026,35.9899414 C34.3160256,35.9899414 35.9831197,37.55 35.9831197,40.28 L35.9831197,46.12 C36.0204671,46.3637485 35.9398717,46.6107282 35.765768,46.7860611 C35.5916642,46.9613941 35.3445555,47.044432 35.099359,47.01 L34.3762821,47.01 C34.1326988,47.0409449 33.8886383,46.9563624 33.7169869,46.7815123 C33.5453356,46.6066622 33.4659597,46.3617809 33.5025641,46.12 L33.5025641,45.7 C33.4992449,45.5451492 33.5161238,45.3905244 33.5527778,45.24 L33.5025641,45.24 C32.8155718,46.462109 31.5246028,47.2250025 30.1181624,47.24 C29.2019225,47.3149613 28.2955798,47.0075848 27.6157636,46.391338 C26.9359474,45.7750913 26.5437477,44.9053517 26.532906,43.99 C26.532906,40.85 30.4294872,40.32 32.8497863,40.32 Z M30.8412393,45.18 C32.2895461,45.038233 33.3765773,43.798068 33.3217949,42.35 L33.3217949,41.99 L32.8698718,41.99 C31.5141026,41.99 29.2042735,42.2 29.2042735,43.8 C29.2239598,44.2025337 29.4098701,44.5790614 29.7179703,44.8404003 C30.0260706,45.1017392 30.4289544,45.2246426 30.8311966,45.18 L30.8412393,45.18 Z" id="Shape" fill="#FFFFFF"></path>
                <path d="M38.2527778,32.87 C38.2203967,32.6291007 38.3011787,32.3867683 38.4718014,32.212966 C38.6424241,32.0391637 38.8838935,31.9532394 39.1264957,31.98 L40.0604701,31.98 C40.3024231,31.9524773 40.5434691,32.0385706 40.7126916,32.212951 C40.8819141,32.3873314 40.9600625,32.6301615 40.9241453,32.87 L40.9241453,43.4 C40.9241453,44.46 41.3760684,44.65 41.7777778,44.69 C41.9673455,44.6999557 42.1445113,44.7869141 42.2678954,44.9305647 C42.3912796,45.0742154 42.4500773,45.2619787 42.4305556,45.45 L42.4305556,46.17 C42.4662815,46.415146 42.3859437,46.6629431 42.2130076,46.8410137 C42.0400716,47.0190843 41.7940474,47.107339 41.5467949,47.08 C40.100641,47.08 38.2527778,46.7 38.2527778,43.61 L38.2527778,32.87 Z" id="Path" fill="#FFFFFF"></path>
                <path d="M44.4893162,38.49 L43.9168803,38.49 C43.6732971,38.5209449 43.4292366,38.4363624 43.2575852,38.2615123 C43.0859339,38.0866622 43.006558,37.8417809 43.0431624,37.6 L43.0431624,37.24 C43.0136362,36.9961234 43.0982652,36.7522592 43.2727029,36.5785638 C43.4471406,36.4048684 43.692047,36.3205994 43.9369658,36.35 L44.5495726,36.35 L44.5495726,34.16 C44.5240066,33.9170419 44.6099249,33.6755711 44.783401,33.5028333 C44.956877,33.3300955 45.1993797,33.2445427 45.4433761,33.27 L46.2869658,33.27 C46.5309622,33.2445427 46.7734649,33.3300955 46.9469409,33.5028333 C47.120417,33.6755711 47.2063353,33.9170419 47.1807692,34.16 L47.1807692,36.35 L48.7474359,36.35 C48.9914323,36.3245427 49.233935,36.4100955 49.407411,36.5828333 C49.580887,36.7555711 49.6668054,36.9970419 49.6412393,37.24 L49.6412393,37.6 C49.6736203,37.8408993 49.5928383,38.0832317 49.4222156,38.257034 C49.2515929,38.4308363 49.0101236,38.5167606 48.7675214,38.49 L47.1807692,38.49 L47.1807692,42.66 C47.1114203,43.1615535 47.2623417,43.6685528 47.594974,44.0514625 C47.9276063,44.4343721 48.409729,44.6561015 48.9181624,44.66 C49.5809829,44.72 49.8119658,44.93 49.8119658,45.53 L49.8119658,46.18 C49.8119658,46.81 49.4504274,47.07 48.707265,47.07 C46.7790598,47.07 44.4893162,46.07 44.4893162,43.07 L44.4893162,38.49 Z" id="Path" fill="#FFFFFF"></path>
                <path d="M51.3987179,32.87 C51.3731519,32.6270419 51.4590702,32.3855711 51.6325463,32.2128333 C51.8060223,32.0400955 52.048525,31.9545427 52.2925214,31.98 L53.2064103,31.98 C53.4506452,31.9498665 53.6950956,32.0342986 53.8681306,32.2085551 C54.0411655,32.3828117 54.1231909,32.6271604 54.0901709,32.87 L54.0901709,37.22 C54.0916401,37.524368 54.0715045,37.8284589 54.0299145,38.13 L54.0299145,38.13 C54.8129407,36.7602612 56.2943693,35.9360401 57.8762821,35.99 C60.266453,35.99 61.6423077,37.24 61.6423077,40.09 L61.6423077,46.09 C61.6753276,46.3328396 61.5933022,46.5771883 61.4202673,46.7514449 C61.2472324,46.9257014 61.0027819,47.0101335 60.758547,46.98 L59.8446581,46.98 C59.598807,47.0135688 59.3513435,46.9306615 59.1758738,46.7559385 C59.000404,46.5812154 58.9171425,46.3348049 58.9508547,46.09 L58.9508547,40.6 C58.9508547,39.29 58.6194444,38.4 57.2536325,38.4 C55.375641,38.4 54.1403846,39.92 54.1403846,41.97 L54.1403846,46.08 C54.1777321,46.3237485 54.0971367,46.5707282 53.9230329,46.7460611 C53.7489292,46.9213941 53.5018205,47.004432 53.2566239,46.97 L52.342735,46.97 C52.096884,47.0035688 51.8494204,46.9206615 51.6739507,46.7459385 C51.4984809,46.5712154 51.4152194,46.3248049 51.4489316,46.08 L51.3987179,32.87 Z" id="Path" fill="#FFFFFF"></path>
                <path d="M69.3752137,32.87 C69.3428326,32.6291007 69.4236146,32.3867683 69.5942373,32.212966 C69.76486,32.0391637 70.0063294,31.9532394 70.2489316,31.98 L74.5070513,31.98 C79.1467949,31.98 82.1797009,34.73 82.1797009,39.46 C82.1797009,44.19 79.1668803,46.97 74.5070513,46.97 L70.2489316,46.97 C70.0053483,47.0009449 69.7612878,46.9163624 69.5896365,46.7415123 C69.4179852,46.5666622 69.3386093,46.3217809 69.3752137,46.08 L69.3752137,32.87 Z M74.3965812,44.63 C77.4094017,44.63 79.4179487,42.83 79.4179487,39.46 C79.4179487,36.09 77.4094017,34.33 74.3965812,34.33 L72.0867521,34.33 L72.0867521,44.63 L74.3965812,44.63 Z" id="Shape" fill="#FFFFFF"></path>
                <path d="M89.6012821,40.32 L90.0130342,40.32 L90.0130342,40.07 C90.0653419,39.5336638 89.8665894,39.0032384 89.4742472,38.6320993 C89.0819049,38.2609602 88.539727,38.090497 88.0044872,38.17 C87.2165551,38.1921223 86.4453152,38.4012538 85.7549145,38.78 C85.2226496,39.01 84.8209402,38.93 84.5698718,38.42 L84.3589744,38.02 C84.217455,37.8270128 84.172584,37.5800799 84.2372174,37.3499501 C84.3018507,37.1198204 84.4688561,36.9318889 84.6903846,36.84 C85.7832258,36.2643409 86.999169,35.9590762 88.2354701,35.95 C91.0373932,35.95 92.7044872,37.51 92.7044872,40.24 L92.7044872,46.08 C92.7418346,46.3237485 92.6612392,46.5707282 92.4871355,46.7460611 C92.3130317,46.9213941 92.065923,47.004432 91.8207265,46.97 L91.0976496,46.97 C90.8540663,47.0009449 90.6100058,46.9163624 90.4383545,46.7415123 C90.2667031,46.5666622 90.1873272,46.3217809 90.2239316,46.08 L90.2239316,45.66 C90.2206124,45.5051492 90.2374913,45.3505244 90.2741453,45.2 L90.2239316,45.2 C89.5369393,46.422109 88.2459703,47.1850025 86.8395299,47.2 C85.9351196,47.2659441 85.0430765,46.9599828 84.371303,46.3534244 C83.6995295,45.746866 83.306712,44.8926997 83.2844017,43.99 C83.2844017,40.85 87.1809829,40.32 89.6012821,40.32 Z M87.592735,45.18 C89.0410418,45.038233 90.128073,43.798068 90.0732906,42.35 L90.0732906,41.99 L89.6314103,41.99 C88.275641,41.99 85.965812,42.2 85.965812,43.8 C85.9857006,44.200596 86.170219,44.5754028 86.476047,44.8364256 C86.7818749,45.0974484 87.1820757,45.2216966 87.5826923,45.18 L87.592735,45.18 Z" id="Shape" fill="#FFFFFF"></path>
                <path d="M95.4963675,38.49 L94.9239316,38.49 C94.6803483,38.5209449 94.4362878,38.4363624 94.2646365,38.2615123 C94.0929852,38.0866622 94.0136093,37.8417809 94.0502137,37.6 L94.0502137,37.24 C94.0206875,36.9961234 94.1053165,36.7522592 94.2797542,36.5785638 C94.4541919,36.4048684 94.6990983,36.3205994 94.9440171,36.35 L95.5566239,36.35 L95.5566239,34.16 C95.5310578,33.9170419 95.6169762,33.6755711 95.7904522,33.5028333 C95.9639283,33.3300955 96.2064309,33.2445427 96.4504274,33.27 L97.2940171,33.27 C97.5380135,33.2445427 97.7805162,33.3300955 97.9539922,33.5028333 C98.1274682,33.6755711 98.2133866,33.9170419 98.1878205,34.16 L98.1878205,36.35 L99.7544872,36.35 C99.9984836,36.3245427 100.240986,36.4100955 100.414462,36.5828333 C100.587938,36.7555711 100.673857,36.9970419 100.648291,37.24 L100.648291,37.6 C100.680672,37.8408993 100.59989,38.0832317 100.429267,38.257034 C100.258644,38.4308363 100.017175,38.5167606 99.7745726,38.49 L98.1878205,38.49 L98.1878205,42.66 C98.1184716,43.1615535 98.269393,43.6685528 98.6020253,44.0514625 C98.9346576,44.4343721 99.4167803,44.6561015 99.9252137,44.66 C100.577991,44.72 100.819017,44.93 100.819017,45.53 L100.819017,46.18 C100.819017,46.81 100.457479,47.07 99.7143162,47.07 C97.7861111,47.07 95.4963675,46.07 95.4963675,43.07 L95.4963675,38.49 Z" id="Path" fill="#FFFFFF"></path>
                <path d="M107.899145,40.32 L108.341026,40.32 L108.341026,40.07 C108.389305,39.5346898 108.189295,39.0067534 107.797969,38.6365749 C107.406642,38.2663965 106.866896,38.094555 106.332479,38.17 C105.544374,38.1909621 104.772864,38.4001668 104.082906,38.78 C103.550641,39.01 103.148932,38.93 102.897863,38.42 L102.676923,38.02 C102.53984,37.8245733 102.498707,37.5779604 102.564989,37.348902 C102.631271,37.1198436 102.79788,36.932834 103.018376,36.84 C104.110789,36.2632304 105.327009,35.9578961 106.563462,35.95 C109.355342,35.95 111.032479,37.51 111.032479,40.24 L111.032479,46.08 C111.082181,46.3370856 110.999042,46.6018532 110.811116,46.784955 C110.623191,46.9680567 110.355547,47.0450677 110.098504,46.99 L109.38547,46.99 C109.141887,47.0209449 108.897826,46.9363624 108.726175,46.7615123 C108.554524,46.5866622 108.475148,46.3417809 108.511752,46.1 L108.511752,45.68 C108.495683,45.5270841 108.495683,45.3729159 108.511752,45.22 L108.511752,45.22 C107.821436,46.4436874 106.526772,47.2065005 105.117308,47.22 C104.212112,47.2832795 103.320622,46.973073 102.652026,46.3621715 C101.983431,45.7512699 101.596586,44.8934494 101.582265,43.99 C101.582265,40.85 105.478846,40.32 107.899145,40.32 Z M105.890598,45.18 C107.338905,45.038233 108.425936,43.798068 108.371154,42.35 L108.371154,41.99 L107.929274,41.99 C106.573504,41.99 104.263675,42.2 104.263675,43.8 C104.283564,44.200596 104.468082,44.5754028 104.77391,44.8364256 C105.079738,45.0974484 105.479939,45.2216966 105.880556,45.18 L105.890598,45.18 Z" id="Shape" fill="#FFFFFF"></path>
                <path d="M118.815598,32.87 C118.779681,32.6301615 118.85783,32.3873314 119.027052,32.212951 C119.196275,32.0385706 119.437321,31.9524773 119.679274,31.98 L123.756624,31.98 C124.728209,31.914498 125.702865,32.0507096 126.618803,32.38 C128.243184,33.0807161 129.251529,34.7208043 129.13953,36.48 C129.20643,38.222164 128.222251,39.8358035 126.638889,40.58 L126.638889,40.58 C126.823199,40.8247679 126.984559,41.0858629 127.12094,41.36 L129.601496,45.88 C129.963034,46.49 129.69188,46.88 128.988889,46.88 L127.844017,46.88 C127.417286,46.8933789 127.023078,46.6539354 126.839744,46.27 L124.188462,41.27 L121.557265,41.27 L121.557265,45.97 C121.593869,46.2117809 121.514493,46.4566622 121.342842,46.6315123 C121.171191,46.8063624 120.92713,46.8909449 120.683547,46.86 L119.679274,46.86 C119.106838,46.86 118.815598,46.57 118.815598,45.97 L118.815598,32.87 Z M123.987607,38.99 C124.634581,39.0428047 125.271936,38.808321 125.729009,38.3493361 C126.186081,37.8903511 126.41618,37.2537521 126.357692,36.61 C126.431604,35.7598698 125.955695,34.9566773 125.17265,34.61 C124.655755,34.4072509 124.099956,34.3218444 123.545726,34.36 L121.537179,34.36 L121.537179,38.99 L123.987607,38.99 Z" id="Shape" fill="#FFFFFF"></path>
                <path d="M136.109188,35.99 C139.182265,35.99 140.899573,38.17 140.899573,41.12 C140.888758,41.6219347 140.479809,42.0247171 139.975641,42.03 L133.377564,42.03 C133.400942,42.8586363 133.757709,43.6431698 134.367696,44.2073109 C134.977684,44.7714519 135.789732,45.0678851 136.621368,45.03 C137.446795,45.0167075 138.252718,44.7780348 138.951282,44.34 C139.483547,44.08 139.865171,44.15 140.136325,44.63 L140.397436,45.06 C140.533339,45.2512358 140.57823,45.4921785 140.520258,45.7192288 C140.462287,45.9462791 140.30728,46.1366167 140.096154,46.24 C139.001149,46.9360975 137.729682,47.3072426 136.430556,47.31 C134.895408,47.3854006 133.397929,46.8216172 132.296903,45.7537285 C131.195877,44.6858397 130.590514,43.2100688 130.625855,41.68 C130.513868,40.1798363 131.047369,38.702958 132.093359,37.6175447 C133.139349,36.5321313 134.599277,35.9404484 136.109188,35.99 Z M138.218162,40.36 C138.268398,39.7538566 138.063224,39.1542109 137.651785,38.7046917 C137.240346,38.2551726 136.659702,37.9962711 136.048932,37.99 C134.694439,37.9992807 133.566546,39.0273431 133.437821,40.37 L138.218162,40.36 Z" id="Shape" fill="#FFFFFF"></path>
                <path d="M142.175,44.92 L142.426068,44.54 C142.747436,44.1 143.108974,44.06 143.641239,44.33 C144.363432,44.7875238 145.195952,45.0431254 146.051496,45.07 C146.98547,45.07 147.557906,44.65 147.557906,43.97 C147.557906,42.22 142.195085,42.88 142.195085,39.18 C142.195085,37.07 144.063034,35.9499805 146.332692,35.9499805 C147.387662,35.9473471 148.425441,36.2160216 149.345513,36.73 C149.556361,36.8361616 149.71126,37.0273877 149.770821,37.255055 C149.830383,37.4827222 149.78887,37.7248966 149.656838,37.92 L149.44594,38.3 C149.194872,38.8 148.793162,38.87 148.260897,38.63 C147.621532,38.3076633 146.918497,38.1300911 146.202137,38.11 C145.268162,38.11 144.735897,38.49 144.735897,39.16 C144.735897,40.93 150.108761,40.24 150.108761,43.91 C150.108761,45.81 148.49188,47.2200832 145.991239,47.2200832 C144.706635,47.2265477 143.449992,46.8466278 142.385897,46.13 C142.170564,46.0194921 142.019682,45.8148898 141.978258,45.5772232 C141.936833,45.3395567 142.009655,45.096295 142.175,44.92 L142.175,44.92 Z" id="Path" fill="#FFFFFF"></path>
                <path d="M156.736966,35.99 C159.810043,35.99 161.52735,38.17 161.52735,41.12 C161.516535,41.6219347 161.107587,42.0247171 160.603419,42.03 L154.005342,42.03 C154.038848,42.8607384 154.407141,43.6429821 155.02701,44.199996 C155.646879,44.7570099 156.46602,45.0417919 157.299359,44.99 C158.124787,44.9767075 158.93071,44.7380348 159.629274,44.3 C160.161538,44.04 160.543162,44.11 160.814316,44.59 L161.075427,45.02 C161.211331,45.2112358 161.256221,45.4521785 161.19825,45.6792288 C161.140279,45.9062791 160.985272,46.0966167 160.774145,46.2 C159.67914,46.8960975 158.407674,47.2672426 157.108547,47.27 C155.559355,47.3549257 154.04552,46.7883248 152.936075,45.7083192 C151.82663,44.6283137 151.223502,43.1341266 151.273718,41.59 C151.188777,40.1084759 151.731484,38.6593488 152.769888,37.5949518 C153.808292,36.5305548 155.247274,35.9483893 156.736966,35.99 L156.736966,35.99 Z M158.855983,40.4 C158.918291,39.7855709 158.717177,39.1735053 158.302185,38.714576 C157.887192,38.2556467 157.296897,37.9925153 156.676709,37.99 C155.322216,37.9992807 154.194323,39.0273431 154.065598,40.37 L158.855983,40.4 Z" id="Shape" fill="#FFFFFF"></path>
                <path d="M168.75812,40.32 L169.2,40.32 L169.2,40.07 C169.252308,39.5336638 169.053555,39.0032384 168.661213,38.6320993 C168.268871,38.2609602 167.726693,38.090497 167.191453,38.17 C166.403521,38.1921223 165.632281,38.4012538 164.94188,38.78 C164.409615,39.01 164.007906,38.93 163.756838,38.42 L163.54594,38.02 C163.408857,37.8245733 163.367724,37.5779604 163.434006,37.348902 C163.500288,37.1198436 163.666897,36.932834 163.887393,36.84 C164.976078,36.26293 166.189131,35.9575258 167.422436,35.95 C170.224359,35.95 171.901496,37.51 171.901496,40.24 L171.901496,46.08 C171.935208,46.3248049 171.851946,46.5712154 171.676477,46.7459385 C171.501007,46.9206615 171.253543,47.0035688 171.007692,46.97 L170.284615,46.97 C169.712179,46.97 169.42094,46.68 169.42094,46.08 L169.42094,45.66 C169.404871,45.5070841 169.404871,45.3529159 169.42094,45.2 L169.42094,45.2 C168.729088,46.4221916 167.435382,47.1844406 166.026496,47.2 C165.117098,47.2745991 164.217046,46.972542 163.538522,46.3650373 C162.859999,45.7575326 162.463044,44.8983362 162.441239,43.99 C162.441239,40.85 166.337821,40.32 168.75812,40.32 Z M166.749573,45.18 C168.197879,45.038233 169.284911,43.798068 169.230128,42.35 L169.230128,41.99 L168.778205,41.99 C167.422436,41.99 165.112607,42.2 165.112607,43.8 C165.134969,44.2033954 165.323081,44.579845 165.632742,44.8408965 C165.942403,45.1019481 166.346315,45.2245879 166.749573,45.18 L166.749573,45.18 Z" id="Shape" fill="#FFFFFF"></path>
                <path d="M174.191239,37.09 C174.158774,36.8517521 174.238466,36.6119092 174.40723,36.4399559 C174.575993,36.2680026 174.814965,36.1831571 175.054915,36.21 L175.878419,36.21 C176.121391,36.1811904 176.364305,36.2642065 176.538301,36.4355155 C176.712297,36.6068244 176.798408,36.8477513 176.772222,37.09 L176.772222,38.09 C176.771828,38.3345485 176.751677,38.5786692 176.711966,38.82 L176.711966,38.82 C177.133761,37.54 178.318803,36.1 179.845299,36.1 C180.437821,36.1 180.658761,36.4 180.658761,36.99 L180.658761,37.81 C180.681547,38.055893 180.591835,38.2989179 180.41454,38.4715784 C180.237245,38.6442389 179.991248,38.7281475 179.744872,38.7 C177.736325,38.7 176.822436,40.64 176.822436,42.6 L176.822436,46.06 C176.85904,46.3017809 176.779664,46.5466622 176.608013,46.7215123 C176.436362,46.8963624 176.192301,46.9809449 175.948718,46.95 L175.014744,46.95 C174.442308,46.95 174.151068,46.66 174.151068,46.06 L174.191239,37.09 Z" id="Path" fill="#FFFFFF"></path>
                <path d="M186.71453,35.99 C187.971445,35.9518875 189.209525,36.3011258 190.259615,36.99 C190.456356,37.1157359 190.588339,37.3205644 190.621129,37.5510451 C190.65392,37.7815258 190.584267,38.0147979 190.430342,38.19 L190.149145,38.61 C189.827778,39.1 189.476282,39.1 188.964103,38.85 C188.346898,38.4251055 187.615502,38.1951214 186.865171,38.19 C185.975786,38.1697641 185.117768,38.5175362 184.49541,39.1505112 C183.873053,39.7834863 183.542044,40.6450272 183.581197,41.53 C183.524339,42.4445704 183.856655,43.3407412 184.496767,43.9990581 C185.136879,44.657375 186.025677,45.0170479 186.945513,44.99 C187.81793,44.9719131 188.663356,44.6854815 189.365812,44.17 C189.898077,43.88 190.299786,43.94 190.57094,44.45 L190.781838,44.85 C190.916866,45.0342913 190.968691,45.2662628 190.924861,45.4901741 C190.881031,45.7140854 190.745507,45.909695 190.550855,46.03 C189.438168,46.8412314 188.093576,47.2758385 186.71453,47.27 C184.635868,47.357213 182.676501,46.3026701 181.611059,44.5232815 C180.545618,42.743893 180.545618,40.526107 181.611059,38.7467185 C182.676501,36.9673299 184.635868,35.912787 186.71453,36 L186.71453,35.99 Z" id="Path" fill="#FFFFFF"></path>
                <path d="M192.549359,32.87 C192.522564,32.6257882 192.609938,32.3828583 192.786341,32.2111095 C192.962744,32.0393608 193.208614,31.9578387 193.453205,31.99 L194.367094,31.99 C194.612013,31.9605994 194.856919,32.0448684 195.031357,32.2185638 C195.205795,32.3922592 195.290424,32.6361234 195.260897,32.88 L195.260897,37.23 C195.262595,37.5347407 195.239082,37.8391029 195.190598,38.14 L195.190598,38.14 C195.954135,36.7841293 197.405879,35.9575422 198.966667,35.99 C201.36688,35.99 202.742735,37.24 202.742735,40.09 L202.742735,46.09 C202.776447,46.3348049 202.693186,46.5812154 202.517716,46.7559385 C202.342246,46.9306615 202.094783,47.0135688 201.848932,46.98 L200.945085,46.98 C200.698294,47.017986 200.448102,46.9365275 200.271521,46.7606982 C200.09494,46.5848689 200.013134,46.3357416 200.051282,46.09 L200.051282,40.6 C200.051282,39.29 199.709829,38.4 198.35406,38.4 C196.466026,38.4 195.240812,39.92 195.240812,41.97 L195.240812,46.08 C195.274524,46.3248049 195.191263,46.5712154 195.015793,46.7459385 C194.840323,46.9206615 194.59286,47.0035688 194.347009,46.97 L193.453205,46.97 C193.20897,47.0001335 192.96452,46.9157014 192.791485,46.7414449 C192.61845,46.5671883 192.536425,46.3228396 192.569444,46.08 L192.549359,32.87 Z" id="Path" fill="#FFFFFF"></path>
                <path d="M1.0042735,54.63 C0.971892473,54.3891007 1.05267447,54.1467683 1.22329717,53.972966 C1.39391987,53.7991637 1.63538927,53.7132394 1.87799145,53.74 L2.88226496,53.74 C3.12486714,53.7132394 3.36633654,53.7991637 3.53695924,53.972966 C3.70758194,54.1467683 3.78836394,54.3891007 3.75598291,54.63 L3.75598291,67.84 C3.7925873,68.0817809 3.7132114,68.3266622 3.54156007,68.5015123 C3.36990874,68.6763624 3.12584824,68.7609449 2.88226496,68.73 L1.87799145,68.73 C1.63440817,68.7609449 1.39034767,68.6763624 1.21869634,68.5015123 C1.04704501,68.3266622 0.967669106,68.0817809 1.0042735,67.84 L1.0042735,54.63 Z" id="Path" fill="#FFFFFF"></path>
                <path d="M6.43739316,58.85 C6.40147598,58.6101615 6.4796244,58.3673314 6.6488469,58.192951 C6.8180694,58.0185706 7.0591154,57.9324773 7.30106838,57.96 L8.13461538,57.96 C8.37656836,57.9324773 8.61761436,58.0185706 8.78683686,58.192951 C8.95605936,58.3673314 9.03420778,58.6101615 8.9982906,58.85 L8.9982906,59.5 C9.00893345,59.6631614 9.00893345,59.8268386 8.9982906,59.99 L8.9982906,59.99 C9.73646865,58.5643605 11.2240655,57.6802537 12.8346154,57.71 C15.2348291,57.71 16.6106838,58.95 16.6106838,61.8 L16.6106838,67.8 C16.644396,68.0448049 16.5611345,68.2912154 16.3856647,68.4659385 C16.210195,68.6406615 15.9627314,68.7235688 15.7168803,68.69 L14.8130342,68.69 C14.5681154,68.7194006 14.323209,68.6351316 14.1487713,68.4614362 C13.9743336,68.2877408 13.8897046,68.0438766 13.9192308,67.8 L13.9192308,62.35 C13.9192308,61.04 13.5777778,60.16 12.2220085,60.16 C10.3138889,60.16 9.10876068,61.74 9.10876068,63.68 L9.10876068,67.84 C9.14536508,68.0817809 9.06598918,68.3266622 8.89433785,68.5015123 C8.72268652,68.6763624 8.47862602,68.7609449 8.23504274,68.73 L7.30106838,68.73 C7.0591154,68.7575227 6.8180694,68.6714294 6.6488469,68.497049 C6.4796244,68.3226686 6.40147598,68.0798385 6.43739316,67.84 L6.43739316,58.85 Z" id="Path" fill="#FFFFFF"></path>
                <path d="M18.9205128,58.85 C18.8881318,58.6091007 18.9689138,58.3667683 19.1395365,58.192966 C19.3101592,58.0191637 19.5516286,57.9332394 19.7942308,57.96 L20.617735,57.96 C20.8603372,57.9332394 21.1018066,58.0191637 21.2724293,58.192966 C21.443052,58.3667683 21.523834,58.6091007 21.491453,58.85 L21.491453,59.5 C21.4882316,59.6644277 21.4714371,59.8283133 21.4412393,59.99 L21.491453,59.99 C22.22416,58.5592523 23.7153095,57.6730341 25.3277778,57.71 C27.7179487,57.71 29.0938034,58.95 29.0938034,61.8 L29.0938034,67.8 C29.1311509,68.0437485 29.0505555,68.2907282 28.8764517,68.4660611 C28.702348,68.6413941 28.4552393,68.724432 28.2100427,68.69 L27.2961538,68.69 C27.051235,68.7194006 26.8063287,68.6351316 26.631891,68.4614362 C26.4574533,68.2877408 26.3728242,68.0438766 26.4023504,67.8 L26.4023504,62.35 C26.4023504,61.04 26.0709402,60.16 24.7051282,60.16 C22.7970085,60.16 21.5918803,61.74 21.5918803,63.68 L21.5918803,67.84 C21.6277975,68.0798385 21.5496491,68.3226686 21.3804266,68.497049 C21.2112041,68.6714294 20.9701581,68.7575227 20.7282051,68.73 L19.7942308,68.73 C19.5506475,68.7609449 19.306587,68.6763624 19.1349357,68.5015123 C18.9632843,68.3266622 18.8839084,68.0817809 18.9205128,67.84 L18.9205128,58.85 Z" id="Path" fill="#FFFFFF"></path>
                <path d="M36.6660256,57.71 C39.7607156,57.8412486 42.1755561,60.4235015 42.0867733,63.5065492 C41.9979905,66.5895969 39.4385173,69.0298206 36.3413593,68.9842763 C33.2442013,68.938732 30.7582112,66.4243138 30.7608953,63.34 C30.773494,61.806963 31.4079151,60.3440968 32.5199893,59.2838357 C33.6320634,58.2235746 35.1273422,57.6559667 36.6660256,57.71 Z M36.6660256,66.71 C38.0442228,66.7795214 39.3260468,66.0064256 39.9025443,64.7579854 C40.4790418,63.5095452 40.2340216,62.0373798 39.283885,61.0408675 C38.3337483,60.0443552 36.8699921,59.7243398 35.5879998,60.2328504 C34.3060075,60.741361 33.4641605,61.9759088 33.4623932,63.35 C33.4241565,64.2218708 33.7440715,65.0716632 34.3484595,65.7036645 C34.9528476,66.3356659 35.7896066,66.6953935 36.6660256,66.7 L36.6660256,66.71 Z" id="Shape" fill="#FFFFFF"></path>
                <path d="M43.3444444,58.99 C43.133547,58.38 43.3444444,57.99 44.0474359,57.99 L45.0517094,57.99 C45.5259553,57.9492715 45.9564655,58.2664934 46.0559829,58.73 L48.0645299,64.66 C48.2259,65.1962545 48.3599739,65.7402805 48.4662393,66.29 L48.4662393,66.29 C48.5570548,65.7298427 48.6811328,65.1755374 48.8378205,64.63 L50.8463675,58.7 C50.9586251,58.2485297 51.3855815,57.9466806 51.850641,57.99 L52.8549145,57.99 C53.5076923,57.99 53.7888889,58.39 53.5779915,58.99 L50.3442308,67.99 C50.2361601,68.4454805 49.8080432,68.752413 49.3399573,68.71 L47.642735,68.71 C47.1721646,68.7616429 46.7385295,68.4507542 46.6384615,67.99 L43.3444444,58.99 Z" id="Path" fill="#FFFFFF"></path>
                <path d="M60.5978632,62.08 L61.0497863,62.08 L61.0497863,61.82 C61.0980662,61.2846898 60.898056,60.7567534 60.5067293,60.3865749 C60.1154025,60.0163965 59.5756565,59.844555 59.0412393,59.92 C58.2517574,59.9404503 57.4793514,60.1533314 56.7916667,60.54 C56.5917549,60.6716702 56.3432432,60.7075863 56.1139872,60.6379414 C55.8847313,60.5682965 55.6986762,60.4003649 55.6066239,60.18 L55.3957265,59.78 C55.2585728,59.5829507 55.2174016,59.3350386 55.2835473,59.1045138 C55.349693,58.8739889 55.5161819,58.6851557 55.7371795,58.59 C56.828722,58.0215495 58.0404471,57.7199073 59.2722222,57.71 C62.0741453,57.71 63.7512821,59.27 63.7512821,61.99 L63.7512821,67.84 C63.7849943,68.0848049 63.7017327,68.3312154 63.526263,68.5059385 C63.3507933,68.6806615 63.1033297,68.7635688 62.8574786,68.73 L62.1344017,68.73 C61.8924487,68.7575227 61.6514027,68.6714294 61.4821802,68.497049 C61.3129577,68.3226686 61.2348093,68.0798385 61.2707265,67.84 L61.2707265,67.42 C61.2543219,67.2637591 61.2543219,67.1062409 61.2707265,66.95 L61.2707265,66.95 C60.5892362,68.1876222 59.2935649,68.9662974 57.8762821,68.99 C56.9641747,69.0617655 56.0626887,68.7560089 55.3842202,68.1447686 C54.7057517,67.5335283 54.3102962,66.6708549 54.2910063,65.76 C54.2809829,62.61 58.1876068,62.08 60.5978632,62.08 Z M58.5893162,66.93 C60.037623,66.788233 61.1246542,65.548068 61.0698718,64.1 L61.0698718,63.7 L60.6179487,63.7 C59.2621795,63.7 56.9523504,63.91 56.9523504,65.52 C56.9636313,65.9297987 57.1474182,66.3159944 57.4587908,66.584195 C57.7701634,66.8523957 58.1804303,66.9778881 58.5893162,66.93 L58.5893162,66.93 Z" id="Shape" fill="#FFFFFF"></path>
                <path d="M66.4929487,60.24 L65.9104701,60.24 C65.3380342,60.24 65.0467949,59.95 65.0467949,59.35 L65.0467949,58.99 C65.0137749,58.7471604 65.0958003,58.5028117 65.2688353,58.3285551 C65.4418702,58.1542986 65.6863206,58.0698665 65.9305556,58.1 L66.5431624,58.1 L66.5431624,55.9 C66.5169769,55.6577513 66.6030872,55.4168244 66.7770832,55.2455155 C66.9510793,55.0742065 67.1939933,54.9911904 67.4369658,55.02 L68.2805556,55.02 C68.5235281,54.9911904 68.7664421,55.0742065 68.9404381,55.2455155 C69.1144342,55.4168244 69.2005444,55.6577513 69.174359,55.9 L69.174359,58.1 L70.7410256,58.1 C70.9850221,58.0745427 71.2275247,58.1600955 71.4010007,58.3328333 C71.5744768,58.5055711 71.6603952,58.7470419 71.6348291,58.99 L71.6348291,59.34 C71.6672101,59.5808993 71.5864281,59.8232317 71.4158054,59.997034 C71.2451827,60.1708363 71.0037133,60.2567606 70.7611111,60.23 L69.1844017,60.23 L69.1844017,64.41 C69.1184224,64.9109165 69.2705534,65.4160345 69.6024772,65.7981285 C69.9344011,66.1802226 70.4144798,66.4028729 70.9217949,66.41 C71.5846154,66.47 71.8155983,66.68 71.8155983,67.27 L71.8155983,67.99 C71.8155983,68.62 71.4540598,68.87 70.7108974,68.87 C68.7826923,68.87 66.4929487,67.87 66.4929487,64.93 L66.4929487,60.24 Z" id="Path" fill="#FFFFFF"></path>
                <path d="M73.4023504,55.26 L73.4023504,54.63 C73.3699694,54.3891007 73.4507514,54.1467683 73.6213741,53.972966 C73.7919968,53.7991637 74.0334662,53.7132394 74.2760684,53.74 L75.2100427,53.74 C75.4533266,53.713926 75.6952832,53.7996698 75.8673242,53.9729254 C76.0393652,54.146181 76.1227361,54.3880614 76.0938034,54.63 L76.0938034,55.26 C76.120761,55.4989281 76.035553,55.7368836 75.8628648,55.9049289 C75.6901767,56.0729741 75.4493088,56.1523276 75.2100427,56.12 L74.2760684,56.12 C74.0375111,56.1530719 73.7971,56.073571 73.6258059,55.9049663 C73.4545118,55.7363616 73.3718972,55.4979086 73.4023504,55.26 Z M73.4023504,58.85 C73.3699694,58.6091007 73.4507514,58.3667683 73.6213741,58.192966 C73.7919968,58.0191637 74.0334662,57.9332394 74.2760684,57.96 L75.2100427,57.96 C75.4519957,57.9324773 75.6930417,58.0185706 75.8622642,58.192951 C76.0314867,58.3673314 76.1096351,58.6101615 76.0737179,58.85 L76.0737179,67.85 C76.1096351,68.0898385 76.0314867,68.3326686 75.8622642,68.507049 C75.6930417,68.6814294 75.4519957,68.7675227 75.2100427,68.74 L74.2760684,68.74 C74.0324851,68.7709449 73.7884246,68.6863624 73.6167733,68.5115123 C73.4451219,68.3366622 73.365746,68.0917809 73.4023504,67.85 L73.4023504,58.85 Z" id="Shape" fill="#FFFFFF"></path>
                <path d="M83.7965812,57.71 C86.8848052,57.8628526 89.2792648,60.4535964 89.176348,63.5307697 C89.0734312,66.607943 86.511173,69.0343161 83.4195785,68.9822385 C80.327984,68.9301608 77.8496125,66.4188788 77.8512812,63.34 C77.8635155,61.7997464 78.5034377,60.3304831 79.6243604,59.2690066 C80.7452831,58.2075302 82.2510805,57.6448687 83.7965812,57.71 L83.7965812,57.71 Z M83.7965812,66.71 C85.1747784,66.7795214 86.4566023,66.0064256 87.0330998,64.7579854 C87.6095973,63.5095452 87.3645772,62.0373798 86.4144405,61.0408675 C85.4643038,60.0443552 84.0005477,59.7243398 82.7185554,60.2328504 C81.4365631,60.741361 80.5947161,61.9759088 80.5929487,63.35 C80.551822,64.2226372 80.8707733,65.0740804 81.4757817,65.7067304 C82.0807901,66.3393804 82.9192521,66.6982304 83.7965812,66.7 L83.7965812,66.71 Z" id="Shape" fill="#FFFFFF"></path>
                <path d="M91.5094017,58.85 C91.4776079,58.6110164 91.5571395,58.3706565 91.7253718,58.1972965 C91.893604,58.0239366 92.1321233,57.9365514 92.3730769,57.96 L93.2066239,57.96 C93.4485769,57.9324773 93.6896229,58.0185706 93.8588454,58.192951 C94.0280679,58.3673314 94.1062163,58.6101615 94.0702991,58.85 L94.0702991,59.5 C94.080942,59.6631614 94.080942,59.8268386 94.0702991,59.99 L94.0702991,59.99 C94.8084772,58.5643605 96.2960741,57.6802537 97.9066239,57.71 C100.306838,57.71 101.682692,58.95 101.682692,61.8 L101.682692,67.8 C101.72004,68.0437485 101.639444,68.2907282 101.465341,68.4660611 C101.291237,68.6413941 101.044128,68.724432 100.798932,68.69 L99.8850427,68.69 C99.6401239,68.7194006 99.3952176,68.6351316 99.2207799,68.4614362 C99.0463422,68.2877408 98.9617131,68.0438766 98.9912393,67.8 L98.9912393,62.35 C98.9912393,61.04 98.6497863,60.16 97.2940171,60.16 C95.3858974,60.16 94.1807692,61.74 94.1807692,63.68 L94.1807692,67.84 C94.2173736,68.0817809 94.1379977,68.3266622 93.9663464,68.5015123 C93.7946951,68.6763624 93.5506346,68.7609449 93.3070513,68.73 L92.3730769,68.73 C92.1311239,68.7575227 91.8900779,68.6714294 91.7208554,68.497049 C91.551633,68.3226686 91.4734845,68.0798385 91.5094017,67.84 L91.5094017,58.85 Z" id="Path" fill="#FFFFFF"></path>
                <path d="M116.375214,53.49 C118.114163,53.4624378 119.823721,53.9383822 121.296154,54.86 C121.505624,54.9792297 121.649222,55.1868955 121.686351,55.4242853 C121.723479,55.661675 121.650103,55.9029883 121.486966,56.08 L121.105342,56.67 C120.783974,57.16 120.40235,57.2 119.870085,56.91 C118.862363,56.3009882 117.704634,55.982496 116.525855,55.99 C115.134964,55.9306128 113.784118,56.4618445 112.809328,57.4515562 C111.834538,58.4412679 111.327415,59.796445 111.414103,61.18 C111.325181,62.560601 111.814695,63.9161832 112.766193,64.9242697 C113.717692,65.9323561 115.046123,66.5028364 116.43547,66.5 C117.887303,66.5253039 119.279054,65.9235625 120.251709,64.85 L120.251709,63.18 L118.815598,63.18 C118.571602,63.2054573 118.329099,63.1199045 118.155623,62.9471667 C117.982147,62.7744289 117.896229,62.5329581 117.921795,62.29 L117.921795,61.72 C117.892269,61.4761234 117.976898,61.2322592 118.151335,61.0585638 C118.325773,60.8848684 118.570679,60.8005994 118.815598,60.83 L121.828419,60.83 C122.070372,60.8024773 122.311418,60.8885706 122.48064,61.062951 C122.649863,61.2373314 122.728011,61.4801615 122.692094,61.72 L122.692094,67.84 C122.728011,68.0798385 122.649863,68.3226686 122.48064,68.497049 C122.311418,68.6714294 122.070372,68.7575227 121.828419,68.73 L121.296154,68.73 C120.723718,68.73 120.422436,68.43 120.422436,68.01 L120.422436,67.65 C120.41618,67.5300808 120.41618,67.4099192 120.422436,67.29 L120.422436,67.29 C119.237438,68.4291953 117.639899,69.0424061 115.99359,68.99 C113.976339,68.9889385 112.046677,68.1691661 110.649943,66.7198756 C109.253208,65.2705851 108.510092,63.3170062 108.592094,61.31 C108.51941,59.2268954 109.313674,57.2063334 110.78717,55.725856 C112.260665,54.2453786 114.282638,53.4363584 116.375214,53.49 L116.375214,53.49 Z" id="Path" fill="#FFFFFF"></path>
                <path d="M130.344658,62.08 L130.796581,62.08 L130.796581,61.82 C130.844861,61.2846898 130.644851,60.7567534 130.253524,60.3865749 C129.862197,60.0163965 129.322451,59.844555 128.788034,59.92 C127.998552,59.9404503 127.226146,60.1533314 126.538462,60.54 C126.33855,60.6716702 126.090038,60.7075863 125.860782,60.6379414 C125.631526,60.5682965 125.445471,60.4003649 125.353419,60.18 L125.142521,59.78 C125.005368,59.5829507 124.964196,59.3350386 125.030342,59.1045138 C125.096488,58.8739889 125.262977,58.6851557 125.483974,58.59 C126.575517,58.0215495 127.787242,57.7199073 129.019017,57.71 C131.82094,57.71 133.498077,59.27 133.498077,61.99 L133.498077,67.84 C133.531789,68.0848049 133.448528,68.3312154 133.273058,68.5059385 C133.097588,68.6806615 132.850125,68.7635688 132.604274,68.73 L131.881197,68.73 C131.639244,68.7575227 131.398198,68.6714294 131.228975,68.497049 C131.059753,68.3226686 130.981604,68.0798385 131.017521,67.84 L131.017521,67.42 C131.001117,67.2637591 131.001117,67.1062409 131.017521,66.95 L131.017521,66.95 C130.325669,68.1721916 129.031964,68.9344406 127.623077,68.95 C126.71097,69.0217655 125.809484,68.7160089 125.131015,68.1047686 C124.452547,67.4935283 124.057091,66.6308549 124.037801,65.72 C124.027778,62.61 127.934402,62.08 130.344658,62.08 Z M128.336111,66.93 C129.784418,66.788233 130.871449,65.548068 130.816667,64.1 L130.816667,63.7 L130.364744,63.7 C129.008974,63.7 126.699145,63.91 126.699145,65.52 C126.710426,65.9297987 126.894213,66.3159944 127.205586,66.584195 C127.516958,66.8523957 127.927225,66.9778881 128.336111,66.93 Z" id="Shape" fill="#FFFFFF"></path>
                <path d="M136.209615,60.24 L135.637179,60.24 C135.393596,60.2709449 135.149536,60.1863624 134.977884,60.0115123 C134.806233,59.8366622 134.726857,59.5917809 134.763462,59.35 L134.763462,58.99 C134.733935,58.7461234 134.818564,58.5022592 134.993002,58.3285638 C135.16744,58.1548684 135.412346,58.0705994 135.657265,58.1 L136.269872,58.1 L136.269872,55.9 C136.229311,55.642855 136.316926,55.3821375 136.504744,55.2010879 C136.692561,55.0200384 136.957096,54.9412955 137.213889,54.99 L138.057479,54.99 C138.300451,54.9611904 138.543365,55.0442065 138.717361,55.2155155 C138.891357,55.3868244 138.977468,55.6277513 138.951282,55.87 L138.951282,58.07 L140.517949,58.07 C140.761945,58.0445427 141.004448,58.1300955 141.177924,58.3028333 C141.3514,58.4755711 141.437318,58.7170419 141.411752,58.96 L141.411752,59.31 C141.444133,59.5508993 141.363351,59.7932317 141.192728,59.967034 C141.022106,60.1408363 140.780636,60.2267606 140.538034,60.2 L138.951282,60.2 L138.951282,64.38 C138.885303,64.8809165 139.037434,65.3860345 139.369358,65.7681285 C139.701281,66.1502226 140.18136,66.3728729 140.688675,66.38 C141.351496,66.44 141.582479,66.65 141.582479,67.24 L141.582479,67.99 C141.582479,68.62 141.22094,68.87 140.477778,68.87 C138.549573,68.87 136.259829,67.87 136.259829,64.93 L136.209615,60.24 Z" id="Path" fill="#FFFFFF"></path>
                <path d="M147.899359,57.71 C150.972436,57.71 152.689744,59.88 152.689744,62.84 C152.673622,63.3435403 152.261692,63.7448963 151.755769,63.75 L145.167735,63.75 C145.204191,64.5698147 145.566647,65.3415196 146.17517,65.8949261 C146.783693,66.4483327 147.588297,66.7379834 148.411538,66.7 C149.238419,66.6868276 150.045247,66.4444241 150.741453,66 C151.273718,65.75 151.655342,65.81 151.926496,66.3 L152.177564,66.72 C152.314168,66.9099389 152.360565,67.1498459 152.30457,67.3767161 C152.248576,67.6035863 152.095785,67.7947487 151.886325,67.9 C150.806619,68.5994163 149.548912,68.9775515 148.260897,68.99 C146.723086,69.0653935 145.223056,68.5005535 144.120149,67.430791 C143.017242,66.3610285 142.41082,64.8827189 142.446154,63.35 C142.352799,61.8643488 142.889986,60.4078961 143.926814,59.3355532 C144.963641,58.2632103 146.404892,57.6734549 147.899359,57.71 L147.899359,57.71 Z M150.018376,62.12 C150.074671,61.5088431 149.870842,60.9022086 149.456529,60.447833 C149.042215,59.9934574 148.45544,59.7330395 147.839103,59.73 C146.481109,59.739786 145.351882,60.773389 145.227991,62.12 L150.018376,62.12 Z" id="Shape" fill="#FFFFFF"></path>
                <path d="M153.563462,58.99 C153.44736,58.7550038 153.472707,58.4751303 153.629159,58.2646092 C153.78561,58.054088 154.046993,57.9481371 154.306624,57.99 L155.310897,57.99 C155.79052,57.9435318 156.217372,58.2925082 156.264957,58.77 L158.012393,64.99 C158.142949,65.56 158.223291,66.13 158.223291,66.13 L158.223291,66.13 C158.223291,66.13 158.313675,65.56 158.464316,64.99 L160.312179,58.74 C160.384728,58.257497 160.830155,57.9204131 161.316453,57.98 L162.119872,57.98 C162.60617,57.9204131 163.051596,58.257497 163.124145,58.74 L164.931838,65.03 C165.039749,65.4031347 165.116998,65.784392 165.162821,66.17 L165.162821,66.17 C165.162821,66.17 165.253205,65.6 165.403846,65.03 L167.121154,58.74 C167.183839,58.2494135 167.632308,57.9010961 168.125427,57.96 L169.129701,57.96 C169.389332,57.9181371 169.650714,58.024088 169.807166,58.2346092 C169.963617,58.4451303 169.988965,58.7250038 169.872863,58.96 L167.091026,67.96 C166.995603,68.4261189 166.56231,68.7453915 166.086752,68.7 L164.660684,68.7 C164.180131,68.7392199 163.747128,68.4115376 163.65641,67.94 L162.029487,62.55 C161.919052,62.1689266 161.831856,61.7815532 161.768376,61.39 L161.768376,61.39 C161.698717,61.7811817 161.608204,62.1683957 161.497222,62.55 L159.769872,67.99 C159.697323,68.472503 159.251896,68.8095869 158.765598,68.75 L157.299359,68.75 C156.822465,68.8002309 156.386251,68.478806 156.295085,68.01 L153.563462,58.99 Z" id="Path" fill="#FFFFFF"></path>
                <path d="M176.882692,62.08 L177.324573,62.08 L177.324573,61.82 C177.372852,61.2846898 177.172842,60.7567534 176.781516,60.3865749 C176.390189,60.0163965 175.850443,59.844555 175.316026,59.92 C174.529656,59.9400405 173.760405,60.1530029 173.076496,60.54 C172.874989,60.671769 172.625165,60.7077527 172.394419,60.638244 C172.163672,60.5687353 171.975773,60.400895 171.88141,60.18 L171.670513,59.78 C171.533359,59.5829507 171.492188,59.3350386 171.558334,59.1045138 C171.624479,58.8739889 171.790968,58.6851557 172.011966,58.59 C173.10721,58.02181 174.322118,57.7202321 175.557051,57.71 C178.348932,57.71 180.026068,59.27 180.026068,61.99 L180.026068,67.84 C180.059781,68.0848049 179.976519,68.3312154 179.801049,68.5059385 C179.62558,68.6806615 179.378116,68.7635688 179.132265,68.73 L178.389103,68.73 C178.145519,68.7609449 177.901459,68.6763624 177.729807,68.5015123 C177.558156,68.3266622 177.47878,68.0817809 177.515385,67.84 L177.515385,67.42 C177.49898,67.2637591 177.49898,67.1062409 177.515385,66.95 L177.515385,66.95 C176.825068,68.1736874 175.530405,68.9365005 174.12094,68.95 C173.209792,69.0218548 172.309292,68.7158245 171.632383,68.1042766 C170.955475,67.4927288 170.562261,66.6299634 170.545726,65.72 C170.565812,62.61 174.462393,62.08 176.882692,62.08 Z M174.874145,66.93 C176.334453,66.8031299 177.438525,65.5586382 177.384829,64.1 L177.384829,63.7 L176.942949,63.7 C175.587179,63.7 173.27735,63.91 173.27735,65.52 C173.286835,65.9211919 173.462873,66.3005293 173.763567,66.5677281 C174.064261,66.834927 174.462718,66.96609 174.864103,66.93 L174.874145,66.93 Z" id="Shape" fill="#FFFFFF"></path>
                <path d="M182.34594,70.75 C182.58279,70.8696254 182.843668,70.9345673 183.109188,70.94 C183.920061,70.8546192 184.59863,70.2895758 184.826496,69.51 L185.228205,68.51 L181.120726,58.99 C180.83953,58.37 181.120726,57.99 181.79359,57.99 L182.938462,57.99 C183.399595,57.9717245 183.813881,58.2687409 183.942735,58.71 L185.951282,64.2 C186.142094,64.77 186.352991,65.65 186.352991,65.65 L186.423291,65.65 C186.423291,65.65 186.614103,64.81 186.774786,64.24 L188.682906,58.73 C188.778328,58.2638811 189.211622,57.9446085 189.687179,57.99 L190.741667,57.99 C191.404487,57.99 191.675641,58.39 191.464744,58.99 L187.015812,70.35 C186.47545,72.0426588 184.892876,73.1890924 183.109188,73.1800537 C182.591363,73.1681616 182.080373,73.0596144 181.602778,72.86 C181.37652,72.7866835 181.197543,72.6124929 181.118765,72.388931 C181.039987,72.165369 181.070421,71.9180136 181.201068,71.72 L181.39188,71.26 C181.517351,70.8596544 181.941506,70.6329194 182.34594,70.75 L182.34594,70.75 Z" id="Path" fill="#FFFFFF"></path>
                <polygon id="Path" fill="url(#linearGradient-1)" points="165.865812 95.41 165.865812 75.23 162.029487 75.23 162.029487 102.67 181.753419 89.21 179.584188 86.05"></polygon>
                <polygon id="Path" fill="url(#linearGradient-2)" points="215.266026 39.47 212.976282 42.54 227.548291 53.34 213.036538 63.24 215.205769 66.39 234.146368 53.47"></polygon>
                <polygon id="Path" fill="url(#linearGradient-3)" points="162.029487 27.61 165.865812 27.61 165.865812 7.61 179.523932 17.74 181.813675 14.67 162.029487 0"></polygon>
            </g>
        </g>
    </g>
</svg>