<svg xmlns="http://www.w3.org/2000/svg" xmlns:xlink="http://www.w3.org/1999/xlink" width="24" height="24" viewBox="0 0 24 24">
    <defs>
        <path id="g63f9hu3ra" d="M7.362 6.394L0 13.72l7.362 7.326 7.362-7.326-7.362-7.326zM3.207 13.72l4.15-4.129 4.154 4.129-4.15 4.129-4.154-4.13zm17.8-7.077c-1.998-1.983-4.609-2.977-7.225-2.977V0l-4.82 4.795 4.82 4.79v-3.66c2.032 0 4.07.774 5.619 2.316 3.105 3.09 3.105 8.094 0 11.184-1.55 1.542-3.587 2.316-5.62 2.316-1.1 0-2.196-.232-3.218-.684L8.872 22.74c1.521.836 3.212 1.26 4.91 1.26 2.616 0 5.227-.994 7.225-2.977 3.99-3.97 3.99-10.41 0-14.38z"/>
    </defs>
    <g fill="none" fill-rule="evenodd">
        <g>
            <g>
                <g transform="translate(-344 -196) translate(320 172) translate(24 24)">
                    <mask id="bnod74qy1b" fill="#fff">
                        <use xlink:href="#g63f9hu3ra"/>
                    </mask>
                    <use fill="#111" fill-rule="nonzero" xlink:href="#g63f9hu3ra"/>
                    <path fill="#475DA7" d="M-4 -4H28V28H-4z" mask="url(#bnod74qy1b)"/>
                </g>
            </g>
        </g>
    </g>
</svg>
