<svg width="24" height="24" viewBox="0 0 24 24" xmlns="http://www.w3.org/2000/svg">
    <path fill-rule="evenodd" clip-rule="evenodd" d="M12 4C9.06602 4 6.40048 5.43529 4.04288 7.79289C3.23543 8.60035 2.52116 9.4624 1.905 10.325L1.64691 10.6945C1.4101 11.0415 1.23743 11.3189 1.13174 11.5039L0.848236 12L1.13174 12.4961C1.27265 12.7427 1.53265 13.1537 1.905 13.675C2.52116 14.5376 3.23543 15.3997 4.04288 16.2071C6.40048 18.5647 9.06602 20 12 20C14.934 20 17.5995 18.5647 19.9571 16.2071C20.7645 15.3997 21.4788 14.5376 22.095 13.675L22.3531 13.3055C22.5899 12.9585 22.7625 12.6811 22.8682 12.4961L23.1517 12L22.8682 11.5039L22.7403 11.2889C22.5903 11.0449 22.3742 10.716 22.095 10.325C21.4788 9.4624 20.7645 8.60035 19.9571 7.79289C17.5995 5.43529 14.934 4 12 4ZM12 6C14.316 6 16.5255 7.18971 18.5429 9.20711C19.2667 9.9309 19.9118 10.7095 20.4675 11.4875L20.739 11.8785L20.82 12L20.739 12.1215C20.655 12.2462 20.5644 12.3768 20.4675 12.5125C19.9118 13.2905 19.2667 14.0691 18.5429 14.7929C16.5255 16.8103 14.316 18 12 18C9.68395 18 7.47449 16.8103 5.45709 14.7929C4.7333 14.0691 4.08819 13.2905 3.53247 12.5125L3.26098 12.1215L3.17899 12L3.26098 11.8785C3.34499 11.7538 3.43554 11.6232 3.53247 11.4875C4.08819 10.7095 4.7333 9.9309 5.45709 9.20711C7.47449 7.18971 9.68395 6 12 6ZM12 8C9.79085 8 7.99999 9.79086 7.99999 12C7.99999 14.2091 9.79085 16 12 16C14.2091 16 16 14.2091 16 12C16 9.79086 14.2091 8 12 8ZM12 10C13.1046 10 14 10.8954 14 12C14 13.1046 13.1046 14 12 14C10.8954 14 9.99999 13.1046 9.99999 12C9.99999 10.8954 10.8954 10 12 10Z" />
</svg>
