<svg width="24" height="24" viewBox="0 0 24 24" xmlns="http://www.w3.org/2000/svg">
    <path fill-rule="evenodd" clip-rule="evenodd" d="M15.8789 1.70689L2.06629 15.5195L0.783447 23.2165L8.4805 21.9337L22.2931 8.1211C23.4646 6.94958 23.4646 5.05041 22.2931 3.87889L20.1211 1.70689C18.9496 0.535366 17.0504 0.535366 15.8789 1.70689ZM20.8789 5.2931L20.9621 5.3873C21.2671 5.7795 21.2393 6.34645 20.8789 6.70689L19.4999 8.08569L15.9142 4.49999L17.2931 3.1211C17.6836 2.73063 18.3164 2.73063 18.7069 3.1211L20.8789 5.2931ZM18.0856 9.49981L14.5 5.91419L4.41411 15.9999L7.99914 19.5849L18.0856 9.49981ZM5.91839 20.3326L3.6664 18.0806L3.216 20.783L5.91839 20.3326Z" />
</svg>
